STARTFONT 2.1
COMMENT
COMMENT Converted from OpenType font "texgyreadventor-regular.otf" by "otf2bdf 3.0".
COMMENT
FONT -FreeType-TeXGyreAdventor-Medium-R-Normal--64-640-72-72-P-308-ISO10646-1
SIZE 64 72 72
FONTBOUNDINGBOX 138 93 -39 -19
STARTPROPERTIES 19
FOUNDRY "FreeType"
FAMILY_NAME "TeXGyreAdventor"
WEIGHT_NAME "Medium"
SLANT "R"
SETWIDTH_NAME "Normal"
ADD_STYLE_NAME ""
PIXEL_SIZE 64
POINT_SIZE 640
RESOLUTION_X 72
RESOLUTION_Y 72
SPACING "P"
AVERAGE_WIDTH 308
CHARSET_REGISTRY "ISO10646"
CHARSET_ENCODING "1"
FONT_ASCENT 74
FONT_DESCENT 19
COPYRIGHT "Copyright 2006, 2009 for TeX Gyre extensions by B. Jackowski and J.M. Nowacki (on behalf of TeX users groups). This work is released under the GUST Font License --  see http://tug.org/fonts/licenses/GUST-FONT-LICENSE.txt for details."
_OTF_FONTFILE "texgyreadventor-regular.otf"
_OTF_PSNAME "TeXGyreAdventor-Regular"
ENDPROPERTIES
CHARS 1053
STARTCHAR 0020
ENCODING 32
SWIDTH 281 0
DWIDTH 18 0
BBX 0 0 0 0
BITMAP
ENDCHAR
STARTCHAR 0021
ENCODING 33
SWIDTH 296 0
DWIDTH 19 0
BBX 5 47 7 0
BITMAP
F8
F8
F8
F8
F8
F8
F8
F8
F8
F8
F8
F8
F8
F8
F8
F8
F8
F8
F8
F8
F8
F8
F8
F8
F8
F8
F8
F8
F8
F8
F8
F8
F8
F8
00
00
00
00
00
F8
F8
F8
F8
F8
F8
F8
F8
ENDCHAR
STARTCHAR 0022
ENCODING 34
SWIDTH 312 0
DWIDTH 20 0
BBX 10 14 5 33
BITMAP
E1C0
E1C0
E1C0
E1C0
E1C0
E1C0
E1C0
E1C0
E1C0
E1C0
E1C0
E1C0
E1C0
E1C0
ENDCHAR
STARTCHAR 0023
ENCODING 35
SWIDTH 546 0
DWIDTH 35 0
BBX 35 47 0 0
BITMAP
0007801E00
000F001E00
000F001E00
000F003E00
000F003E00
000F003C00
001F003C00
001E003C00
001E003C00
001E007C00
001E007800
003E007800
003C007800
003C007800
7FFFFFFFE0
7FFFFFFFE0
7FFFFFFFE0
7FFFFFFFE0
007800F000
007800F000
007801F000
007801E000
00F801E000
00F001E000
00F001E000
00F003E000
00F003E000
00F003C000
FFFFFFFFC0
FFFFFFFFC0
FFFFFFFFC0
FFFFFFFFC0
01E0078000
03E0078000
03C0078000
03C0078000
03C00F8000
03C00F8000
07C00F0000
07800F0000
07800F0000
07800F0000
07801F0000
0F801E0000
0F001E0000
0F001E0000
0F001E0000
ENDCHAR
STARTCHAR 0024
ENCODING 36
SWIDTH 546 0
DWIDTH 35 0
BBX 26 55 5 -3
BITMAP
001E0000
001E0000
001E0000
001E0000
001E0000
003F0000
01FFE000
03FFF800
0FFFFC00
0FF1FE00
1F803E00
3F001F00
3E000F00
3E000F80
3C000F80
7C000780
7C000780
7C000000
7C000000
3C000000
3E000000
3F000000
1F800000
1FE00000
0FFC0000
07FF8000
01FFE000
007FF800
001FFC00
0003FE00
00007F00
00003F00
00001F80
00000F80
00000F80
00000780
000007C0
F00007C0
F00007C0
F0000780
F8000F80
F8000F80
7C001F80
7C001F00
3F007F00
3F81FE00
1FFFFC00
07FFF800
03FFE000
007F8000
001E0000
001E0000
001E0000
001E0000
001E0000
ENDCHAR
STARTCHAR 0025
ENCODING 37
SWIDTH 781 0
DWIDTH 50 0
BBX 47 49 1 -1
BITMAP
00FC00000000
07FF8001F000
0FFFC001F000
1FFFE001E000
3F87F003E000
7E01F803C000
7C00F807C000
F8007C07C000
F8007C0F8000
F0003C0F8000
F0003C1F0000
F0003C1F0000
F0003C1E0000
F0003C3E0000
F8007C3C0000
F8007C7C0000
7C00F8780000
7E01F8F80000
3F87F0F80000
1FFFE1F00000
0FFFC1F00000
07FF81E00000
00FC03E00000
000003C00000
000007C00000
000007800000
00000F800000
00000F80FF00
00001F03FFC0
00001F0FFFE0
00001E1FFFF0
00003E1F83F8
00003C3F00FC
00007C3E007C
0000787C003E
0000F878003E
0000F878001E
0001F078001E
0001F078001E
0001E078001E
0003E078003E
0003C07C003C
0007C03E007C
0007803F00FC
000F801FC3F8
000F000FFFF0
001F0007FFE0
001F0003FFC0
00000000FE00
ENDCHAR
STARTCHAR 0026
ENCODING 38
SWIDTH 750 0
DWIDTH 48 0
BBX 43 49 4 -1
BITMAP
0007F0000000
001FFC000000
007FFF000000
00FFFF800000
01FE3FC00000
01F807C00000
03E003E00000
03E001E00000
07C001F00000
07C001F00000
07C001F00000
07C001F00000
07C001F00000
03E003F00000
03E003E00000
01F007E00000
01F81FC00000
00FC7F803F00
007FFF003E00
003FFE007E00
003FF8007C00
007FE000FC00
01FFE000F800
07FFF001F800
0FF9F801F000
1FE0FC03F000
3F807E03E000
3F003F07C000
7E001F87C000
7C000FCF8000
F80007EF8000
F80003FF0000
F80001FF0000
F00000FE0000
F000007F0000
F000007F8000
F00000FFC000
F80000FFE000
F80001FFF000
F80001F3F800
7C0003F1FC00
7E0007E0FE00
3F000FC07F00
1F801FC03F80
0FF0FF801FC0
07FFFF000FE0
03FFFE0007C0
00FFF8000380
001FE0000100
ENDCHAR
STARTCHAR 0027
ENCODING 39
SWIDTH 203 0
DWIDTH 13 0
BBX 3 14 5 33
BITMAP
E0
E0
E0
E0
E0
E0
E0
E0
E0
E0
E0
E0
E0
E0
ENDCHAR
STARTCHAR 0028
ENCODING 40
SWIDTH 375 0
DWIDTH 24 0
BBX 17 55 4 -8
BITMAP
000080
000380
000F80
001F80
003F80
007E00
00FC00
01F800
03F000
07E000
07C000
0F8000
1F8000
1F0000
3F0000
3E0000
3E0000
7C0000
7C0000
7C0000
F80000
F80000
F80000
F80000
F80000
F00000
F00000
F00000
F00000
F00000
F80000
F80000
F80000
F80000
780000
7C0000
7C0000
7C0000
3E0000
3E0000
1F0000
1F0000
0F8000
0F8000
07C000
03E000
03F000
01F800
00FC00
007E00
003F80
001F80
000780
000380
000080
ENDCHAR
STARTCHAR 0029
ENCODING 41
SWIDTH 375 0
DWIDTH 24 0
BBX 18 55 2 -8
BITMAP
800000
E00000
F80000
FC0000
7F0000
3F8000
0FC000
07C000
03E000
01F000
01F800
00F800
007C00
007C00
003E00
003E00
001F00
001F00
000F80
000F80
000F80
000F80
000780
0007C0
0007C0
0007C0
0007C0
0007C0
0007C0
0007C0
0007C0
0007C0
0007C0
000F80
000F80
000F80
000F80
001F00
001F00
003F00
003E00
007E00
007C00
00FC00
01F800
01F000
03F000
07E000
0FC000
3F8000
7F0000
FE0000
F80000
F00000
C00000
ENDCHAR
STARTCHAR 002A
ENCODING 42
SWIDTH 421 0
DWIDTH 27 0
BBX 19 18 4 30
BITMAP
060400
0E0F00
0F0F00
0F1E00
079C00
07FC00
03F800
01F800
FFFFE0
FFFFE0
FFFFE0
03F800
03F800
07BC00
0F1E00
0F1E00
0E0F00
060400
ENDCHAR
STARTCHAR 002B
ENCODING 43
SWIDTH 609 0
DWIDTH 39 0
BBX 31 30 4 1
BITMAP
0007C000
0007C000
0007C000
0007C000
0007C000
0007C000
0007C000
0007C000
0007C000
0007C000
0007C000
0007C000
0007C000
FFFFFFFE
FFFFFFFE
FFFFFFFE
FFFFFFFE
FFFFFFFE
0007C000
0007C000
0007C000
0007C000
0007C000
0007C000
0007C000
0007C000
0007C000
0007C000
0007C000
0007C000
ENDCHAR
STARTCHAR 002C
ENCODING 44
SWIDTH 281 0
DWIDTH 18 0
BBX 10 12 6 -4
BITMAP
07C0
0780
0F80
0F80
1F00
1F00
3E00
3E00
7C00
7C00
7800
F800
ENDCHAR
STARTCHAR 002D
ENCODING 45
SWIDTH 328 0
DWIDTH 21 0
BBX 17 4 2 15
BITMAP
FFFF80
FFFF80
FFFF80
FFFF80
ENDCHAR
STARTCHAR 002E
ENCODING 46
SWIDTH 281 0
DWIDTH 18 0
BBX 5 8 6 0
BITMAP
F8
F8
F8
F8
F8
F8
F8
F8
ENDCHAR
STARTCHAR 002F
ENCODING 47
SWIDTH 437 0
DWIDTH 28 0
BBX 22 55 3 -8
BITMAP
00003C
00007C
00007C
000078
0000F8
0000F8
0000F0
0001F0
0001F0
0001E0
0003E0
0003E0
0003C0
0007C0
0007C0
000780
000F80
000F00
000F00
001F00
001E00
001E00
003E00
003C00
003C00
007C00
007800
007800
00F800
00F000
00F000
01F000
01E000
01E000
03E000
03C000
03C000
07C000
078000
078000
0F8000
0F0000
0F0000
1F0000
1E0000
1E0000
3E0000
3C0000
3C0000
7C0000
780000
780000
F80000
F00000
F00000
ENDCHAR
STARTCHAR 0030
ENCODING 48
SWIDTH 546 0
DWIDTH 35 0
BBX 32 49 2 -1
BITMAP
001FF000
00FFFE00
03FFFF80
07FFFFC0
0FF81FE0
1FC007F0
3F8001F8
3F0000F8
7E00007C
7C00007C
7C00003E
F800003E
F800003E
F800001E
F800001E
F800001F
F800001F
F800001F
F800001F
F800001F
F800001F
F800001F
F800001F
F800001F
F800001F
F800001F
F800001F
F800001F
F800001F
F800001F
F800001F
F800001F
F800001F
F800001F
F800001E
F800003E
F800003E
7C00003E
7C00003E
7C00007C
3E00007C
3F0000FC
1F8001F8
1FC003F0
0FF81FF0
07FFFFE0
03FFFFC0
00FFFF00
001FF800
ENDCHAR
STARTCHAR 0031
ENCODING 49
SWIDTH 546 0
DWIDTH 35 0
BBX 13 47 10 0
BITMAP
FFF8
FFF8
FFF8
FFF8
00F8
00F8
00F8
00F8
00F8
00F8
00F8
00F8
00F8
00F8
00F8
00F8
00F8
00F8
00F8
00F8
00F8
00F8
00F8
00F8
00F8
00F8
00F8
00F8
00F8
00F8
00F8
00F8
00F8
00F8
00F8
00F8
00F8
00F8
00F8
00F8
00F8
00F8
00F8
00F8
00F8
00F8
00F8
ENDCHAR
STARTCHAR 0032
ENCODING 50
SWIDTH 546 0
DWIDTH 35 0
BBX 30 48 2 0
BITMAP
001FE000
00FFFC00
01FFFF00
07FFFF80
0FF87FE0
1FC007E0
1F8003F0
3F0001F8
3E0000F8
7C00007C
7C00007C
7C00007C
7800003C
7800003C
7800003C
F800003C
0000007C
0000007C
0000007C
000000F8
000001F8
000001F0
000003F0
000007E0
00000FC0
00001F80
00003F00
00007E00
0000FC00
0001F800
0003F000
0007E000
000FC000
001F8000
003F0000
007E0000
00FC0000
01F80000
03F00000
0FE00000
1FC00000
3F800000
7F000000
FE000000
FFFFFFFC
FFFFFFFC
FFFFFFFC
FFFFFFFC
ENDCHAR
STARTCHAR 0033
ENCODING 51
SWIDTH 546 0
DWIDTH 35 0
BBX 30 49 2 -1
BITMAP
001FE000
007FF800
01FFFE00
03FFFF00
03F87F80
07E01F80
0FC00FC0
0F8007C0
0F8003E0
1F0003E0
1F0003E0
1F0003E0
1F0003E0
000003E0
000003E0
000007E0
000007C0
00000FC0
00003F80
000FFF00
000FFE00
000FFE00
000FFF80
0000FFC0
00000FE0
000007F0
000003F0
000001F8
000000F8
000000FC
0000007C
0000007C
0000007C
F800007C
F800007C
F800007C
F800007C
7800007C
7C00007C
7C0000F8
7E0001F8
3E0001F0
1F0003F0
1FC00FE0
0FF87FC0
07FFFF80
01FFFF00
00FFFC00
001FE000
ENDCHAR
STARTCHAR 0034
ENCODING 52
SWIDTH 546 0
DWIDTH 35 0
BBX 33 47 1 0
BITMAP
000003F000
000003F000
000007F000
00000FF000
00000FF000
00001FF000
00003FF000
00003EF000
00007CF000
0000FCF000
0000F8F000
0001F0F000
0003F0F000
0003E0F000
0007C0F000
000FC0F000
000F80F000
001F00F000
003F00F000
003E00F000
007C00F000
00FC00F000
00F800F000
01F000F000
03F000F000
03E000F000
07C000F000
0FC000F000
1F8000F000
1F0000F000
3F0000F000
7E0000F000
7C0000F000
FC0000F000
FFFFFFFF80
FFFFFFFF80
FFFFFFFF80
FFFFFFFF80
000000F000
000000F000
000000F000
000000F000
000000F000
000000F000
000000F000
000000F000
000000F000
ENDCHAR
STARTCHAR 0035
ENCODING 53
SWIDTH 546 0
DWIDTH 35 0
BBX 32 48 2 -1
BITMAP
03FFFFF0
03FFFFF0
03FFFFF0
03FFFFF0
03C00000
07C00000
07C00000
07C00000
07C00000
07800000
07800000
0F800000
0F800000
0F800000
0F000000
0F0FF000
1F7FFE00
1FFFFF00
1FFFFFC0
1FFC3FE0
1FE007F0
1F8003F8
3F0000F8
1E0000FC
0000007C
0000003E
0000003E
0000003E
0000001F
0000001F
0000001F
0000001F
F000001F
F000001F
F800001F
F800003E
7800003E
7C00003E
7C00007C
3E0000FC
3F0001F8
1F8003F8
0FE007F0
07FC3FE0
03FFFFC0
01FFFF00
007FFE00
000FF000
ENDCHAR
STARTCHAR 0036
ENCODING 54
SWIDTH 546 0
DWIDTH 35 0
BBX 32 48 2 -1
BITMAP
00007C00
0000F800
0001F800
0001F000
0003E000
0007E000
0007C000
000F8000
001F8000
003F0000
003E0000
007E0000
00FC0000
00F80000
01F80000
03F7F800
03FFFE00
07FFFF80
0FFFFFC0
0FFC3FE0
1FE007F0
1F8001F8
3F0000F8
7E00007C
7C00007C
7C00003E
F800003E
F800001E
F800001F
F000001F
F000001F
F000001F
F000001F
F800001F
F800001F
F800001E
F800003E
7C00003E
7C00007C
7E0000FC
3F0000F8
1F8003F8
1FE007F0
0FF83FE0
07FFFFC0
01FFFF80
007FFE00
000FF000
ENDCHAR
STARTCHAR 0037
ENCODING 55
SWIDTH 546 0
DWIDTH 35 0
BBX 27 47 4 0
BITMAP
FFFFFFE0
FFFFFFE0
FFFFFFE0
FFFFFFE0
000003E0
000003E0
000007C0
000007C0
00000780
00000F80
00000F80
00001F00
00001F00
00003E00
00003E00
00007C00
00007C00
0000F800
0000F800
0000F000
0001F000
0001F000
0003E000
0003E000
0007C000
0007C000
000F8000
000F8000
001F0000
001F0000
001E0000
003E0000
003E0000
007C0000
007C0000
00F80000
00F80000
01F00000
01F00000
03E00000
03E00000
03E00000
07C00000
07C00000
0F800000
0F800000
1F000000
ENDCHAR
STARTCHAR 0038
ENCODING 56
SWIDTH 546 0
DWIDTH 35 0
BBX 30 49 3 -1
BITMAP
001FE000
00FFF800
01FFFE00
03FFFF00
07F8FF80
0FC01F80
1F800FC0
1F0007C0
1F0003E0
3E0003E0
3E0003E0
3E0001E0
3E0003E0
3E0003E0
3E0003E0
1F0003E0
1F0007E0
1F800FC0
0FE01FC0
07FCFF80
03FFFF00
01FFFC00
03FFFE00
07FFFF80
1FE03FC0
1F800FE0
3F0003F0
7E0001F0
7C0001F8
F80000F8
F80000F8
F800007C
F800007C
F000007C
F000007C
F000007C
F800007C
F8000078
F80000F8
7C0000F8
7C0001F0
7E0003F0
3F0007E0
1FC00FE0
0FF87FC0
07FFFF80
03FFFF00
00FFFC00
001FE000
ENDCHAR
STARTCHAR 0039
ENCODING 57
SWIDTH 546 0
DWIDTH 35 0
BBX 32 48 2 0
BITMAP
001FF000
007FFE00
01FFFF00
07FFFFC0
0FF83FE0
1FC007F0
1F8003F8
3F0000F8
7E0000FC
7C00007C
7C00003E
F800003E
F800003E
F800001F
F000001F
F000001F
F000001F
F000001F
F000001F
F800001F
F800001E
F800003E
7C00003E
7C00007C
7E0000FC
3F0000F8
1F8003F8
1FC007F0
0FF83FF0
07FFFFE0
01FFFFC0
00FFFFC0
001FCF80
00001F00
00003F00
00003E00
00007C00
0000FC00
0000F800
0001F000
0003F000
0007E000
0007C000
000FC000
001F8000
001F0000
003F0000
007E0000
ENDCHAR
STARTCHAR 003A
ENCODING 58
SWIDTH 281 0
DWIDTH 18 0
BBX 5 32 6 0
BITMAP
F8
F8
F8
F8
F8
F8
F8
F8
00
00
00
00
00
00
00
00
00
00
00
00
00
00
00
00
F8
F8
F8
F8
F8
F8
F8
F8
ENDCHAR
STARTCHAR 003B
ENCODING 59
SWIDTH 281 0
DWIDTH 18 0
BBX 10 36 3 -4
BITMAP
07C0
07C0
07C0
07C0
07C0
07C0
07C0
07C0
0000
0000
0000
0000
0000
0000
0000
0000
0000
0000
0000
0000
0000
0000
0000
0000
07C0
0780
0F80
0F00
1F00
1E00
3E00
3C00
7C00
7C00
F800
F800
ENDCHAR
STARTCHAR 003C
ENCODING 60
SWIDTH 609 0
DWIDTH 39 0
BBX 24 44 7 -6
BITMAP
000001
000003
000007
00001F
00003F
00007F
0000FE
0001FC
0003F8
000FF0
001FE0
003F80
007F00
00FE00
03FC00
07F800
0FE000
1FC000
3F8000
FF0000
FE0000
F80000
F80000
FE0000
FF0000
3F8000
1FC000
0FE000
07F800
03FC00
00FE00
007F00
003F80
001FC0
000FF0
0003F8
0001FC
0000FE
00007F
00003F
00001F
000007
000003
000001
ENDCHAR
STARTCHAR 003D
ENCODING 61
SWIDTH 609 0
DWIDTH 39 0
BBX 31 16 4 8
BITMAP
FFFFFFFE
FFFFFFFE
FFFFFFFE
FFFFFFFE
FFFFFFFE
00000000
00000000
00000000
00000000
00000000
00000000
FFFFFFFE
FFFFFFFE
FFFFFFFE
FFFFFFFE
FFFFFFFE
ENDCHAR
STARTCHAR 003E
ENCODING 62
SWIDTH 609 0
DWIDTH 39 0
BBX 24 44 7 -6
BITMAP
800000
800000
E00000
F00000
F80000
FC0000
FE0000
7F8000
3FC000
0FE000
07F000
03F800
01FC00
00FF00
007F80
001FC0
000FE0
0007F0
0003FC
0001FE
00007F
00003F
00003F
00007F
0001FE
0003FC
0007F0
000FE0
001FC0
003F80
00FF00
01FC00
03F800
07F000
0FE000
3FC000
7F8000
FE0000
FC0000
F80000
F00000
E00000
800000
800000
ENDCHAR
STARTCHAR 003F
ENCODING 63
SWIDTH 593 0
DWIDTH 38 0
BBX 30 48 4 0
BITMAP
001FE000
00FFFC00
03FFFF00
07FFFF80
0FF87FC0
1FC00FE0
3F0003F0
3E0001F0
7C0001F8
7C0000F8
780000F8
F8000078
F800007C
F800007C
F800007C
F8000078
000000F8
000000F8
000001F8
000001F0
000003F0
000007E0
00000FC0
00001F80
00003F00
00007E00
0000FC00
0001F800
0001F000
0003E000
0003E000
0007C000
0007C000
0007C000
00078000
00078000
00000000
00000000
00000000
00000000
00078000
00078000
00078000
00078000
00078000
00078000
00078000
00078000
ENDCHAR
STARTCHAR 0040
ENCODING 64
SWIDTH 859 0
DWIDTH 55 0
BBX 46 49 5 -1
BITMAP
00001FF80000
0001FFFF0000
0007FFFFE000
001FF81FF000
003F8001FC00
00FE00007E00
01F800001F00
03E000000780
07C0000003C0
0780000001E0
0F0007F000E0
1E001FFC78F0
1E007FFE7870
3C00FF7EF078
3801F80FF038
7803F007F038
7007E007E03C
F007C007E01C
F00F8003E01C
E01F0007C01C
E01F0007C01C
E01E0007C01C
E03E0007801C
E03E0007803C
E03C000F803C
E07C000F0038
E07C001F0078
E07C001F0078
E07C001E0070
E07C003E00F0
F07C007E01E0
F07C007C01E0
707C00FC03C0
783E01FC0780
383F03FC0F80
3C1FFFFC3F00
1C0FFFBFFC00
1E07FE3FF800
0F01F80FE000
0F8000000000
07C000000300
03E0000007C0
01F000001F80
00FC00007F00
003F0001FC00
001FF01FF800
0007FFFFE000
0001FFFF8000
00001FF80000
ENDCHAR
STARTCHAR 0041
ENCODING 65
SWIDTH 734 0
DWIDTH 47 0
BBX 45 47 1 0
BITMAP
00000FC00000
00001FC00000
00001FC00000
00003FE00000
00003FE00000
00003FF00000
00007DF00000
00007CF80000
0000F8F80000
0000F8F80000
0001F07C0000
0001F07C0000
0001F03E0000
0003E03E0000
0003E03F0000
0007C01F0000
0007C01F0000
000F800F8000
000F800F8000
000F8007C000
001F0007C000
001F0007E000
003E0003E000
003E0003E000
007C0001F000
007C0001F000
007C0000F800
00FFFFFFF800
00FFFFFFFC00
01FFFFFFFC00
01FFFFFFFE00
03F000003E00
03E000003E00
03E000001F00
07C000001F00
07C000001F80
0F8000000F80
0F8000000FC0
1F00000007C0
1F00000007C0
1F00000003E0
3E00000003E0
3E00000003F0
7C00000001F0
7C00000001F8
F800000000F8
F800000000F8
ENDCHAR
STARTCHAR 0042
ENCODING 66
SWIDTH 578 0
DWIDTH 37 0
BBX 30 47 5 0
BITMAP
FFFF8000
FFFFF000
FFFFFC00
FFFFFF00
F801FF80
F8001F80
F8000FC0
F80007C0
F80003E0
F80003E0
F80003E0
F80003E0
F80003E0
F80003E0
F80003E0
F80003E0
F80007C0
F80007C0
F8001F80
F800FF80
FFFFFF00
FFFFFC00
FFFFFE00
FFFFFF80
F801FFC0
F8000FE0
F80003F0
F80001F8
F80000F8
F80000F8
F800007C
F800007C
F800007C
F800007C
F800007C
F800007C
F800007C
F80000F8
F80000F8
F80001F8
F80003F0
F8000FF0
F801FFE0
FFFFFFC0
FFFFFF00
FFFFFC00
FFFFE000
ENDCHAR
STARTCHAR 0043
ENCODING 67
SWIDTH 812 0
DWIDTH 52 0
BBX 46 49 3 -1
BITMAP
00001FFC0000
0001FFFF8000
0007FFFFF000
001FFFFFF800
003FFC1FFE00
00FFC000FF00
01FE00003F80
03FC00000FC0
07F0000007E0
07E0000003F0
0FC0000001F8
1F80000000F8
1F00000000FC
3F0000000000
3E0000000000
7E0000000000
7C0000000000
7C0000000000
F80000000000
F80000000000
F80000000000
F80000000000
F80000000000
F80000000000
F80000000000
F80000000000
F80000000000
F80000000000
F80000000000
F80000000000
FC0000000000
7C0000000000
7C0000000000
7E0000000000
3E0000000000
3F0000000000
1F80000000FC
1F80000001F8
0FC0000001F8
07E0000003F0
03F000000FE0
03FC00001FC0
01FF00003F80
007FC001FF00
003FFC1FFE00
001FFFFFFC00
0007FFFFF000
0000FFFFC000
00001FFC0000
ENDCHAR
STARTCHAR 0044
ENCODING 68
SWIDTH 750 0
DWIDTH 48 0
BBX 40 47 5 0
BITMAP
FFFFF00000
FFFFFF0000
FFFFFFE000
FFFFFFF800
F8007FFC00
F80003FF00
F800007F80
F800001FC0
F800000FE0
F8000007E0
F8000003F0
F8000001F8
F8000000F8
F8000000FC
F80000007C
F80000007E
F80000003E
F80000003E
F80000003E
F80000001E
F80000001F
F80000001F
F80000001F
F80000001F
F80000001F
F80000001F
F80000001F
F80000001F
F80000003E
F80000003E
F80000003E
F80000007E
F80000007C
F8000000FC
F8000000F8
F8000001F8
F8000003F0
F8000007F0
F800000FE0
F800001FC0
F800007F80
F80003FF00
F800FFFC00
FFFFFFF800
FFFFFFE000
FFFFFF0000
FFFFF00000
ENDCHAR
STARTCHAR 0045
ENCODING 69
SWIDTH 531 0
DWIDTH 34 0
BBX 26 47 5 0
BITMAP
FFFFFFC0
FFFFFFC0
FFFFFFC0
FFFFFFC0
F8000000
F8000000
F8000000
F8000000
F8000000
F8000000
F8000000
F8000000
F8000000
F8000000
F8000000
F8000000
F8000000
F8000000
F8000000
F8000000
F8000000
FFFFFF80
FFFFFF80
FFFFFF80
FFFFFF80
F8000000
F8000000
F8000000
F8000000
F8000000
F8000000
F8000000
F8000000
F8000000
F8000000
F8000000
F8000000
F8000000
F8000000
F8000000
F8000000
F8000000
F8000000
FFFFFFC0
FFFFFFC0
FFFFFFC0
FFFFFFC0
ENDCHAR
STARTCHAR 0046
ENCODING 70
SWIDTH 484 0
DWIDTH 31 0
BBX 24 47 5 0
BITMAP
FFFFFF
FFFFFF
FFFFFF
FFFFFF
F80000
F80000
F80000
F80000
F80000
F80000
F80000
F80000
F80000
F80000
F80000
F80000
F80000
F80000
F80000
F80000
F80000
FFFFFE
FFFFFE
FFFFFE
FFFFFE
F80000
F80000
F80000
F80000
F80000
F80000
F80000
F80000
F80000
F80000
F80000
F80000
F80000
F80000
F80000
F80000
F80000
F80000
F80000
F80000
F80000
F80000
ENDCHAR
STARTCHAR 0047
ENCODING 71
SWIDTH 875 0
DWIDTH 56 0
BBX 50 49 3 -1
BITMAP
00000FFC000000
0000FFFFC00000
0007FFFFF00000
000FFFFFFC0000
003FFE1FFF0000
007FC000FF8000
00FF00001FC000
01FC00000FF000
03F0000003F000
07E0000001F800
0FC0000000FC00
1F800000007C00
1F000000007E00
3F000000000000
3E000000000000
7E000000000000
7C000000000000
7C000000000000
F8000000000000
F8000000000000
F8000000000000
F8000000000000
F8000000000000
F8000000000000
F8000000000000
F8000000000000
F8003FFFFFFFC0
F8003FFFFFFFC0
F8003FFFFFFFC0
F8003FFFFFFFC0
7C000000000F80
7C000000000F80
7C000000000F80
3E000000001F00
3E000000001F00
1F000000003F00
1F800000007E00
0F800000007C00
0FC0000000FC00
07E0000001F800
03F8000003F000
01FC00000FE000
00FF00003FC000
007FC000FF8000
003FFE0FFF0000
000FFFFFFC0000
0003FFFFF80000
00007FFFC00000
00000FFE000000
ENDCHAR
STARTCHAR 0048
ENCODING 72
SWIDTH 687 0
DWIDTH 44 0
BBX 34 47 5 0
BITMAP
F8000007C0
F8000007C0
F8000007C0
F8000007C0
F8000007C0
F8000007C0
F8000007C0
F8000007C0
F8000007C0
F8000007C0
F8000007C0
F8000007C0
F8000007C0
F8000007C0
F8000007C0
F8000007C0
F8000007C0
F8000007C0
F8000007C0
F8000007C0
F8000007C0
FFFFFFFFC0
FFFFFFFFC0
FFFFFFFFC0
FFFFFFFFC0
F8000007C0
F8000007C0
F8000007C0
F8000007C0
F8000007C0
F8000007C0
F8000007C0
F8000007C0
F8000007C0
F8000007C0
F8000007C0
F8000007C0
F8000007C0
F8000007C0
F8000007C0
F8000007C0
F8000007C0
F8000007C0
F8000007C0
F8000007C0
F8000007C0
F8000007C0
ENDCHAR
STARTCHAR 0049
ENCODING 73
SWIDTH 218 0
DWIDTH 14 0
BBX 5 47 5 0
BITMAP
F8
F8
F8
F8
F8
F8
F8
F8
F8
F8
F8
F8
F8
F8
F8
F8
F8
F8
F8
F8
F8
F8
F8
F8
F8
F8
F8
F8
F8
F8
F8
F8
F8
F8
F8
F8
F8
F8
F8
F8
F8
F8
F8
F8
F8
F8
F8
ENDCHAR
STARTCHAR 004A
ENCODING 74
SWIDTH 484 0
DWIDTH 31 0
BBX 25 48 1 -1
BITMAP
00000F80
00000F80
00000F80
00000F80
00000F80
00000F80
00000F80
00000F80
00000F80
00000F80
00000F80
00000F80
00000F80
00000F80
00000F80
00000F80
00000F80
00000F80
00000F80
00000F80
00000F80
00000F80
00000F80
00000F80
00000F80
00000F80
00000F80
00000F80
00000F80
00000F80
00000F80
00000F80
00000F80
00000F80
00000F80
00000F80
F0000F80
F8000F80
F8001F00
F8001F00
7C003F00
7E003E00
7F00FE00
3FE3FC00
1FFFF800
0FFFF000
03FFE000
00FF0000
ENDCHAR
STARTCHAR 004B
ENCODING 75
SWIDTH 593 0
DWIDTH 38 0
BBX 32 47 5 0
BITMAP
F800003F
F800007E
F80000FC
F80000FC
F80001F8
F80003F0
F80007E0
F8000FC0
F8000FC0
F8001F80
F8003F00
F8007E00
F800FC00
F800F800
F801F800
F803F000
F807E000
F80FC000
F81F8000
F81F8000
F83F0000
F87E0000
F8FC0000
F9FC0000
F9FE0000
FBFF0000
FFFF8000
FFDF8000
FF8FC000
FF07E000
FF03F000
FE03F000
FC01F800
F800FC00
F8007E00
F8003F00
F8003F00
F8001F80
F8000FC0
F80007E0
F80007E0
F80003F0
F80001F8
F80000FC
F800007E
F800007E
F800003F
ENDCHAR
STARTCHAR 004C
ENCODING 76
SWIDTH 468 0
DWIDTH 30 0
BBX 24 47 5 0
BITMAP
F80000
F80000
F80000
F80000
F80000
F80000
F80000
F80000
F80000
F80000
F80000
F80000
F80000
F80000
F80000
F80000
F80000
F80000
F80000
F80000
F80000
F80000
F80000
F80000
F80000
F80000
F80000
F80000
F80000
F80000
F80000
F80000
F80000
F80000
F80000
F80000
F80000
F80000
F80000
F80000
F80000
F80000
F80000
FFFFFF
FFFFFF
FFFFFF
FFFFFF
ENDCHAR
STARTCHAR 004D
ENCODING 77
SWIDTH 921 0
DWIDTH 59 0
BBX 49 47 5 0
BITMAP
FE000000007F80
FF000000007F80
FF000000007F80
FF80000000FF80
FF80000000FF80
FFC0000001FF80
FFC0000001FF80
FBC0000003EF80
FBE0000003EF80
FBE0000003CF80
F9F0000007CF80
F9F0000007CF80
F8F800000F8F80
F8F800000F8F80
F87800001F0F80
F87C00001F0F80
F87C00001E0F80
F83E00003E0F80
F83E00003E0F80
F81F00007C0F80
F81F00007C0F80
F81F0000F80F80
F80F8000F80F80
F80F8000F00F80
F807C001F00F80
F807C001F00F80
F803E003E00F80
F803E003E00F80
F803E007C00F80
F801F007C00F80
F801F007800F80
F800F80F800F80
F800F80F800F80
F8007C1F000F80
F8007C1F000F80
F8007E3E000F80
F8003E3E000F80
F8003E3C000F80
F8001F7C000F80
F8001F7C000F80
F8000FF8000F80
F8000FF8000F80
F8000FF0000F80
F80007F0000F80
F80007E0000F80
F80003E0000F80
F80003E0000F80
ENDCHAR
STARTCHAR 004E
ENCODING 78
SWIDTH 734 0
DWIDTH 47 0
BBX 37 47 5 0
BITMAP
FE00000078
FE00000078
FF00000078
FF80000078
FF80000078
FFC0000078
FFE0000078
FBE0000078
F9F0000078
F9F8000078
F8F8000078
F87C000078
F87E000078
F83E000078
F81F000078
F81F800078
F80F800078
F807C00078
F807E00078
F803F00078
F801F00078
F801F80078
F800FC0078
F8007C0078
F8007E0078
F8003F0078
F8001F0078
F8001F8078
F8000FC078
F80007C078
F80007E078
F80003F078
F80001F078
F80000F878
F80000FC78
F800007C78
F800003E78
F800003F78
F800001F78
F800000FF8
F800000FF8
F8000007F8
F8000003F8
F8000003F8
F8000001F8
F8000000F8
F8000000F8
ENDCHAR
STARTCHAR 004F
ENCODING 79
SWIDTH 875 0
DWIDTH 56 0
BBX 50 49 3 -1
BITMAP
00000FFC000000
0000FFFF800000
0003FFFFF00000
000FFFFFFC0000
003FFE1FFE0000
007FC001FF0000
00FF00003FC000
01FC00000FE000
03F8000007F000
07E0000003F000
0FC0000001F800
0FC0000000FC00
1F800000007E00
3F000000003E00
3E000000003F00
3E000000001F00
7C000000001F00
7C000000000F80
FC000000000F80
F8000000000F80
F8000000000780
F80000000007C0
F80000000007C0
F80000000007C0
F80000000007C0
F80000000007C0
F80000000007C0
F80000000007C0
F8000000000780
F8000000000F80
7C000000000F80
7C000000000F80
7C000000001F00
3E000000001F00
3E000000003F00
1F000000003E00
1F800000007E00
0F80000000FC00
0FC0000001F800
07E0000003F800
03F8000007F000
01FC00001FE000
00FF00003FC000
007FC001FF8000
003FFC1FFE0000
000FFFFFFC0000
0003FFFFF00000
0000FFFF800000
00000FFC000000
ENDCHAR
STARTCHAR 0050
ENCODING 80
SWIDTH 593 0
DWIDTH 38 0
BBX 31 47 5 0
BITMAP
FFFFF000
FFFFFE00
FFFFFFC0
FFFFFFE0
F8007FF0
F80003F8
F80001FC
F80000FC
F800007C
F800003E
F800003E
F800003E
F800003E
F800003E
F800003E
F800003E
F800003E
F800003E
F800003E
F800007C
F80000FC
F80001FC
F80003F8
F8007FF0
FFFFFFE0
FFFFFFC0
FFFFFF00
FFFFF000
F8000000
F8000000
F8000000
F8000000
F8000000
F8000000
F8000000
F8000000
F8000000
F8000000
F8000000
F8000000
F8000000
F8000000
F8000000
F8000000
F8000000
F8000000
F8000000
ENDCHAR
STARTCHAR 0051
ENCODING 81
SWIDTH 875 0
DWIDTH 56 0
BBX 51 49 3 -1
BITMAP
00000FFE000000
0000FFFFC00000
0003FFFFF80000
000FFFFFFE0000
003FFE0FFF0000
007FC000FFC000
00FF00001FE000
01FC00000FF000
03F8000003F800
07E0000001FC00
0FC0000000FC00
1F800000007E00
1F800000003F00
3F000000001F00
3E000000001F80
7E000000000F80
7C000000000F80
7C0000000007C0
FC0000000007C0
F80000000007C0
F80000000003C0
F80000000003C0
F80000000003E0
F80000000003E0
F80000000003E0
F80000000003E0
F80000000003E0
F80000000003E0
F80000000007C0
F8FFFE000007C0
7FFFFFC00007C0
7FFFFFF00007C0
7FFFFFFC000F80
3FC007FF000F80
3E0000FFC01F80
3F00001FE03F00
1F800007F03F00
0F800003FC7E00
0FC00000FEFC00
07F000007FFC00
03F800003FF800
01FC00001FF000
00FF00003FE000
007FC000FFF800
001FFE0FFFFE00
000FFFFFFEFFC0
0003FFFFF87FC0
0000FFFFC01FC0
00000FFE0003C0
ENDCHAR
STARTCHAR 0052
ENCODING 82
SWIDTH 609 0
DWIDTH 39 0
BBX 32 47 5 0
BITMAP
FFFFE000
FFFFFE00
FFFFFF80
FFFFFFE0
F801FFF0
F80007F8
F80001FC
F80000FC
F800007E
F800003E
F800003E
F800001F
F800001F
F800001F
F800001F
F800001F
F800001F
F800001F
F800001F
F800003E
F800003E
F800007E
F800007C
F80001FC
F80007F8
F801FFF0
F83FFFE0
F81FFF80
F81FFE00
F80FC000
F807E000
F803F000
F803F000
F801F800
F800FC00
F8007E00
F8007E00
F8003F00
F8001F80
F8000FC0
F8000FC0
F80007E0
F80003F0
F80001F8
F80001F8
F80000FC
F800007E
ENDCHAR
STARTCHAR 0053
ENCODING 83
SWIDTH 500 0
DWIDTH 32 0
BBX 29 49 1 -1
BITMAP
001FE000
007FFC00
01FFFE00
03FFFF80
07F87F80
0FE01FC0
1F8007E0
1F0003E0
1F0003F0
3E0001F0
3E0001F0
3E0001F0
3E0001F0
3E000000
3E000000
3E000000
3F000000
1F000000
1F800000
0FE00000
07FC0000
03FF8000
01FFF000
007FFC00
001FFF00
0001FF80
00007FC0
00000FE0
000007F0
000001F0
000001F8
000000F8
000000F8
00000078
00000078
FC000078
7C000078
7C0000F8
7C0000F8
7E0000F8
3E0001F0
3F0003F0
1F8007E0
1FC00FE0
0FF87FC0
07FFFF80
03FFFF00
00FFFC00
001FE000
ENDCHAR
STARTCHAR 0054
ENCODING 84
SWIDTH 421 0
DWIDTH 27 0
BBX 27 47 0 0
BITMAP
FFFFFFE0
FFFFFFE0
FFFFFFE0
FFFFFFE0
001F0000
001F0000
001F0000
001F0000
001F0000
001F0000
001F0000
001F0000
001F0000
001F0000
001F0000
001F0000
001F0000
001F0000
001F0000
001F0000
001F0000
001F0000
001F0000
001F0000
001F0000
001F0000
001F0000
001F0000
001F0000
001F0000
001F0000
001F0000
001F0000
001F0000
001F0000
001F0000
001F0000
001F0000
001F0000
001F0000
001F0000
001F0000
001F0000
001F0000
001F0000
001F0000
001F0000
ENDCHAR
STARTCHAR 0055
ENCODING 85
SWIDTH 656 0
DWIDTH 42 0
BBX 32 48 5 -1
BITMAP
F800001F
F800001F
F800001F
F800001F
F800001F
F800001F
F800001F
F800001F
F800001F
F800001F
F800001F
F800001F
F800001F
F800001F
F800001F
F800001F
F800001F
F800001F
F800001F
F800001F
F800001F
F800001F
F800001F
F800001F
F800001F
F800001F
F800001F
F800001F
F800001F
F800001F
F800001F
F800001F
F800001F
F800001F
F800001F
F800001E
7C00003E
7C00003E
7C00007E
3E00007C
3F0000FC
1F8001F8
1FC007F0
0FFC3FF0
07FFFFE0
01FFFF80
00FFFF00
001FF800
ENDCHAR
STARTCHAR 0056
ENCODING 86
SWIDTH 703 0
DWIDTH 45 0
BBX 43 47 1 0
BITMAP
F800000003E0
F800000003E0
7C00000007C0
7C00000007C0
7E0000000F80
3E0000000F80
3E0000000F80
1F0000001F00
1F0000001F00
0F8000003E00
0F8000003E00
0F8000007C00
07C000007C00
07C000007C00
03E00000F800
03E00000F800
03E00001F000
01F00001F000
01F00001F000
00F80003E000
00F80003E000
007C0007C000
007C0007C000
007C00078000
003E000F8000
003E000F8000
001F001F0000
001F001F0000
001F001E0000
000F803E0000
000F803E0000
0007C07C0000
0007C07C0000
0007C0780000
0003E0F80000
0003E0F00000
0001F1F00000
0001F1F00000
0000F1E00000
0000FBE00000
0000FBC00000
00007FC00000
00007FC00000
00003F800000
00003F800000
00003F000000
00001F000000
ENDCHAR
STARTCHAR 0057
ENCODING 87
SWIDTH 953 0
DWIDTH 61 0
BBX 60 47 1 0
BITMAP
F800001F000001F0
F800001F000003E0
F800001F800003E0
7C00003F800003E0
7C00003F800003C0
7C00003F800007C0
7C00003FC00007C0
3E00007FC00007C0
3E00007FC0000F80
3E00007BE0000F80
1F00007BE0000F80
1F0000FBE0000F00
1F0000F9E0001F00
1F0000F1F0001F00
0F8001F1F0001F00
0F8001F0F0001E00
0F8001E0F8003E00
078001E0F8003E00
07C003E0F8003C00
07C003E078007C00
03C003C07C007C00
03E003C07C007C00
03E007C07C007800
03E007C03C00F800
01E007803E00F800
01F00F803E00F000
01F00F801E01F000
00F00F801F01F000
00F80F001F01F000
00F81F001F01E000
00F81F000F03E000
00781E000F83E000
007C3E000F83C000
007C3E000F87C000
003C3E0007C7C000
003E3C0007C7C000
003E7C0007C78000
003E7C0003CF8000
001E7C0003EF8000
001F780003EF0000
001FF80003FF0000
000FF80001FF0000
000FF00001FF0000
000FF00001FE0000
000FF00001FE0000
0007F00000FE0000
0007E00000FC0000
ENDCHAR
STARTCHAR 0058
ENCODING 88
SWIDTH 609 0
DWIDTH 39 0
BBX 37 47 1 0
BITMAP
7C000001F0
7E000003F0
3F000007E0
1F000007C0
1F80000FC0
0FC0001F80
07C0001F00
07E0003F00
03F0007E00
01F0007C00
01F800FC00
00FC01F800
007C01F000
007E03F000
003F07E000
001F07C000
001F8FC000
000FDF8000
0007DF0000
0007FF0000
0003FE0000
0001FC0000
0001FC0000
0001FC0000
0001FC0000
0003FE0000
0007FF0000
0007DF0000
000F8F8000
001F8FC000
001F07C000
003E03E000
007E03F000
007C01F000
00F800F800
01F800FC00
01F0007C00
03E0003E00
07E0003F00
07C0001F00
0F80000F80
1F80000FC0
3F000007C0
3E000003E0
7E000003F0
FC000001F0
F8000000F8
ENDCHAR
STARTCHAR 0059
ENCODING 89
SWIDTH 593 0
DWIDTH 38 0
BBX 37 47 0 0
BITMAP
FC000000F8
7C000000F8
7E000001F0
3E000001F0
3F000003E0
1F000003E0
0F800007C0
0F800007C0
07C0000F80
07C0000F80
03E0001F00
03E0001F00
01F0003E00
01F0003E00
00F8007C00
00F800FC00
007C00F800
007C01F800
003E01F000
003E03E000
001F03E000
001F07C000
000F87C000
000F8F8000
0007CF8000
0007DF0000
0003FF0000
0003FE0000
0001FE0000
0000FC0000
0000FC0000
0000F80000
0000F80000
0000F80000
0000F80000
0000F80000
0000F80000
0000F80000
0000F80000
0000F80000
0000F80000
0000F80000
0000F80000
0000F80000
0000F80000
0000F80000
0000F80000
ENDCHAR
STARTCHAR 005A
ENCODING 90
SWIDTH 484 0
DWIDTH 31 0
BBX 29 47 1 0
BITMAP
7FFFFFF8
7FFFFFF8
7FFFFFF8
7FFFFFF8
000001F8
000001F0
000003E0
000007E0
000007C0
00000F80
00000F80
00001F00
00003F00
00003E00
00007C00
00007C00
0000F800
0001F800
0001F000
0003E000
0003E000
0007C000
000FC000
000F8000
001F0000
003F0000
003E0000
007E0000
007C0000
00F80000
01F80000
01F00000
03F00000
03E00000
07C00000
0FC00000
0F800000
1F800000
1F000000
3E000000
7E000000
7C000000
FC000000
FFFFFFF8
FFFFFFF8
FFFFFFF8
FFFFFFF8
ENDCHAR
STARTCHAR 005B
ENCODING 91
SWIDTH 343 0
DWIDTH 22 0
BBX 13 55 7 -8
BITMAP
0018
0078
01F8
03F8
07F8
0FF0
1FC0
1F80
3E00
3E00
7C00
7C00
7800
F800
F800
F800
F800
F800
F800
F800
F800
F800
F800
F800
F800
F800
F800
F800
F800
F800
F800
F800
F800
F800
F800
F800
F800
F800
F800
F800
F800
7800
7800
7C00
7C00
3E00
3E00
1F00
1FC0
0FF0
07F8
03F8
01F8
0078
0008
ENDCHAR
STARTCHAR 005C
ENCODING 92
SWIDTH 609 0
DWIDTH 39 0
BBX 23 47 6 0
BITMAP
F00000
F00000
F80000
780000
7C0000
3C0000
3E0000
1E0000
1E0000
1F0000
0F0000
0F8000
078000
07C000
07C000
03C000
03E000
01E000
01F000
00F000
00F800
00F800
007800
007C00
003C00
003E00
001E00
001E00
001F00
000F00
000F80
000780
0007C0
0007C0
0003C0
0003E0
0001E0
0001F0
0000F0
0000F8
0000F8
000078
00007C
00003C
00003E
00001E
00001E
ENDCHAR
STARTCHAR 005D
ENCODING 93
SWIDTH 343 0
DWIDTH 22 0
BBX 13 55 2 -8
BITMAP
C000
F000
FC00
FE00
FF00
3F80
0FC0
07E0
03E0
01F0
01F0
00F0
00F8
00F8
00F8
0078
0078
0078
0078
0078
0078
0078
0078
0078
0078
0078
0078
0078
0078
0078
0078
0078
0078
0078
0078
0078
0078
0078
0078
0078
0078
00F8
00F8
00F0
01F0
01F0
03E0
07E0
0FC0
3F80
FF00
FE00
FC00
F000
C000
ENDCHAR
STARTCHAR 005E
ENCODING 94
SWIDTH 609 0
DWIDTH 39 0
BBX 36 36 1 11
BITMAP
0001F80000
0001FC0000
0001FC0000
0003FE0000
0003FE0000
0007DF0000
0007DF0000
000F9F0000
000F8F8000
000F8F8000
001F07C000
001F07C000
003E03E000
003E03E000
007C03E000
007C01F000
007C01F000
00F800F800
00F800F800
01F000FC00
01F0007C00
03E0007C00
03E0003E00
03E0003E00
07C0001F00
07C0001F00
0F80001F80
0F80000F80
1F80000F80
1F000007C0
1F000007C0
3E000003E0
3E000003E0
7C000003F0
7C000001F0
FC000001F0
ENDCHAR
STARTCHAR 005F
ENCODING 95
SWIDTH 500 0
DWIDTH 32 0
BBX 32 4 0 -8
BITMAP
FFFFFFFF
FFFFFFFF
FFFFFFFF
FFFFFFFF
ENDCHAR
STARTCHAR 0060
ENCODING 96
SWIDTH 375 0
DWIDTH 24 0
BBX 15 11 2 38
BITMAP
2000
3800
7E00
FF00
3FC0
1FF0
07F8
01FE
00FC
003C
0008
ENDCHAR
STARTCHAR 0061
ENCODING 97
SWIDTH 687 0
DWIDTH 44 0
BBX 37 37 3 -1
BITMAP
0003FE0000
001FFF80F8
007FFFE0F8
01FFFFF8F8
03FF0FFCF8
07F800FEF8
0FE0003EF8
1FC0001FF8
3F00000FF8
3F000007F8
7E000003F8
7C000003F8
7C000001F8
F8000001F8
F8000001F8
F8000000F8
F8000000F8
F0000000F8
F0000000F8
F8000000F8
F8000000F8
F8000000F8
F8000001F8
F8000001F8
7C000001F8
7C000003F8
7E000007F8
3F000007F8
3F80000FF8
1FC0001FF8
0FE0007FF8
07F801FEF8
03FFFFFCF8
01FFFFF8F8
007FFFF0F8
001FFFC0F8
0003FE0000
ENDCHAR
STARTCHAR 0062
ENCODING 98
SWIDTH 687 0
DWIDTH 44 0
BBX 37 48 4 -1
BITMAP
F800000000
F800000000
F800000000
F800000000
F800000000
F800000000
F800000000
F800000000
F800000000
F800000000
F800000000
F803FE0000
F81FFFC000
F87FFFF000
F8FFFFF800
F9FF87FE00
FBF800FF00
FFE0003F80
FFC0001F80
FF00000FC0
FF000007E0
FE000003E0
FC000003F0
FC000001F0
F8000001F0
F8000000F8
F8000000F8
F8000000F8
F0000000F8
F0000000F8
F0000000F8
F8000000F8
F8000000F8
F8000000F8
F8000001F0
FC000001F0
FC000003F0
FE000003E0
FF000007E0
FF80000FC0
FFC0001FC0
FFE0003F80
FBF800FF00
F9FF0FFE00
F8FFFFFC00
F87FFFF000
F81FFFC000
0003FE0000
ENDCHAR
STARTCHAR 0063
ENCODING 99
SWIDTH 640 0
DWIDTH 41 0
BBX 36 37 3 -1
BITMAP
0003FE0000
001FFFC000
007FFFF000
01FFFFFC00
03FF87FE00
07F800FF00
0FE0003F80
1FC0001FC0
3F00000FC0
3F000007E0
7E000003E0
7C000003F0
7C00000000
F800000000
F800000000
F800000000
F800000000
F800000000
F000000000
F000000000
F800000000
F800000000
F800000000
F800000000
7C00000000
7C00000000
7E000003F0
3F000007E0
1F80000FC0
1FC0001FC0
0FE0003F80
07F800FF00
03FF07FE00
01FFFFFC00
007FFFF000
001FFFC000
0003FE0000
ENDCHAR
STARTCHAR 0064
ENCODING 100
SWIDTH 687 0
DWIDTH 44 0
BBX 37 48 3 -1
BITMAP
00000000F8
00000000F8
00000000F8
00000000F8
00000000F8
00000000F8
00000000F8
00000000F8
00000000F8
00000000F8
00000000F8
0003FE00F8
001FFFC0F8
007FFFE0F8
01FFFFF8F8
03FF0FFCF8
07F800FEF8
0FE0003FF8
1F80001FF8
3F00000FF8
3F000007F8
7E000003F8
7C000003F8
7C000001F8
F8000001F8
F8000000F8
F8000000F8
F8000000F8
F8000000F8
F0000000F8
F8000000F8
F8000000F8
F8000000F8
F8000000F8
F8000001F8
7C000001F8
7C000003F8
7E000003F8
3F000007F8
3F80000FF8
1FC0001FF8
0FE0007FF8
07F801FEF8
03FFFFFCF8
01FFFFF8F8
007FFFF0F8
001FFFC0F8
0003FE0000
ENDCHAR
STARTCHAR 0065
ENCODING 101
SWIDTH 656 0
DWIDTH 42 0
BBX 36 37 3 -1
BITMAP
0007FC0000
003FFF8000
00FFFFE000
01FFFFF800
03FF1FFC00
07F001FE00
0FE0007F00
1F80001F80
3F00000F80
3E000007C0
7E000007C0
7C000003E0
7C000003E0
F8000001E0
F8000001F0
F8000001F0
FFFFFFFFF0
FFFFFFFFF0
FFFFFFFFF0
FFFFFFFFF0
F000000000
F800000000
F800000000
F800000000
78000003E0
7C000003E0
7E000007C0
3E00000FC0
1F00000F80
1F80001F80
0FE0007F00
07F801FE00
03FF0FFC00
01FFFFF800
007FFFE000
001FFF8000
0003FC0000
ENDCHAR
STARTCHAR 0066
ENCODING 102
SWIDTH 312 0
DWIDTH 20 0
BBX 19 47 1 0
BITMAP
0003E0
001FE0
007FE0
00FFE0
01FF00
01F800
03F000
03E000
03E000
03C000
07C000
07C000
FFFFE0
FFFFE0
FFFFE0
FFFFE0
07C000
07C000
07C000
07C000
07C000
07C000
07C000
07C000
07C000
07C000
07C000
07C000
07C000
07C000
07C000
07C000
07C000
07C000
07C000
07C000
07C000
07C000
07C000
07C000
07C000
07C000
07C000
07C000
07C000
07C000
07C000
ENDCHAR
STARTCHAR 0067
ENCODING 103
SWIDTH 671 0
DWIDTH 43 0
BBX 36 50 3 -14
BITMAP
0007FC0000
003FFF81F0
00FFFFE1F0
01FFFFF1F0
03FF0FF9F0
07F001FDF0
0FC0007FF0
1F80001FF0
3F00000FF0
3E00000FF0
7E000007F0
7C000003F0
7C000003F0
F8000001F0
F8000001F0
F8000001F0
F8000001F0
F8000001F0
F0000001F0
F8000001F0
F8000001F0
F8000001F0
F8000001F0
F8000003F0
7C000003F0
7C000007F0
7E000007F0
3E00000FF0
3F00001FF0
1F80003FF0
0FE0007DF0
07F001FDF0
03FF0FF9F0
01FFFFF1F0
007FFFE1F0
001FFF81F0
0003FC01F0
7C000003E0
7C000003E0
3E000003E0
3F000007E0
1F00000FC0
1F80001FC0
0FE0003F80
07F000FF00
03FF07FE00
01FFFFFC00
007FFFF000
001FFFE000
0007FE0000
ENDCHAR
STARTCHAR 0068
ENCODING 104
SWIDTH 609 0
DWIDTH 39 0
BBX 31 47 4 0
BITMAP
F8000000
F8000000
F8000000
F8000000
F8000000
F8000000
F8000000
F8000000
F8000000
F8000000
F8000000
F80FF000
F87FFE00
F9FFFF80
FBFFFFC0
FFFC3FE0
FFC007F0
FF8003F8
FF0001F8
FE0000FC
FC00007C
FC00007C
F800007C
F800003E
F800003E
F800003E
F800003E
F800003E
F800003E
F800003E
F800003E
F800003E
F800003E
F800003E
F800003E
F800003E
F800003E
F800003E
F800003E
F800003E
F800003E
F800003E
F800003E
F800003E
F800003E
F800003E
F800003E
ENDCHAR
STARTCHAR 0069
ENCODING 105
SWIDTH 203 0
DWIDTH 13 0
BBX 5 47 4 0
BITMAP
F8
F8
F8
F8
F8
F8
F8
F8
00
00
00
00
F8
F8
F8
F8
F8
F8
F8
F8
F8
F8
F8
F8
F8
F8
F8
F8
F8
F8
F8
F8
F8
F8
F8
F8
F8
F8
F8
F8
F8
F8
F8
F8
F8
F8
F8
ENDCHAR
STARTCHAR 006A
ENCODING 106
SWIDTH 203 0
DWIDTH 13 0
BBX 12 59 -3 -12
BITMAP
01F0
01F0
01F0
01F0
01F0
01F0
01F0
01F0
0000
0000
0000
0000
01F0
01F0
01F0
01F0
01F0
01F0
01F0
01F0
01F0
01F0
01F0
01F0
01F0
01F0
01F0
01F0
01F0
01F0
01F0
01F0
01F0
01F0
01F0
01F0
01F0
01F0
01F0
01F0
01F0
01F0
01F0
01F0
01F0
01F0
01F0
01F0
01F0
01F0
03E0
03E0
07E0
0FC0
3FC0
FF80
FF00
FE00
F800
ENDCHAR
STARTCHAR 006B
ENCODING 107
SWIDTH 500 0
DWIDTH 32 0
BBX 27 47 4 0
BITMAP
F8000000
F8000000
F8000000
F8000000
F8000000
F8000000
F8000000
F8000000
F8000000
F8000000
F8000000
F8000000
F80007E0
F8000FC0
F8001F80
F8003F00
F8003E00
F8007E00
F800FC00
F801F800
F801F000
F803F000
F807E000
F80FC000
F81F8000
F81F0000
F83F0000
F87E0000
F8FC0000
F8F80000
F9FC0000
FBFE0000
FFFF0000
FFDF8000
FF9F8000
FF0FC000
FE07E000
FE03F000
FC01F800
F800FC00
F800FC00
F8007E00
F8003F00
F8001F80
F8000FC0
F80007E0
F80007E0
ENDCHAR
STARTCHAR 006C
ENCODING 108
SWIDTH 203 0
DWIDTH 13 0
BBX 5 47 4 0
BITMAP
F8
F8
F8
F8
F8
F8
F8
F8
F8
F8
F8
F8
F8
F8
F8
F8
F8
F8
F8
F8
F8
F8
F8
F8
F8
F8
F8
F8
F8
F8
F8
F8
F8
F8
F8
F8
F8
F8
F8
F8
F8
F8
F8
F8
F8
F8
F8
ENDCHAR
STARTCHAR 006D
ENCODING 109
SWIDTH 937 0
DWIDTH 60 0
BBX 52 36 4 0
BITMAP
001FC0003FC000
F8FFF801FFF800
F9FFFC03FFFE00
FBFFFF07FFFF00
FFFFFF0FFBFF80
FFC01F9F801F80
FF000FFF000FC0
FE0007FE0007E0
FE0003FC0003E0
FC0003FC0003E0
FC0001F80001E0
F80001F80001F0
F80001F80001F0
F80000F00001F0
F80000F00001F0
F80000F00001F0
F80000F00001F0
F80000F00001F0
F80000F00001F0
F80000F00001F0
F80000F00001F0
F80000F00001F0
F80000F00001F0
F80000F00001F0
F80000F00001F0
F80000F00001F0
F80000F00001F0
F80000F00001F0
F80000F00001F0
F80000F00001F0
F80000F00001F0
F80000F00001F0
F80000F00001F0
F80000F00001F0
F80000F00001F0
F80000F00001F0
ENDCHAR
STARTCHAR 006E
ENCODING 110
SWIDTH 609 0
DWIDTH 39 0
BBX 31 36 4 0
BITMAP
000FF000
F87FFE00
F8FFFF80
F9FFFFC0
FFFFFFE0
FFE007F0
FF8003F8
FF0001F8
FE0000F8
FC00007C
FC00007C
F800007C
F800003E
F800003E
F800003E
F800003E
F800003E
F800003E
F800003E
F800003E
F800003E
F800003E
F800003E
F800003E
F800003E
F800003E
F800003E
F800003E
F800003E
F800003E
F800003E
F800003E
F800003E
F800003E
F800003E
F800003E
ENDCHAR
STARTCHAR 006F
ENCODING 111
SWIDTH 656 0
DWIDTH 42 0
BBX 36 37 3 -1
BITMAP
0007FC0000
003FFFC000
00FFFFE000
01FFFFF800
03FF0FFC00
07F800FE00
0FE0007F00
1F80001F80
3F00000FC0
3E000007C0
7E000007E0
7C000003E0
7C000003E0
F8000001F0
F8000001F0
F8000001F0
F8000001F0
F8000001F0
F0000001F0
F0000001F0
F8000001F0
F8000001F0
F8000001F0
F8000001F0
7C000003E0
7C000003E0
7E000007E0
3E000007C0
3F00000FC0
1F80001F80
0FE0003F00
07F800FE00
03FF0FFC00
01FFFFF800
007FFFF000
001FFFC000
0003FE0000
ENDCHAR
STARTCHAR 0070
ENCODING 112
SWIDTH 687 0
DWIDTH 44 0
BBX 37 48 4 -12
BITMAP
0003FE0000
F81FFFC000
F87FFFF000
F8FFFFF800
F9FFFFFE00
FBF800FF00
FFE0007F80
FFC0001F80
FF80000FC0
FF000007E0
FE000003E0
FC000003F0
FC000001F0
F8000001F0
F8000000F8
F8000000F8
F8000000F8
F0000000F8
F0000000F8
F0000000F8
F8000000F8
F8000000F8
F8000000F8
F8000001F0
FC000001F0
FC000003F0
FE000003E0
FF000007E0
FF00000FC0
FFC0001FC0
FFE0003F80
FBF800FF00
F9FF0FFE00
F8FFFFF800
F87FFFF000
F81FFFC000
F803FE0000
F800000000
F800000000
F800000000
F800000000
F800000000
F800000000
F800000000
F800000000
F800000000
F800000000
F800000000
ENDCHAR
STARTCHAR 0071
ENCODING 113
SWIDTH 687 0
DWIDTH 44 0
BBX 37 48 3 -12
BITMAP
0003FE0000
001FFFC0F8
007FFFE0F8
01FFFFF8F8
03FF0FFCF8
07F800FEF8
0FE0003FF8
1F80001FF8
3F00000FF8
3F000007F8
7E000003F8
7C000003F8
7C000001F8
F8000001F8
F8000000F8
F8000000F8
F8000000F8
F8000000F8
F0000000F8
F0000000F8
F8000000F8
F8000000F8
F8000000F8
F8000001F8
7C000001F8
7C000003F8
7E000003F8
3E000007F8
3F00000FF8
1F80001FF8
0FE0003FF8
07F800FEF8
03FF0FFCF8
01FFFFF8F8
007FFFE0F8
001FFFC0F8
0003FE00F8
00000000F8
00000000F8
00000000F8
00000000F8
00000000F8
00000000F8
00000000F8
00000000F8
00000000F8
00000000F8
00000000F8
ENDCHAR
STARTCHAR 0072
ENCODING 114
SWIDTH 296 0
DWIDTH 19 0
BBX 15 36 4 0
BITMAP
001E
F87E
F9FE
FBFE
FFFE
FFE0
FF80
FF00
FE00
FC00
FC00
F800
F800
F800
F800
F800
F800
F800
F800
F800
F800
F800
F800
F800
F800
F800
F800
F800
F800
F800
F800
F800
F800
F800
F800
F800
ENDCHAR
STARTCHAR 0073
ENCODING 115
SWIDTH 390 0
DWIDTH 25 0
BBX 22 37 1 -1
BITMAP
00FE00
03FF80
07FFC0
0FFFE0
1FC7F0
3F01F0
3E00F8
3E00F8
7C00F8
7C0000
7C0000
3E0000
3E0000
3F0000
1FC000
1FF800
0FFE00
03FF80
00FFE0
003FF0
0007F8
0003F8
0000FC
00007C
00007C
00007C
F8007C
F8007C
F8007C
7C007C
7C00F8
7E01F8
3FC7F0
1FFFF0
0FFFE0
07FF80
00FE00
ENDCHAR
STARTCHAR 0074
ENCODING 116
SWIDTH 343 0
DWIDTH 22 0
BBX 20 47 1 0
BITMAP
01F000
01F000
01F000
01F000
01F000
01F000
01F000
01F000
01F000
01F000
01F000
01F000
FFFFF0
FFFFF0
FFFFF0
FFFFF0
01F000
01F000
01F000
01F000
01F000
01F000
01F000
01F000
01F000
01F000
01F000
01F000
01F000
01F000
01F000
01F000
01F000
01F000
01F000
01F000
01F000
01F000
01F000
01F000
01F000
01F000
01F000
01F000
01F000
01F000
01F000
ENDCHAR
STARTCHAR 0075
ENCODING 117
SWIDTH 609 0
DWIDTH 39 0
BBX 31 36 4 -1
BITMAP
F800003E
F800003E
F800003E
F800003E
F800003E
F800003E
F800003E
F800003E
F800003E
F800003E
F800003E
F800003E
F800003E
F800003E
F800003E
F800003E
F800003E
F800003E
F800003E
F800003E
F800003E
F800003E
F800003E
F800007E
7800007E
7C00007E
7C0000FE
7E0000FE
3E0001FE
3F8003FE
1FC00FFE
0FFFFFBE
07FFFF3E
03FFFE3E
01FFFC3E
003FE000
ENDCHAR
STARTCHAR 0076
ENCODING 118
SWIDTH 546 0
DWIDTH 35 0
BBX 34 35 1 0
BITMAP
F8000007C0
F800000F80
7800000F80
7C00000F00
7C00001F00
3E00001F00
3E00003E00
1E00003E00
1F00003C00
1F00007C00
0F80007C00
0F8000F800
07C000F800
07C001F000
03C001F000
03E001E000
03E003E000
01F003E000
01F007C000
00F007C000
00F80F8000
00780F8000
007C0F0000
007C1F0000
003E1F0000
003E3E0000
001E3E0000
001F7C0000
001F7C0000
000FFC0000
000FF80000
0007F80000
0007F00000
0003F00000
0003E00000
ENDCHAR
STARTCHAR 0077
ENCODING 119
SWIDTH 828 0
DWIDTH 53 0
BBX 52 35 1 0
BITMAP
F00000000001F0
F80000000001E0
F80000000003E0
7C0000000003C0
7C0001F00007C0
3C0001F00007C0
3E0001F0000780
3E0001F8000F80
1E0003F8000F00
1F0003F8001F00
1F0003FC001F00
0F8007FC001E00
0F8007BC003E00
078007BE003C00
07C00FBE007C00
07C00F1E007C00
03C00F1F007800
03E01F1F00F800
03E01E0F00F800
01F01E0F00F000
01F03E0F81F000
00F03C0781E000
00F83C0783E000
00F87C07C3E000
00787803C3C000
007C7803C7C000
003CF803E78000
003EF001EF8000
003EF001EF8000
001FF001FF0000
001FE000FF0000
001FE000FF0000
000FE000FE0000
000FC0007E0000
0007C0007C0000
ENDCHAR
STARTCHAR 0078
ENCODING 120
SWIDTH 484 0
DWIDTH 31 0
BBX 29 35 1 0
BITMAP
F80001F8
7C0001F0
7E0003E0
3E0007E0
1F0007C0
1F800F80
0F801F80
07C01F00
03E03E00
03F07C00
01F0FC00
00F8F800
00FDF000
007FF000
003FE000
003FC000
001F8000
001F8000
001FC000
003FE000
007FE000
007DF000
00F9F800
01F8F800
01F07C00
03E07E00
07E03E00
07C01F00
0F801F80
1F800F80
1F0007C0
3E0007E0
7E0003F0
7C0001F0
F80001F8
ENDCHAR
STARTCHAR 0079
ENCODING 121
SWIDTH 531 0
DWIDTH 34 0
BBX 33 47 1 -12
BITMAP
F800001F80
F800001F00
7C00001F00
7C00003E00
7E00003E00
3E00007C00
3E00007C00
1F0000F800
1F0000F800
1F8000F800
0F8001F000
0F8001F000
07C003E000
07C003E000
07E007C000
03E007C000
03E007C000
01F00F8000
01F00F8000
01F81F0000
00F81F0000
00F83E0000
007C3E0000
007C3E0000
007E7C0000
003E7C0000
003EF80000
001FF80000
001FF00000
001FF00000
000FF00000
000FE00000
0007E00000
0007C00000
0007C00000
000F800000
000F800000
001F800000
001F000000
001F000000
003E000000
003E000000
007C000000
007C000000
00FC000000
00F8000000
00F8000000
ENDCHAR
STARTCHAR 007A
ENCODING 122
SWIDTH 421 0
DWIDTH 27 0
BBX 26 35 1 0
BITMAP
FFFFFF00
FFFFFF00
FFFFFF00
FFFFFF00
00001F00
00003E00
00007E00
00007C00
0000F800
0001F000
0003F000
0003E000
0007C000
000FC000
001F8000
001F0000
003E0000
007E0000
007C0000
00F80000
01F80000
03F00000
03E00000
07C00000
0FC00000
1F800000
1F000000
3F000000
7E000000
7C000000
F8000000
FFFFFFC0
FFFFFFC0
FFFFFFC0
FFFFFFC0
ENDCHAR
STARTCHAR 007B
ENCODING 123
SWIDTH 343 0
DWIDTH 22 0
BBX 15 55 2 -8
BITMAP
001E
00FE
01FE
03FE
03FC
03E0
07E0
07C0
07C0
07C0
07C0
07C0
07C0
07C0
07C0
07C0
07C0
07C0
07C0
07C0
07C0
07C0
07C0
07C0
1F80
FF80
FE00
F800
FE00
FF00
1F80
07C0
07C0
07C0
07C0
07C0
07C0
07C0
07C0
07C0
07C0
07C0
07C0
07C0
07C0
07C0
07C0
07C0
03E0
03E0
03F8
03FE
01FE
00FE
001E
ENDCHAR
STARTCHAR 007C
ENCODING 124
SWIDTH 671 0
DWIDTH 43 0
BBX 5 55 19 -8
BITMAP
F8
F8
F8
F8
F8
F8
F8
F8
F8
F8
F8
F8
F8
F8
F8
F8
F8
F8
F8
F8
F8
F8
F8
F8
F8
F8
F8
F8
F8
F8
F8
F8
F8
F8
F8
F8
F8
F8
F8
F8
F8
F8
F8
F8
F8
F8
F8
F8
F8
F8
F8
F8
F8
F8
F8
ENDCHAR
STARTCHAR 007D
ENCODING 125
SWIDTH 343 0
DWIDTH 22 0
BBX 15 55 2 -8
BITMAP
F800
FF00
FF80
FF80
3FC0
07C0
07C0
07C0
07C0
07C0
07C0
07C0
07C0
07C0
07C0
07C0
07C0
07C0
07C0
07C0
07C0
07C0
03E0
03E0
03F0
01FE
007E
001E
007E
01FE
03F0
03E0
03E0
07C0
07C0
07C0
07C0
07C0
07C0
07C0
07C0
07C0
07C0
07C0
07C0
07C0
07C0
07C0
07C0
07C0
3FC0
FFC0
FF80
FF00
F800
ENDCHAR
STARTCHAR 007E
ENCODING 126
SWIDTH 609 0
DWIDTH 39 0
BBX 32 12 3 13
BITMAP
00000004
01F00006
07FF000F
0FFFC01F
1FFFF83F
3FFFFFFE
3E0FFFFC
7C03FFF8
F8007FF0
70000FC0
30000000
20000000
ENDCHAR
STARTCHAR 00A0
ENCODING 160
SWIDTH 281 0
DWIDTH 18 0
BBX 0 0 0 0
BITMAP
ENDCHAR
STARTCHAR 00A1
ENCODING 161
SWIDTH 296 0
DWIDTH 19 0
BBX 5 47 7 -12
BITMAP
F8
F8
F8
F8
F8
F8
F8
F8
00
00
00
00
00
F8
F8
F8
F8
F8
F8
F8
F8
F8
F8
F8
F8
F8
F8
F8
F8
F8
F8
F8
F8
F8
F8
F8
F8
F8
F8
F8
F8
F8
F8
F8
F8
F8
F8
ENDCHAR
STARTCHAR 00A2
ENCODING 162
SWIDTH 546 0
DWIDTH 35 0
BBX 29 41 3 4
BITMAP
0003C000
0003C000
0003C000
0003C000
0003C000
0003C000
003FF800
01FFFE00
03FFFF80
07FFFFC0
0FF01FE0
1FC007E0
3F0003F0
7E0001F8
7C0000F8
7C000000
F8000000
F8000000
F8000000
F8000000
F8000000
F8000000
F8000000
F8000000
F8000000
7C000000
7C0000F8
3E0001F8
3F0003F0
1FC007F0
0FE01FE0
07FFFFC0
03FFFF80
00FFFE00
003FF800
0003C000
0003C000
0003C000
0003C000
0003C000
0003C000
ENDCHAR
STARTCHAR 00A3
ENCODING 163
SWIDTH 546 0
DWIDTH 35 0
BBX 37 48 1 0
BITMAP
0003FE0000
000FFFC000
003FFFF000
007FFFF800
00FF87FC00
01FC00FE00
03F0003F00
07E0001F00
07C0000F80
07C0000F80
0F800007C0
0F800007C0
0F800003C0
0F000003C0
0F00000000
0F00000000
0F00000000
0F00000000
0F80000000
0F80000000
0F80000000
07C0000000
FFFFFFF000
FFFFFFF000
FFFFFFF000
FFFFFFF000
007E000000
003F000000
001F000000
000F800000
000FC00000
0007C000F0
0003C000F8
0003E000F8
0003E000F8
0003E000F8
0003E000F8
0003E000F8
0003E001F0
0003E001F0
0003C003F0
0007C007E0
0007C01FC0
000F80FFC0
1FFFFFFF80
1FFFFFFE00
1FFFFFF800
1FFFFFC000
ENDCHAR
STARTCHAR 00A4
ENCODING 164
SWIDTH 546 0
DWIDTH 35 0
BBX 32 32 2 3
BITMAP
101FF000
387FFE18
7DFFFFBC
FFFFFFFE
7FFF7FFE
3FE007FC
1F8001F8
3F0000F8
7E00007C
7C00007E
F800003E
F800003E
F800001E
F000001F
F000001F
F000001F
F000001F
F000001F
F000001F
F800001E
F800003E
FC00003E
7C00007E
7E0000FC
3F0001F8
1F8003F8
3FE00FFC
7FFFFFFE
FFFFFFFE
79FFFF3C
307FFE18
000FF000
ENDCHAR
STARTCHAR 00A5
ENCODING 165
SWIDTH 546 0
DWIDTH 35 0
BBX 37 47 0 0
BITMAP
F800000078
7C000000F8
7C000000F0
3E000001F0
3E000003E0
1F000003E0
1F000007C0
0F800007C0
0780000F80
07C0000F80
03E0001F00
03E0001F00
01F0003E00
01F0003E00
00F8007C00
00F8007C00
007C00F800
007C00F000
1FFE01FFE0
1FFE01FFE0
1FFF03FFE0
1FFF03FFE0
000F87C000
0007CF8000
0007CF8000
0003FF0000
0003FF0000
0001FE0000
1FFFFFFFC0
1FFFFFFFC0
1FFFFFFFC0
1FFFFFFFC0
0000780000
0000780000
0000780000
0000780000
0000780000
0000780000
0000780000
0000780000
0000780000
0000780000
0000780000
0000780000
0000780000
0000780000
0000780000
ENDCHAR
STARTCHAR 00A6
ENCODING 166
SWIDTH 671 0
DWIDTH 43 0
BBX 5 55 19 -8
BITMAP
F8
F8
F8
F8
F8
F8
F8
F8
F8
F8
F8
F8
F8
F8
F8
F8
F8
F8
F8
F8
F8
F8
00
00
00
00
00
00
00
00
00
00
00
F8
F8
F8
F8
F8
F8
F8
F8
F8
F8
F8
F8
F8
F8
F8
F8
F8
F8
F8
F8
F8
F8
ENDCHAR
STARTCHAR 00A7
ENCODING 167
SWIDTH 609 0
DWIDTH 39 0
BBX 28 57 6 -9
BITMAP
003F8000
00FFF000
03FFF800
07FFFC00
0FF0FE00
0FC03F00
1F001F00
1F000F80
1E000F80
1E000000
1E000000
1E000000
1E000000
1F000000
1F800000
0FC00000
07F00000
0FFC0000
1FFF8000
3E7FE000
7C1FF800
7807FE00
F801FF00
F0007F80
F0001FC0
F00007E0
F00003E0
F00001F0
F80001F0
FC0001F0
7F0001F0
3FC001F0
1FF001E0
0FFC01E0
03FF03E0
00FFC7C0
003FFF80
000FFF00
0003FE00
0000FF00
00003F80
00001F80
00000F80
000007C0
780003C0
780003C0
7C0003C0
7C0007C0
3C0007C0
3E000780
1F000F80
1F803F00
0FF0FF00
07FFFE00
03FFFC00
00FFF000
003FC000
ENDCHAR
STARTCHAR 00A8
ENCODING 168
SWIDTH 375 0
DWIDTH 24 0
BBX 14 8 5 39
BITMAP
F07C
F07C
F07C
F07C
F07C
F07C
F07C
F07C
ENDCHAR
STARTCHAR 00A9
ENCODING 169
SWIDTH 750 0
DWIDTH 48 0
BBX 46 45 1 -1
BITMAP
00007FF80000
0003FFFF0000
000FE01FC000
003E0003E000
007800007800
00F000003C00
01C000000E00
038000000700
070000000380
0E003FF801C0
0C01FFFE01C0
1C03FFFF80E0
1807F00FC060
380F8003E070
301F0001F030
703E0000F830
703C00007838
607800000018
607800000018
E07800000018
E07000000018
E0700000001C
E0700000001C
E0700000001C
E07000000018
607800000018
607800000018
607C00000018
703C00007838
701E0000F830
301F0001F070
380FC007E070
1807F81FC0E0
1C01FFFF80E0
0E00FFFE01C0
06001FF80380
070000000780
038000000F00
01E000001E00
00F000003C00
007C0000F000
001F0003E000
000FF87F8000
0001FFFE0000
00003FF00000
ENDCHAR
STARTCHAR 00AA
ENCODING 170
SWIDTH 375 0
DWIDTH 24 0
BBX 20 27 2 21
BITMAP
01F8E0
0FFCE0
1FFFE0
3F0FE0
7C07E0
7803E0
F001E0
F000E0
E000E0
E000E0
E000E0
F000E0
F001E0
7801E0
7C03E0
3E0FE0
1FFFE0
0FFEE0
03F8E0
000000
000000
000000
000000
000000
FFFFF0
FFFFF0
FFFFF0
ENDCHAR
STARTCHAR 00AB
ENCODING 171
SWIDTH 421 0
DWIDTH 27 0
BBX 21 26 3 6
BITMAP
030020
03C078
07C0F8
07C0F8
0F81F0
0F81F0
1F03E0
1F03E0
3E07C0
7C0FC0
7C0F80
F81F00
F81F00
F81F00
F81F00
7C0F80
3E0FC0
3E07C0
1F03E0
1F03E0
0F81F0
0F81F0
07C0F8
07C0F8
038078
030020
ENDCHAR
STARTCHAR 00AC
ENCODING 172
SWIDTH 609 0
DWIDTH 39 0
BBX 31 14 4 10
BITMAP
FFFFFFFE
FFFFFFFE
FFFFFFFE
FFFFFFFE
FFFFFFFE
0000003E
0000003E
0000003E
0000003E
0000003E
0000003E
0000003E
0000003E
0000003E
ENDCHAR
STARTCHAR 00AD
ENCODING 173
SWIDTH 328 0
DWIDTH 21 0
BBX 17 4 2 15
BITMAP
FFFF80
FFFF80
FFFF80
FFFF80
ENDCHAR
STARTCHAR 00AE
ENCODING 174
SWIDTH 750 0
DWIDTH 48 0
BBX 46 45 1 -1
BITMAP
00007FF80000
0003FFFF0000
000FE01FC000
003E0003E000
007800007800
00F000003C00
01C000000E00
038000000700
070000000380
0E07FFC001C0
0C07FFF801C0
1C07FFFC00E0
180780FE0060
3807801F0070
3007800F0030
700780078030
700780078038
600780078018
600780078018
E00780078018
E00780070018
E007800F001C
E007807E001C
E007BFFE001C
E0079FF80018
60078FE00018
600787800018
600783C00018
700783E00038
700781F00030
300780F80070
3807807C0070
1807803C00E0
1C07803E00E0
0E07801F01C0
0607800F8380
070000000780
038000000F00
01E000001E00
00F000003C00
007C0000F000
001F0003E000
000FF87F8000
0001FFFE0000
00003FF00000
ENDCHAR
STARTCHAR 00AF
ENCODING 175
SWIDTH 484 0
DWIDTH 31 0
BBX 21 4 5 41
BITMAP
FFFFF8
FFFFF8
FFFFF8
FFFFF8
ENDCHAR
STARTCHAR 00B0
ENCODING 176
SWIDTH 406 0
DWIDTH 26 0
BBX 19 20 3 24
BITMAP
01F800
07FE00
1FFF00
3FFF80
3E07C0
7C03C0
7801E0
F001E0
F000E0
F000E0
F000E0
F001E0
7001E0
7801E0
7C03C0
3E0FC0
1FFF80
0FFF00
07FC00
00F000
ENDCHAR
STARTCHAR 00B1
ENCODING 177
SWIDTH 609 0
DWIDTH 39 0
BBX 31 36 4 0
BITMAP
0007C000
0007C000
0007C000
0007C000
0007C000
0007C000
0007C000
0007C000
0007C000
0007C000
0007C000
0007C000
0007C000
FFFFFFFE
FFFFFFFE
FFFFFFFE
FFFFFFFE
FFFFFFFE
0007C000
0007C000
0007C000
0007C000
0007C000
0007C000
0007C000
0007C000
0007C000
00000000
00000000
00000000
00000000
FFFFFFFE
FFFFFFFE
FFFFFFFE
FFFFFFFE
FFFFFFFE
ENDCHAR
STARTCHAR 00B2
ENCODING 178
SWIDTH 328 0
DWIDTH 21 0
BBX 19 30 1 18
BITMAP
03F800
0FFE00
1FFF00
3FFF80
7C07C0
7803E0
7801E0
F001E0
F000E0
F000E0
F001E0
0001E0
0003E0
0007C0
000F80
001F80
003F00
007E00
00FC00
01F800
03E000
07C000
0F8000
1F0000
3E0000
7C0000
FFFFE0
FFFFE0
FFFFE0
FFFFE0
ENDCHAR
STARTCHAR 00B3
ENCODING 179
SWIDTH 328 0
DWIDTH 21 0
BBX 19 30 1 18
BITMAP
01F000
07FC00
0FFF00
1FFF00
1E0F80
3C0780
3C0780
3C03C0
3C03C0
000780
000F80
003F00
01FF00
01FE00
01FF80
000FC0
0003C0
0001E0
0001E0
0001E0
F001E0
F001E0
F001E0
F801E0
7803C0
7C07C0
3FFF80
1FFF00
0FFE00
03F800
ENDCHAR
STARTCHAR 00B4
ENCODING 180
SWIDTH 375 0
DWIDTH 24 0
BBX 15 11 7 38
BITMAP
0008
0038
00FC
01FE
07F8
1FF0
3FC0
FF00
7E00
7800
2000
ENDCHAR
STARTCHAR 00B5
ENCODING 181
SWIDTH 609 0
DWIDTH 39 0
BBX 31 47 4 -12
BITMAP
F800003E
F800003E
F800003E
F800003E
F800003E
F800003E
F800003E
F800003E
F800003E
F800003E
F800003E
F800003E
F800003E
F800003E
F800003E
F800003E
F800003E
F800003E
F800003E
F800003E
F800003E
F800003E
F800003E
F800007E
F800007E
FC00007E
FC0000FE
FE0000FE
FF0001FE
FF8003FE
FFE00FFE
FBFEFFBE
F9FFFF3E
F8FFFE3E
F83FFC3E
F80FF000
F8000000
F8000000
F8000000
F8000000
F8000000
F8000000
F8000000
F8000000
F8000000
F8000000
F8000000
ENDCHAR
STARTCHAR 00B6
ENCODING 182
SWIDTH 562 0
DWIDTH 36 0
BBX 29 56 2 -9
BITMAP
003FFFF8
01FFFFF8
07FFFFF8
0FFFFFF8
1FFF8078
3FFF8078
3FFF8078
7FFF8078
7FFF8078
7FFF8078
FFFF8078
FFFF8078
FFFF8078
FFFF8078
7FFF8078
7FFF8078
7FFF8078
7FFF8078
3FFF8078
1FFF8078
1FFF8078
0FFF8078
03FF8078
00FF8078
001F8078
00078078
00078078
00078078
00078078
00078078
00078078
00078078
00078078
00078078
00078078
00078078
00078078
00078078
00078078
00078078
00078078
00078078
00078078
00078078
00078078
00078078
00078078
00078078
00078078
00078078
00078078
00078078
00078078
00078078
00078078
00078078
ENDCHAR
STARTCHAR 00B7
ENCODING 183
SWIDTH 281 0
DWIDTH 18 0
BBX 8 8 5 12
BITMAP
3C
7E
FF
FF
FF
FF
7E
3C
ENDCHAR
STARTCHAR 00B8
ENCODING 184
SWIDTH 328 0
DWIDTH 21 0
BBX 13 16 5 -16
BITMAP
1C00
1C00
3800
3FC0
3FF0
7FF8
10F8
0078
0078
0078
7078
F0F8
7FF0
7FF0
3FE0
0F80
ENDCHAR
STARTCHAR 00B9
ENCODING 185
SWIDTH 328 0
DWIDTH 21 0
BBX 9 29 6 18
BITMAP
FF80
FF80
FF80
FF80
0780
0780
0780
0780
0780
0780
0780
0780
0780
0780
0780
0780
0780
0780
0780
0780
0780
0780
0780
0780
0780
0780
0780
0780
0780
ENDCHAR
STARTCHAR 00BA
ENCODING 186
SWIDTH 375 0
DWIDTH 24 0
BBX 20 27 2 21
BITMAP
01F800
07FE00
1FFF00
3F0F80
3C03C0
7801E0
7001E0
F000E0
F000E0
E000F0
E000F0
F000E0
7001E0
7801E0
7C03C0
3E0F80
1FFF00
0FFE00
03F800
000000
000000
000000
000000
000000
FFFFF0
FFFFF0
FFFFF0
ENDCHAR
STARTCHAR 00BB
ENCODING 187
SWIDTH 421 0
DWIDTH 27 0
BBX 21 26 3 6
BITMAP
300600
700E00
F81F00
F81F00
7C0F80
7C0F80
3E07C0
1F03E0
1F03E0
0F81F0
0F81F0
07C0F8
07C0F8
07C0F8
07C0F8
0F81F0
0F81F0
1F03E0
3F03E0
3E07C0
7C0F80
7C0F80
F81F00
F81F00
700E00
300200
ENDCHAR
STARTCHAR 00BC
ENCODING 188
SWIDTH 828 0
DWIDTH 53 0
BBX 45 47 6 0
BITMAP
FF8000078000
FF8000070000
FF80000F0000
FF80000E0000
0780001E0000
0780001C0000
0780003C0000
078000380000
078000780000
078000700000
078000F00000
078000E00000
078000E00000
078001E00000
078001C00000
078003C00000
078003800000
078007800000
0780070003E0
07800F0003E0
07800E0007E0
07801E000FE0
07801C000FE0
07803C001FE0
078038003FE0
078078007DE0
0780780079E0
07807000F9E0
0780F001F1E0
0000E001E1E0
0001E003C1E0
0001C007C1E0
0003C00781E0
0003800F01E0
0007801F01E0
0007003E01E0
000F003C01E0
000E007C01E0
001E00FFFFF8
001C00FFFFF8
001C00FFFFF8
003C00FFFFF8
0038000001E0
0078000001E0
0070000001E0
00F0000001E0
00E0000001E0
ENDCHAR
STARTCHAR 00BD
ENCODING 189
SWIDTH 828 0
DWIDTH 53 0
BBX 46 47 6 0
BITMAP
FF8000070000
FF80000F0000
FF80000E0000
FF80001E0000
0780001C0000
0780003C0000
078000380000
078000380000
078000780000
078000700000
078000F00000
078000E00000
078001E00000
078001C00000
078003C00000
078003800000
078007800000
078007000000
07800F007F00
07800E01FFC0
07801E03FFE0
07801E07FFF0
07801C0F80F8
07803C0F0078
0780381E003C
0780781E003C
0780701E003C
0780F01C003C
0780E000003C
0001E000007C
0001C0000078
0003C00000F8
0003800001F0
0007800003E0
0007000007C0
000700001F80
000F00003F00
000E00007E00
001E0000FC00
001C0001F800
003C0003E000
00380007C000
0078000F8000
0070001FFFFC
00F0003FFFFC
00E0003FFFFC
01E0003FFFFC
ENDCHAR
STARTCHAR 00BE
ENCODING 190
SWIDTH 828 0
DWIDTH 53 0
BBX 50 48 1 0
BITMAP
01F00000000000
07FC00000E0000
0FFF00001E0000
1FFF00001C0000
1E0F80003C0000
3C078000380000
3C078000780000
3C03C000700000
3C03C000F00000
00078000E00000
000F8000E00000
003F0001E00000
01FF0001C00000
01FE0003C00000
01FF8003800000
000FC007800000
0003C007000000
0001E00F000000
0001E00E000000
0001E01E001F00
F001E01C001F00
F001E03C003F00
F001E03C007F00
F801E038007F00
7803C07800FF00
7C07C07001FF00
3FFF80F003EF00
1FFF00E003CF00
0FFE01E007CF00
03F801C00F8F00
000003C00F0F00
000003801E0F00
000007803E0F00
000007007C0F00
00000F00780F00
00000F00F80F00
00000E01F00F00
00001E01E00F00
00001C03E00F00
00003C07FFFFC0
00003807FFFFC0
00007807FFFFC0
00007007FFFFC0
0000F000000F00
0000E000000F00
0001E000000F00
0001C000000F00
0001C000000F00
ENDCHAR
STARTCHAR 00BF
ENCODING 191
SWIDTH 593 0
DWIDTH 38 0
BBX 30 48 4 -13
BITMAP
000F8000
000F8000
000F8000
000F8000
000F8000
000F8000
000F8000
000F8000
00000000
00000000
00000000
00000000
000F8000
000F8000
000F8000
000F8000
000F0000
001F0000
003F0000
003E0000
007E0000
00FC0000
01F80000
03F00000
07E00000
0FC00000
1F800000
3F000000
3E000000
7C000000
7C000000
F8000000
F800007C
F800007C
F800007C
F8000078
F8000078
780000F8
7C0000F8
7C0001F0
3E0001F0
3F0003E0
1FC00FE0
0FF07FC0
07FFFF80
03FFFF00
00FFFC00
001FE000
ENDCHAR
STARTCHAR 00C0
ENCODING 192
SWIDTH 734 0
DWIDTH 47 0
BBX 45 60 1 0
BITMAP
000100000000
0003C0000000
0003E0000000
0007F8000000
0003FE000000
0000FF000000
00003FC00000
00001FE00000
000007E00000
000001C00000
000000C00000
000000000000
000000000000
00000FC00000
00001FC00000
00001FC00000
00003FE00000
00003FE00000
00003FF00000
00007DF00000
00007CF80000
0000F8F80000
0000F8F80000
0001F07C0000
0001F07C0000
0001F03E0000
0003E03E0000
0003E03F0000
0007C01F0000
0007C01F0000
000F800F8000
000F800F8000
000F8007C000
001F0007C000
001F0007E000
003E0003E000
003E0003E000
007C0001F000
007C0001F000
007C0000F800
00FFFFFFF800
00FFFFFFFC00
01FFFFFFFC00
01FFFFFFFE00
03F000003E00
03E000003E00
03E000001F00
07C000001F00
07C000001F80
0F8000000F80
0F8000000FC0
1F00000007C0
1F00000007C0
1F00000003E0
3E00000003E0
3E00000003F0
7C00000001F0
7C00000001F8
F800000000F8
F800000000F8
ENDCHAR
STARTCHAR 00C1
ENCODING 193
SWIDTH 734 0
DWIDTH 47 0
BBX 45 60 1 0
BITMAP
000000040000
0000000E0000
0000003F0000
000000FF0000
000001FE0000
000007F80000
00001FF00000
00003FC00000
00003F000000
00001E000000
000008000000
000000000000
000000000000
00000FC00000
00001FC00000
00001FC00000
00003FE00000
00003FE00000
00003FF00000
00007DF00000
00007CF80000
0000F8F80000
0000F8F80000
0001F07C0000
0001F07C0000
0001F03E0000
0003E03E0000
0003E03F0000
0007C01F0000
0007C01F0000
000F800F8000
000F800F8000
000F8007C000
001F0007C000
001F0007E000
003E0003E000
003E0003E000
007C0001F000
007C0001F000
007C0000F800
00FFFFFFF800
00FFFFFFFC00
01FFFFFFFC00
01FFFFFFFE00
03F000003E00
03E000003E00
03E000001F00
07C000001F00
07C000001F80
0F8000000F80
0F8000000FC0
1F00000007C0
1F00000007C0
1F00000003E0
3E00000003E0
3E00000003F0
7C00000001F0
7C00000001F8
F800000000F8
F800000000F8
ENDCHAR
STARTCHAR 00C2
ENCODING 194
SWIDTH 734 0
DWIDTH 47 0
BBX 45 58 1 0
BITMAP
00000F800000
00001FE00000
00003FF00000
00007FF80000
0001F8FC0000
0003F07E0000
0007E01F0000
000FC00F8000
000000000000
000000000000
000000000000
00000FC00000
00001FC00000
00001FC00000
00003FE00000
00003FE00000
00003FF00000
00007DF00000
00007CF80000
0000F8F80000
0000F8F80000
0001F07C0000
0001F07C0000
0001F03E0000
0003E03E0000
0003E03F0000
0007C01F0000
0007C01F0000
000F800F8000
000F800F8000
000F8007C000
001F0007C000
001F0007E000
003E0003E000
003E0003E000
007C0001F000
007C0001F000
007C0000F800
00FFFFFFF800
00FFFFFFFC00
01FFFFFFFC00
01FFFFFFFE00
03F000003E00
03E000003E00
03E000001F00
07C000001F00
07C000001F80
0F8000000F80
0F8000000FC0
1F00000007C0
1F00000007C0
1F00000003E0
3E00000003E0
3E00000003F0
7C00000001F0
7C00000001F8
F800000000F8
F800000000F8
ENDCHAR
STARTCHAR 00C3
ENCODING 195
SWIDTH 734 0
DWIDTH 47 0
BBX 45 57 1 0
BITMAP
000078040000
0001FF0E0000
0003FFFF0000
0003FFFE0000
000387FC0000
000100F80000
000000000000
000000000000
000000000000
000000000000
00000FC00000
00001FC00000
00001FC00000
00003FE00000
00003FE00000
00003FF00000
00007DF00000
00007CF80000
0000F8F80000
0000F8F80000
0001F07C0000
0001F07C0000
0001F03E0000
0003E03E0000
0003E03F0000
0007C01F0000
0007C01F0000
000F800F8000
000F800F8000
000F8007C000
001F0007C000
001F0007E000
003E0003E000
003E0003E000
007C0001F000
007C0001F000
007C0000F800
00FFFFFFF800
00FFFFFFFC00
01FFFFFFFC00
01FFFFFFFE00
03F000003E00
03E000003E00
03E000001F00
07C000001F00
07C000001F80
0F8000000F80
0F8000000FC0
1F00000007C0
1F00000007C0
1F00000003E0
3E00000003E0
3E00000003F0
7C00000001F0
7C00000001F8
F800000000F8
F800000000F8
ENDCHAR
STARTCHAR 00C4
ENCODING 196
SWIDTH 734 0
DWIDTH 47 0
BBX 45 58 1 0
BITMAP
0000F07C0000
0000F07C0000
0000F07C0000
0000F07C0000
0000F07C0000
0000F07C0000
0000F07C0000
0000F07C0000
000000000000
000000000000
000000000000
00000FC00000
00001FC00000
00001FC00000
00003FE00000
00003FE00000
00003FF00000
00007DF00000
00007CF80000
0000F8F80000
0000F8F80000
0001F07C0000
0001F07C0000
0001F03E0000
0003E03E0000
0003E03F0000
0007C01F0000
0007C01F0000
000F800F8000
000F800F8000
000F8007C000
001F0007C000
001F0007E000
003E0003E000
003E0003E000
007C0001F000
007C0001F000
007C0000F800
00FFFFFFF800
00FFFFFFFC00
01FFFFFFFC00
01FFFFFFFE00
03F000003E00
03E000003E00
03E000001F00
07C000001F00
07C000001F80
0F8000000F80
0F8000000FC0
1F00000007C0
1F00000007C0
1F00000003E0
3E00000003E0
3E00000003F0
7C00000001F0
7C00000001F8
F800000000F8
F800000000F8
ENDCHAR
STARTCHAR 00C5
ENCODING 197
SWIDTH 734 0
DWIDTH 47 0
BBX 45 62 1 0
BITMAP
000007800000
00001FE00000
00003FF00000
000078F00000
000070380000
0000E0380000
0000E0380000
0000E0380000
0000F0380000
000070700000
00007FF00000
00003FE00000
00000F800000
000000000000
000000000000
00000FC00000
00001FC00000
00001FC00000
00003FE00000
00003FE00000
00003FF00000
00007DF00000
00007CF80000
0000F8F80000
0000F8F80000
0001F07C0000
0001F07C0000
0001F03E0000
0003E03E0000
0003E03F0000
0007C01F0000
0007C01F0000
000F800F8000
000F800F8000
000F8007C000
001F0007C000
001F0007E000
003E0003E000
003E0003E000
007C0001F000
007C0001F000
007C0000F800
00FFFFFFF800
00FFFFFFFC00
01FFFFFFFC00
01FFFFFFFE00
03F000003E00
03E000003E00
03E000001F00
07C000001F00
07C000001F80
0F8000000F80
0F8000000FC0
1F00000007C0
1F00000007C0
1F00000003E0
3E00000003E0
3E00000003F0
7C00000001F0
7C00000001F8
F800000000F8
F800000000F8
ENDCHAR
STARTCHAR 00C6
ENCODING 198
SWIDTH 984 0
DWIDTH 63 0
BBX 59 47 1 0
BITMAP
00000000FFFFFFE0
00000001FFFFFFE0
00000001FFFFFFE0
00000003FFFFFFE0
00000007FC000000
00000007FC000000
0000000FBC000000
0000001FBC000000
0000003F3C000000
0000003E3C000000
0000007E3C000000
000000FC3C000000
000000F83C000000
000001F83C000000
000003F03C000000
000003E03C000000
000007E03C000000
00000FC03C000000
00000F803C000000
00001F003C000000
00003F003C000000
00007E003FFFFFC0
00007C003FFFFFC0
0000FC003FFFFFC0
0001F8003FFFFFC0
0001F0003C000000
0003F0003C000000
0007FFFFFC000000
0007FFFFFC000000
000FFFFFFC000000
001FFFFFFC000000
003F00003C000000
003E00003C000000
007E00003C000000
00FC00003C000000
00F800003C000000
01F800003C000000
03F000003C000000
03E000003C000000
07E000003C000000
0FC000003C000000
0F8000003C000000
1F0000003C000000
3F0000003FFFFFE0
7E0000003FFFFFE0
7C0000003FFFFFE0
FC0000003FFFFFE0
ENDCHAR
STARTCHAR 00C7
ENCODING 199
SWIDTH 812 0
DWIDTH 52 0
BBX 46 64 3 -16
BITMAP
00001FFC0000
0001FFFF8000
0007FFFFF000
001FFFFFF800
003FFC1FFE00
00FFC000FF00
01FE00003F80
03FC00000FC0
07F0000007E0
07E0000003F0
0FC0000001F8
1F80000000F8
1F00000000FC
3F0000000000
3E0000000000
7E0000000000
7C0000000000
7C0000000000
F80000000000
F80000000000
F80000000000
F80000000000
F80000000000
F80000000000
F80000000000
F80000000000
F80000000000
F80000000000
F80000000000
F80000000000
FC0000000000
7C0000000000
7C0000000000
7E0000000000
3E0000000000
3F0000000000
1F80000000FC
1F80000001F8
0FC0000001F8
07E0000003F0
07F000000FE0
03FC00001FC0
01FF00003F80
007FC001FF00
003FFC1FFE00
001FFFFFFC00
0007FFFFF000
0000FFFFC000
00001FFC0000
000003800000
000003800000
000007F80000
000007FE0000
000007FF0000
0000020F0000
0000000F8000
000000078000
000000078000
00000E0F8000
00000E0F0000
00000FFF0000
000007FE0000
000003FC0000
000001F00000
ENDCHAR
STARTCHAR 00C8
ENCODING 200
SWIDTH 531 0
DWIDTH 34 0
BBX 26 60 5 0
BITMAP
04000000
0F000000
0F800000
1FE00000
0FF80000
03FC0000
00FF0000
003FC000
001F8000
00070000
00010000
00000000
00000000
FFFFFFC0
FFFFFFC0
FFFFFFC0
FFFFFFC0
F8000000
F8000000
F8000000
F8000000
F8000000
F8000000
F8000000
F8000000
F8000000
F8000000
F8000000
F8000000
F8000000
F8000000
F8000000
F8000000
F8000000
FFFFFF80
FFFFFF80
FFFFFF80
FFFFFF80
F8000000
F8000000
F8000000
F8000000
F8000000
F8000000
F8000000
F8000000
F8000000
F8000000
F8000000
F8000000
F8000000
F8000000
F8000000
F8000000
F8000000
F8000000
FFFFFFC0
FFFFFFC0
FFFFFFC0
FFFFFFC0
ENDCHAR
STARTCHAR 00C9
ENCODING 201
SWIDTH 531 0
DWIDTH 34 0
BBX 26 60 5 0
BITMAP
00001800
00003800
0000FC00
0003FC00
0007F800
001FE000
007FC000
00FF0000
007C0000
00780000
00200000
00000000
00000000
FFFFFFC0
FFFFFFC0
FFFFFFC0
FFFFFFC0
F8000000
F8000000
F8000000
F8000000
F8000000
F8000000
F8000000
F8000000
F8000000
F8000000
F8000000
F8000000
F8000000
F8000000
F8000000
F8000000
F8000000
FFFFFF80
FFFFFF80
FFFFFF80
FFFFFF80
F8000000
F8000000
F8000000
F8000000
F8000000
F8000000
F8000000
F8000000
F8000000
F8000000
F8000000
F8000000
F8000000
F8000000
F8000000
F8000000
F8000000
F8000000
FFFFFFC0
FFFFFFC0
FFFFFFC0
FFFFFFC0
ENDCHAR
STARTCHAR 00CA
ENCODING 202
SWIDTH 531 0
DWIDTH 34 0
BBX 26 58 5 0
BITMAP
003F0000
007F8000
00FFC000
01FFE000
07E3F000
0FC1F800
1F807C00
3F003F00
00000000
00000000
00000000
FFFFFFC0
FFFFFFC0
FFFFFFC0
FFFFFFC0
F8000000
F8000000
F8000000
F8000000
F8000000
F8000000
F8000000
F8000000
F8000000
F8000000
F8000000
F8000000
F8000000
F8000000
F8000000
F8000000
F8000000
FFFFFF80
FFFFFF80
FFFFFF80
FFFFFF80
F8000000
F8000000
F8000000
F8000000
F8000000
F8000000
F8000000
F8000000
F8000000
F8000000
F8000000
F8000000
F8000000
F8000000
F8000000
F8000000
F8000000
F8000000
FFFFFFC0
FFFFFFC0
FFFFFFC0
FFFFFFC0
ENDCHAR
STARTCHAR 00CB
ENCODING 203
SWIDTH 531 0
DWIDTH 34 0
BBX 26 58 5 0
BITMAP
03C1F000
03C1F000
03C1F000
03C1F000
03C1F000
03C1F000
03C1F000
03C1F000
00000000
00000000
00000000
FFFFFFC0
FFFFFFC0
FFFFFFC0
FFFFFFC0
F8000000
F8000000
F8000000
F8000000
F8000000
F8000000
F8000000
F8000000
F8000000
F8000000
F8000000
F8000000
F8000000
F8000000
F8000000
F8000000
F8000000
FFFFFF80
FFFFFF80
FFFFFF80
FFFFFF80
F8000000
F8000000
F8000000
F8000000
F8000000
F8000000
F8000000
F8000000
F8000000
F8000000
F8000000
F8000000
F8000000
F8000000
F8000000
F8000000
F8000000
F8000000
FFFFFFC0
FFFFFFC0
FFFFFFC0
FFFFFFC0
ENDCHAR
STARTCHAR 00CC
ENCODING 204
SWIDTH 218 0
DWIDTH 14 0
BBX 15 60 -3 0
BITMAP
2000
3800
7E00
FF00
3FC0
1FF0
07F8
01FE
00FC
003C
0008
0000
0000
00F8
00F8
00F8
00F8
00F8
00F8
00F8
00F8
00F8
00F8
00F8
00F8
00F8
00F8
00F8
00F8
00F8
00F8
00F8
00F8
00F8
00F8
00F8
00F8
00F8
00F8
00F8
00F8
00F8
00F8
00F8
00F8
00F8
00F8
00F8
00F8
00F8
00F8
00F8
00F8
00F8
00F8
00F8
00F8
00F8
00F8
00F8
ENDCHAR
STARTCHAR 00CD
ENCODING 205
SWIDTH 218 0
DWIDTH 14 0
BBX 14 60 3 0
BITMAP
0010
0038
00FC
03FC
07F8
1FE0
7FC0
FF00
FC00
7000
2000
0000
0000
3E00
3E00
3E00
3E00
3E00
3E00
3E00
3E00
3E00
3E00
3E00
3E00
3E00
3E00
3E00
3E00
3E00
3E00
3E00
3E00
3E00
3E00
3E00
3E00
3E00
3E00
3E00
3E00
3E00
3E00
3E00
3E00
3E00
3E00
3E00
3E00
3E00
3E00
3E00
3E00
3E00
3E00
3E00
3E00
3E00
3E00
3E00
ENDCHAR
STARTCHAR 00CE
ENCODING 206
SWIDTH 218 0
DWIDTH 14 0
BBX 22 58 -4 0
BITMAP
007C00
01FE00
03FF00
07EF80
0FC7E0
1F83F0
3F01F8
FC00FC
000000
000000
000000
007C00
007C00
007C00
007C00
007C00
007C00
007C00
007C00
007C00
007C00
007C00
007C00
007C00
007C00
007C00
007C00
007C00
007C00
007C00
007C00
007C00
007C00
007C00
007C00
007C00
007C00
007C00
007C00
007C00
007C00
007C00
007C00
007C00
007C00
007C00
007C00
007C00
007C00
007C00
007C00
007C00
007C00
007C00
007C00
007C00
007C00
007C00
ENDCHAR
STARTCHAR 00CF
ENCODING 207
SWIDTH 218 0
DWIDTH 14 0
BBX 14 58 0 0
BITMAP
F83C
F83C
F83C
F83C
F83C
F83C
F83C
F83C
0000
0000
0000
07C0
07C0
07C0
07C0
07C0
07C0
07C0
07C0
07C0
07C0
07C0
07C0
07C0
07C0
07C0
07C0
07C0
07C0
07C0
07C0
07C0
07C0
07C0
07C0
07C0
07C0
07C0
07C0
07C0
07C0
07C0
07C0
07C0
07C0
07C0
07C0
07C0
07C0
07C0
07C0
07C0
07C0
07C0
07C0
07C0
07C0
07C0
ENDCHAR
STARTCHAR 00D0
ENCODING 208
SWIDTH 796 0
DWIDTH 51 0
BBX 46 47 2 0
BITMAP
03FFFF800000
03FFFFFC0000
03FFFFFF8000
03FFFFFFE000
03E001FFF000
03E0000FFC00
03E00001FE00
03E000007F00
03E000003F80
03E000001F80
03E000000FC0
03E0000007E0
03E0000003E0
03E0000003F0
03E0000001F0
03E0000001F0
03E0000000F8
03E0000000F8
03E0000000F8
03E000000078
03E00000007C
FFFFFF00007C
FFFFFF00007C
FFFFFF00007C
FFFFFF00007C
03E00000007C
03E00000007C
03E000000078
03E0000000F8
03E0000000F8
03E0000000F8
03E0000001F8
03E0000001F0
03E0000003F0
03E0000003E0
03E0000007E0
03E000000FC0
03E000001FC0
03E000003F80
03E000007F00
03E00001FE00
03E0000FFC00
03E003FFF000
03FFFFFFE000
03FFFFFF8000
03FFFFFC0000
03FFFF800000
ENDCHAR
STARTCHAR 00D1
ENCODING 209
SWIDTH 734 0
DWIDTH 47 0
BBX 37 57 5 0
BITMAP
0007804000
001FF0E000
003FFFF000
003FFFF000
003C3FC000
00100F8000
0000000000
0000000000
0000000000
0000000000
FE00000078
FE00000078
FF00000078
FF80000078
FF80000078
FFC0000078
FFE0000078
FBE0000078
F9F0000078
F9F8000078
F8F8000078
F87C000078
F87E000078
F83E000078
F81F000078
F81F800078
F80F800078
F807C00078
F807E00078
F803F00078
F801F00078
F801F80078
F800FC0078
F8007C0078
F8007E0078
F8003F0078
F8001F0078
F8001F8078
F8000FC078
F80007C078
F80007E078
F80003F078
F80001F078
F80000F878
F80000FC78
F800007C78
F800003E78
F800003F78
F800001F78
F800000FF8
F800000FF8
F8000007F8
F8000003F8
F8000003F8
F8000001F8
F8000000F8
F8000000F8
ENDCHAR
STARTCHAR 00D2
ENCODING 210
SWIDTH 875 0
DWIDTH 56 0
BBX 50 62 3 -1
BITMAP
00004000000000
0000F000000000
0000FC00000000
0001FE00000000
0000FF80000000
00003FE0000000
00000FF0000000
000003FC000000
000001F8000000
00000070000000
00000010000000
00000000000000
00000000000000
00000FFC000000
0000FFFF800000
0003FFFFF00000
000FFFFFFC0000
003FFE1FFE0000
007FC001FF0000
00FF00003FC000
01FC00000FE000
03F8000007F000
07E0000003F000
0FC0000001F800
0FC0000000FC00
1F800000007E00
3F000000003E00
3E000000003F00
3E000000001F00
7C000000001F00
7C000000000F80
FC000000000F80
F8000000000F80
F8000000000780
F80000000007C0
F80000000007C0
F80000000007C0
F80000000007C0
F80000000007C0
F80000000007C0
F80000000007C0
F8000000000780
F8000000000F80
7C000000000F80
7C000000000F80
7C000000001F00
3E000000001F00
3E000000003F00
1F000000003E00
1F800000007E00
0F80000000FC00
0FC0000001F800
07E0000003F800
03F8000007F000
01FC00001FE000
00FF00003FC000
007FC001FF8000
003FFC1FFE0000
000FFFFFFC0000
0003FFFFF00000
0000FFFF800000
00000FFC000000
ENDCHAR
STARTCHAR 00D3
ENCODING 211
SWIDTH 875 0
DWIDTH 56 0
BBX 50 62 3 -1
BITMAP
00000001800000
00000003800000
0000000FC00000
0000003FC00000
0000007F800000
000001FF000000
000007FC000000
00000FF0000000
000007C0000000
00000780000000
00000200000000
00000000000000
00000000000000
00000FFC000000
0000FFFF800000
0003FFFFF00000
000FFFFFFC0000
003FFE1FFE0000
007FC001FF0000
00FF00003FC000
01FC00000FE000
03F8000007F000
07E0000003F000
0FC0000001F800
0FC0000000FC00
1F800000007E00
3F000000003E00
3E000000003F00
3E000000001F00
7C000000001F00
7C000000000F80
FC000000000F80
F8000000000F80
F8000000000780
F80000000007C0
F80000000007C0
F80000000007C0
F80000000007C0
F80000000007C0
F80000000007C0
F80000000007C0
F8000000000780
F8000000000F80
7C000000000F80
7C000000000F80
7C000000001F00
3E000000001F00
3E000000003F00
1F000000003E00
1F800000007E00
0F80000000FC00
0FC0000001F800
07E0000003F800
03F8000007F000
01FC00001FE000
00FF00003FC000
007FC001FF8000
003FFC1FFE0000
000FFFFFFC0000
0003FFFFF00000
0000FFFF800000
00000FFC000000
ENDCHAR
STARTCHAR 00D4
ENCODING 212
SWIDTH 875 0
DWIDTH 56 0
BBX 50 59 3 -1
BITMAP
000003F0000000
000007F8000000
00000FFC000000
00001FFE000000
00003F3F000000
0000FC0F800000
0001F807C00000
0003F003F00000
00000000000000
00000000000000
00000FFC000000
0000FFFF800000
0003FFFFF00000
000FFFFFFC0000
003FFE1FFE0000
007FC001FF0000
00FF00003FC000
01FC00000FE000
03F8000007F000
07E0000003F000
0FC0000001F800
0FC0000000FC00
1F800000007E00
3F000000003E00
3E000000003F00
3E000000001F00
7C000000001F00
7C000000000F80
FC000000000F80
F8000000000F80
F8000000000780
F80000000007C0
F80000000007C0
F80000000007C0
F80000000007C0
F80000000007C0
F80000000007C0
F80000000007C0
F8000000000780
F8000000000F80
7C000000000F80
7C000000000F80
7C000000001F00
3E000000001F00
3E000000003F00
1F000000003E00
1F800000007E00
0F80000000FC00
0FC0000001F800
07E0000003F800
03F8000007F000
01FC00001FE000
00FF00003FC000
007FC001FF8000
003FFC1FFE0000
000FFFFFFC0000
0003FFFFF00000
0000FFFF800000
00000FFC000000
ENDCHAR
STARTCHAR 00D5
ENCODING 213
SWIDTH 875 0
DWIDTH 56 0
BBX 50 58 3 -1
BITMAP
00001F01000000
00007FC3800000
0000FFFFC00000
0000FFFFC00000
000070FF800000
0000403E000000
00000000000000
00000000000000
00000000000000
00000FFC000000
0000FFFF800000
0003FFFFF00000
000FFFFFFC0000
003FFE1FFE0000
007FC001FF0000
00FF00003FC000
01FC00000FE000
03F8000007F000
07E0000003F000
0FC0000001F800
0FC0000000FC00
1F800000007E00
3F000000003E00
3E000000003F00
3E000000001F00
7C000000001F00
7C000000000F80
FC000000000F80
F8000000000F80
F8000000000780
F80000000007C0
F80000000007C0
F80000000007C0
F80000000007C0
F80000000007C0
F80000000007C0
F80000000007C0
F8000000000780
F8000000000F80
7C000000000F80
7C000000000F80
7C000000001F00
3E000000001F00
3E000000003F00
1F000000003E00
1F800000007E00
0F80000000FC00
0FC0000001F800
07E0000003F800
03F8000007F000
01FC00001FE000
00FF00003FC000
007FC001FF8000
003FFC1FFE0000
000FFFFFFC0000
0003FFFFF00000
0000FFFF800000
00000FFC000000
ENDCHAR
STARTCHAR 00D6
ENCODING 214
SWIDTH 875 0
DWIDTH 56 0
BBX 50 59 3 -1
BITMAP
00003E1F000000
00003E1F000000
00003E1F000000
00003E1F000000
00003E1F000000
00003E1F000000
00003E1F000000
00003E1F000000
00000000000000
00000000000000
00000FFC000000
0000FFFF800000
0003FFFFF00000
000FFFFFFC0000
003FFE1FFE0000
007FC001FF0000
00FF00003FC000
01FC00000FE000
03F8000007F000
07E0000003F000
0FC0000001F800
0FC0000000FC00
1F800000007E00
3F000000003E00
3E000000003F00
3E000000001F00
7C000000001F00
7C000000000F80
FC000000000F80
F8000000000F80
F8000000000780
F80000000007C0
F80000000007C0
F80000000007C0
F80000000007C0
F80000000007C0
F80000000007C0
F80000000007C0
F8000000000780
F8000000000F80
7C000000000F80
7C000000000F80
7C000000001F00
3E000000001F00
3E000000003F00
1F000000003E00
1F800000007E00
0F80000000FC00
0FC0000001F800
07E0000003F800
03F8000007F000
01FC00001FE000
00FF00003FC000
007FC001FF8000
003FFC1FFE0000
000FFFFFFC0000
0003FFFFF00000
0000FFFF800000
00000FFC000000
ENDCHAR
STARTCHAR 00D7
ENCODING 215
SWIDTH 609 0
DWIDTH 39 0
BBX 25 26 7 3
BITMAP
10000400
38000E00
7C001F00
FE003F80
7F007F00
3F00FE00
1F81FC00
0FC3F800
07E7F000
03FFE000
01FFC000
00FF8000
007F0000
007F0000
00FF8000
01FFC000
03FFE000
07E7F000
0FC3F800
1F81FC00
3F00FE00
7F007F00
FE003F80
7C001F00
38000E00
10000400
ENDCHAR
STARTCHAR 00D8
ENCODING 216
SWIDTH 875 0
DWIDTH 56 0
BBX 50 57 3 -5
BITMAP
00000000001000
00000000001C00
00000000003E00
00000000007C00
00001FFC00FC00
0000FFFF81F800
0007FFFFF1F000
000FFFFFFFE000
003FFC1FFFE000
007FC001FFC000
00FF00003FC000
01FC00001FE000
03F000003FF000
07E000007FF800
0FC000007DF800
1F800000F8FC00
1F000001F87E00
3F000003F03E00
3E000003E03F00
7E000007C01F00
7C00000FC01F80
7C00001F800F80
FC00001F000F80
F800003E000F80
F800007E000780
F80000FC0007C0
F80000F80007C0
F80001F00007C0
F80003F00007C0
F80007E00007C0
F80007C00007C0
F8000F800007C0
F8001F80000780
F8003F00000F80
F8003E00000F80
7C007C00000F80
7C00FC00001F00
7E01F800001F00
3E01F000003F00
3F03E000003E00
1F07E000007E00
1F8FC00000FC00
0FCF800001F800
07FF000003F800
03FF000007F000
01FE00000FE000
00FF00003FC000
00FFC000FF8000
01FFFC1FFE0000
03FFFFFFFC0000
07E3FFFFF00000
07C0FFFFC00000
0FC00FFC000000
1F800000000000
3F000000000000
0E000000000000
04000000000000
ENDCHAR
STARTCHAR 00D9
ENCODING 217
SWIDTH 656 0
DWIDTH 42 0
BBX 32 61 5 -1
BITMAP
00800000
00E00000
01F80000
03FC0000
00FF0000
007FC000
001FE000
0007F800
0003F000
0000F000
00002000
00000000
00000000
F800001F
F800001F
F800001F
F800001F
F800001F
F800001F
F800001F
F800001F
F800001F
F800001F
F800001F
F800001F
F800001F
F800001F
F800001F
F800001F
F800001F
F800001F
F800001F
F800001F
F800001F
F800001F
F800001F
F800001F
F800001F
F800001F
F800001F
F800001F
F800001F
F800001F
F800001F
F800001F
F800001F
F800001F
F800001F
F800001E
7C00003E
7C00003E
7C00007E
3E00007C
3F0000FC
1F8001F8
1FC007F0
0FFC3FF0
07FFFFE0
01FFFF80
00FFFF00
001FF800
ENDCHAR
STARTCHAR 00DA
ENCODING 218
SWIDTH 656 0
DWIDTH 42 0
BBX 32 61 5 -1
BITMAP
00000100
00000700
00001F80
00003FC0
0000FF00
0003FE00
0007F800
001FE000
000FC000
000F0000
00040000
00000000
00000000
F800001F
F800001F
F800001F
F800001F
F800001F
F800001F
F800001F
F800001F
F800001F
F800001F
F800001F
F800001F
F800001F
F800001F
F800001F
F800001F
F800001F
F800001F
F800001F
F800001F
F800001F
F800001F
F800001F
F800001F
F800001F
F800001F
F800001F
F800001F
F800001F
F800001F
F800001F
F800001F
F800001F
F800001F
F800001F
F800001E
7C00003E
7C00003E
7C00007E
3E00007C
3F0000FC
1F8001F8
1FC007F0
0FFC3FF0
07FFFFE0
01FFFF80
00FFFF00
001FF800
ENDCHAR
STARTCHAR 00DB
ENCODING 219
SWIDTH 656 0
DWIDTH 42 0
BBX 32 59 5 -1
BITMAP
0007E000
000FF000
001FF800
003FFC00
007E7E00
00FC1F00
03F00FC0
07E007E0
00000000
00000000
00000000
F800001F
F800001F
F800001F
F800001F
F800001F
F800001F
F800001F
F800001F
F800001F
F800001F
F800001F
F800001F
F800001F
F800001F
F800001F
F800001F
F800001F
F800001F
F800001F
F800001F
F800001F
F800001F
F800001F
F800001F
F800001F
F800001F
F800001F
F800001F
F800001F
F800001F
F800001F
F800001F
F800001F
F800001F
F800001F
F800001E
7C00003E
7C00003E
7C00007E
3E00007C
3F0000FC
1F8001F8
1FC007F0
0FFC3FF0
07FFFFE0
01FFFF80
00FFFF00
001FF800
ENDCHAR
STARTCHAR 00DC
ENCODING 220
SWIDTH 656 0
DWIDTH 42 0
BBX 32 59 5 -1
BITMAP
007C3E00
007C3E00
007C3E00
007C3E00
007C3E00
007C3E00
007C3E00
007C3E00
00000000
00000000
00000000
F800001F
F800001F
F800001F
F800001F
F800001F
F800001F
F800001F
F800001F
F800001F
F800001F
F800001F
F800001F
F800001F
F800001F
F800001F
F800001F
F800001F
F800001F
F800001F
F800001F
F800001F
F800001F
F800001F
F800001F
F800001F
F800001F
F800001F
F800001F
F800001F
F800001F
F800001F
F800001F
F800001F
F800001F
F800001F
F800001E
7C00003E
7C00003E
7C00007E
3E00007C
3F0000FC
1F8001F8
1FC007F0
0FFC3FF0
07FFFFE0
01FFFF80
00FFFF00
001FF800
ENDCHAR
STARTCHAR 00DD
ENCODING 221
SWIDTH 593 0
DWIDTH 38 0
BBX 37 60 0 0
BITMAP
0000002000
000000E000
000003F000
000007F000
00001FE000
00007FC000
0000FF0000
0003FC0000
0001F00000
0001E00000
0000800000
0000000000
0000000000
FC000000F8
7C000000F8
7E000001F0
3E000001F0
3F000003E0
1F000003E0
0F800007C0
0F800007C0
07C0000F80
07C0000F80
03E0001F00
03E0001F00
01F0003E00
01F0003E00
00F8007C00
00F800FC00
007C00F800
007C01F800
003E01F000
003E03E000
001F03E000
001F07C000
000F87C000
000F8F8000
0007CF8000
0007DF0000
0003FF0000
0003FE0000
0001FE0000
0000FC0000
0000FC0000
0000F80000
0000F80000
0000F80000
0000F80000
0000F80000
0000F80000
0000F80000
0000F80000
0000F80000
0000F80000
0000F80000
0000F80000
0000F80000
0000F80000
0000F80000
0000F80000
ENDCHAR
STARTCHAR 00DE
ENCODING 222
SWIDTH 593 0
DWIDTH 38 0
BBX 31 47 5 0
BITMAP
F0000000
F0000000
F0000000
F0000000
F0000000
F0000000
F0000000
F0000000
F0000000
FFFFF800
FFFFFF00
FFFFFFC0
FFFFFFE0
F8000FF0
F80003F8
F80000FC
F800007C
F800007C
F800003E
F800003E
F800003E
F800003E
F800003E
F800003E
F800003E
F800003E
F800003E
F800007E
F800007C
F80000FC
F80003F8
F8001FF8
FFFFFFF0
FFFFFFC0
FFFFFF00
FFFFFC00
F8000000
F8000000
F8000000
F8000000
F8000000
F8000000
F8000000
F8000000
F8000000
F8000000
F8000000
ENDCHAR
STARTCHAR 00DF
ENCODING 223
SWIDTH 546 0
DWIDTH 35 0
BBX 30 49 4 -1
BITMAP
007F8000
03FFE000
07FFF800
0FFFFC00
1FE3FE00
3F007F00
3E001F80
7C000F80
7C000F80
7C0007C0
F80007C0
F80007C0
F80003C0
F80003C0
F80007C0
F80007C0
F80007C0
F8000FC0
F8000F80
F8001F80
F8007F00
F801FE00
F83FFC00
F83FFC00
F83FFF00
F83FFF80
F800FFC0
F8000FE0
F80007F0
F80001F0
F80001F8
F80000F8
F80000F8
F8000078
F8000078
FF00007C
FF000078
FF000078
FF0000F8
FF8000F8
FF8001F8
FFC001F0
FFE003F0
FBF00FE0
F9FE3FC0
F9FFFF80
F87FFF00
F83FFE00
0007F000
ENDCHAR
STARTCHAR 00E0
ENCODING 224
SWIDTH 687 0
DWIDTH 44 0
BBX 37 50 3 -1
BITMAP
0020000000
0038000000
007E000000
007F000000
003FC00000
001FF00000
0007F80000
0001FE0000
00007C0000
00003C0000
0000080000
0000000000
0000000000
0003FE0000
001FFF80F8
007FFFE0F8
01FFFFF8F8
03FF0FFCF8
07F800FEF8
0FE0003EF8
1FC0001FF8
3F00000FF8
3F000007F8
7E000003F8
7C000003F8
7C000001F8
F8000001F8
F8000001F8
F8000000F8
F8000000F8
F0000000F8
F0000000F8
F8000000F8
F8000000F8
F8000000F8
F8000001F8
F8000001F8
7C000001F8
7C000003F8
7E000007F8
3F000007F8
3F80000FF8
1FC0001FF8
0FE0007FF8
07F801FEF8
03FFFFFCF8
01FFFFF8F8
007FFFF0F8
001FFFC0F8
0003FE0000
ENDCHAR
STARTCHAR 00E1
ENCODING 225
SWIDTH 687 0
DWIDTH 44 0
BBX 37 50 3 -1
BITMAP
0000004000
000001C000
000007E000
00000FF000
00003FC000
0000FF8000
0001FE0000
0007F80000
0003F00000
0003C00000
0001000000
0000000000
0000000000
0003FE0000
001FFF80F8
007FFFE0F8
01FFFFF8F8
03FF0FFCF8
07F800FEF8
0FE0003EF8
1FC0001FF8
3F00000FF8
3F000007F8
7E000003F8
7C000003F8
7C000001F8
F8000001F8
F8000001F8
F8000000F8
F8000000F8
F0000000F8
F0000000F8
F8000000F8
F8000000F8
F8000000F8
F8000001F8
F8000001F8
7C000001F8
7C000003F8
7E000007F8
3F000007F8
3F80000FF8
1FC0001FF8
0FE0007FF8
07F801FEF8
03FFFFFCF8
01FFFFF8F8
007FFFF0F8
001FFFC0F8
0003FE0000
ENDCHAR
STARTCHAR 00E2
ENCODING 226
SWIDTH 687 0
DWIDTH 44 0
BBX 37 48 3 -1
BITMAP
0001F80000
0003FC0000
0007FE0000
000FFF0000
001F8F8000
003F07E000
007C03F000
01F801F800
0000000000
0000000000
0000000000
0003FE0000
001FFF80F8
007FFFE0F8
01FFFFF8F8
03FF0FFCF8
07F800FEF8
0FE0003EF8
1FC0001FF8
3F00000FF8
3F000007F8
7E000003F8
7C000003F8
7C000001F8
F8000001F8
F8000001F8
F8000000F8
F8000000F8
F0000000F8
F0000000F8
F8000000F8
F8000000F8
F8000000F8
F8000001F8
F8000001F8
7C000001F8
7C000003F8
7E000007F8
3F000007F8
3F80000FF8
1FC0001FF8
0FE0007FF8
07F801FEF8
03FFFFFCF8
01FFFFF8F8
007FFFF0F8
001FFFC0F8
0003FE0000
ENDCHAR
STARTCHAR 00E3
ENCODING 227
SWIDTH 687 0
DWIDTH 44 0
BBX 37 47 3 -1
BITMAP
000F804000
003FF1C000
007FFFE000
007FFFE000
00387FC000
00101F0000
0000000000
0000000000
0000000000
0000000000
0003FE0000
001FFF80F8
007FFFE0F8
01FFFFF8F8
03FF0FFCF8
07F800FEF8
0FE0003EF8
1FC0001FF8
3F00000FF8
3F000007F8
7E000003F8
7C000003F8
7C000001F8
F8000001F8
F8000001F8
F8000000F8
F8000000F8
F0000000F8
F0000000F8
F8000000F8
F8000000F8
F8000000F8
F8000001F8
F8000001F8
7C000001F8
7C000003F8
7E000007F8
3F000007F8
3F80000FF8
1FC0001FF8
0FE0007FF8
07F801FEF8
03FFFFFCF8
01FFFFF8F8
007FFFF0F8
001FFFC0F8
0003FE0000
ENDCHAR
STARTCHAR 00E4
ENCODING 228
SWIDTH 687 0
DWIDTH 44 0
BBX 37 48 3 -1
BITMAP
001F0F8000
001F0F8000
001F0F8000
001F0F8000
001F0F8000
001F0F8000
001F0F8000
001F0F8000
0000000000
0000000000
0000000000
0003FE0000
001FFF80F8
007FFFE0F8
01FFFFF8F8
03FF0FFCF8
07F800FEF8
0FE0003EF8
1FC0001FF8
3F00000FF8
3F000007F8
7E000003F8
7C000003F8
7C000001F8
F8000001F8
F8000001F8
F8000000F8
F8000000F8
F0000000F8
F0000000F8
F8000000F8
F8000000F8
F8000000F8
F8000001F8
F8000001F8
7C000001F8
7C000003F8
7E000007F8
3F000007F8
3F80000FF8
1FC0001FF8
0FE0007FF8
07F801FEF8
03FFFFFCF8
01FFFFF8F8
007FFFF0F8
001FFFC0F8
0003FE0000
ENDCHAR
STARTCHAR 00E5
ENCODING 229
SWIDTH 687 0
DWIDTH 44 0
BBX 37 51 3 -1
BITMAP
0000F80000
0003FC0000
0007FE0000
000F0F0000
000E070000
000E030000
000E038000
000E070000
000E070000
000F0F0000
0007FE0000
0003FC0000
0000F00000
0000000000
0003FE0000
001FFF80F8
007FFFE0F8
01FFFFF8F8
03FF0FFCF8
07F800FEF8
0FE0003EF8
1FC0001FF8
3F00000FF8
3F000007F8
7E000003F8
7C000003F8
7C000001F8
F8000001F8
F8000001F8
F8000000F8
F8000000F8
F0000000F8
F0000000F8
F8000000F8
F8000000F8
F8000000F8
F8000001F8
F8000001F8
7C000001F8
7C000003F8
7E000007F8
3F000007F8
3F80000FF8
1FC0001FF8
0FE0007FF8
07F801FEF8
03FFFFFCF8
01FFFFF8F8
007FFFF0F8
001FFFC0F8
0003FE0000
ENDCHAR
STARTCHAR 00E6
ENCODING 230
SWIDTH 1156 0
DWIDTH 74 0
BBX 69 37 3 -1
BITMAP
0003FE000003FE0000
001FFFC0F81FFFC000
007FFFE0F87FFFF000
01FFFFF8F8FFFFF800
03FFFFFCF9FFFFFE00
07F800FEFBF800FF00
0FE0003FFFE0003F00
1FC0001FFFC0001F80
3F80000FFF80000FC0
3F000007FF000007C0
7E000003FE000003E0
7C000003FE000003E0
7C000001FC000001E0
F8000001FC000001F0
F8000000F8000000F0
F8000000F8000000F0
F8000000FFFFFFFFF0
F8000000FFFFFFFFF0
F8000000FFFFFFFFF0
F8000000FFFFFFFFF8
F8000000F800000000
F8000000F800000000
F8000000F800000000
F8000001FC00000000
7C000001FC00000000
7C000003FC000003E0
7E000003FE000003E0
3F000007FF000007E0
3F00000FFF80000FC0
1F80001FFFC0001F80
0FE0003FFFE0003F80
07F800FEFBF800FF00
03FF0FFCF9FF87FE00
01FFFFF8F8FFFFF800
007FFFF0F83FFFF000
001FFFC0F81FFFC000
0003FE000003FE0000
ENDCHAR
STARTCHAR 00E7
ENCODING 231
SWIDTH 640 0
DWIDTH 41 0
BBX 36 52 3 -16
BITMAP
0003FE0000
001FFFC000
007FFFF000
01FFFFFC00
03FF87FE00
07F800FF00
0FE0003F80
1FC0001FC0
3F00000FC0
3F000007E0
7E000003E0
7C000003F0
7C00000000
F800000000
F800000000
F800000000
F800000000
F800000000
F000000000
F000000000
F800000000
F800000000
F800000000
F800000000
7C00000000
7C00000000
7E000003F0
3F000007E0
1F80000FC0
1FC0001FC0
0FE0003F80
07F800FF00
03FF07FE00
01FFFFFC00
007FFFF000
001FFFE000
0003FF0000
0000E00000
0000E00000
0000FE0000
0001FF8000
0001FFC000
000083C000
000001E000
000001E000
000001E000
000181E000
0003C3C000
0003FFC000
0001FF8000
0000FF0000
00007E0000
ENDCHAR
STARTCHAR 00E8
ENCODING 232
SWIDTH 656 0
DWIDTH 42 0
BBX 36 50 3 -1
BITMAP
0020000000
0078000000
007E000000
00FF000000
007FC00000
001FF00000
0007F80000
0001FE0000
0000FC0000
0000380000
0000080000
0000000000
0000000000
0007FC0000
003FFF8000
00FFFFE000
01FFFFF800
03FF1FFC00
07F001FE00
0FE0007F00
1F80001F80
3F00000F80
3E000007C0
7E000007C0
7C000003E0
7C000003E0
F8000001E0
F8000001F0
F8000001F0
FFFFFFFFF0
FFFFFFFFF0
FFFFFFFFF0
FFFFFFFFF0
F000000000
F800000000
F800000000
F800000000
78000003E0
7C000003E0
7E000007C0
3E00000FC0
1F00000F80
1F80001F80
0FE0007F00
07F801FE00
03FF0FFC00
01FFFFF800
007FFFE000
001FFF8000
0003FC0000
ENDCHAR
STARTCHAR 00E9
ENCODING 233
SWIDTH 656 0
DWIDTH 42 0
BBX 36 50 3 -1
BITMAP
000000C000
000001C000
000007E000
00001FE000
00003FC000
0000FF8000
0003FE0000
0007F80000
0003E00000
0003C00000
0001000000
0000000000
0000000000
0007FC0000
003FFF8000
00FFFFE000
01FFFFF800
03FF1FFC00
07F001FE00
0FE0007F00
1F80001F80
3F00000F80
3E000007C0
7E000007C0
7C000003E0
7C000003E0
F8000001E0
F8000001F0
F8000001F0
FFFFFFFFF0
FFFFFFFFF0
FFFFFFFFF0
FFFFFFFFF0
F000000000
F800000000
F800000000
F800000000
78000003E0
7C000003E0
7E000007C0
3E00000FC0
1F00000F80
1F80001F80
0FE0007F00
07F801FE00
03FF0FFC00
01FFFFF800
007FFFE000
001FFF8000
0003FC0000
ENDCHAR
STARTCHAR 00EA
ENCODING 234
SWIDTH 656 0
DWIDTH 42 0
BBX 36 48 3 -1
BITMAP
0001F80000
0003FC0000
0007FE0000
000FFF0000
001F9F8000
007E07C000
00FC03E000
01F801F800
0000000000
0000000000
0000000000
0007FC0000
003FFF8000
00FFFFE000
01FFFFF800
03FF1FFC00
07F001FE00
0FE0007F00
1F80001F80
3F00000F80
3E000007C0
7E000007C0
7C000003E0
7C000003E0
F8000001E0
F8000001F0
F8000001F0
FFFFFFFFF0
FFFFFFFFF0
FFFFFFFFF0
FFFFFFFFF0
F000000000
F800000000
F800000000
F800000000
78000003E0
7C000003E0
7E000007C0
3E00000FC0
1F00000F80
1F80001F80
0FE0007F00
07F801FE00
03FF0FFC00
01FFFFF800
007FFFE000
001FFF8000
0003FC0000
ENDCHAR
STARTCHAR 00EB
ENCODING 235
SWIDTH 656 0
DWIDTH 42 0
BBX 36 48 3 -1
BITMAP
001E0F8000
001E0F8000
001E0F8000
001E0F8000
001E0F8000
001E0F8000
001E0F8000
001E0F8000
0000000000
0000000000
0000000000
0007FC0000
003FFF8000
00FFFFE000
01FFFFF800
03FF1FFC00
07F001FE00
0FE0007F00
1F80001F80
3F00000F80
3E000007C0
7E000007C0
7C000003E0
7C000003E0
F8000001E0
F8000001F0
F8000001F0
FFFFFFFFF0
FFFFFFFFF0
FFFFFFFFF0
FFFFFFFFF0
F000000000
F800000000
F800000000
F800000000
78000003E0
7C000003E0
7E000007C0
3E00000FC0
1F00000F80
1F80001F80
0FE0007F00
07F801FE00
03FF0FFC00
01FFFFF800
007FFFE000
001FFF8000
0003FC0000
ENDCHAR
STARTCHAR 00EC
ENCODING 236
SWIDTH 203 0
DWIDTH 13 0
BBX 14 49 -3 0
BITMAP
4000
7000
FC00
FE00
7F80
3FE0
0FF0
03FC
01F8
0078
0010
0000
0000
0000
01F0
01F0
01F0
01F0
01F0
01F0
01F0
01F0
01F0
01F0
01F0
01F0
01F0
01F0
01F0
01F0
01F0
01F0
01F0
01F0
01F0
01F0
01F0
01F0
01F0
01F0
01F0
01F0
01F0
01F0
01F0
01F0
01F0
01F0
01F0
ENDCHAR
STARTCHAR 00ED
ENCODING 237
SWIDTH 203 0
DWIDTH 13 0
BBX 14 49 2 0
BITMAP
0018
0038
00FC
03FC
07F8
1FE0
7FC0
FF00
FC00
7800
2000
0000
0000
0000
3E00
3E00
3E00
3E00
3E00
3E00
3E00
3E00
3E00
3E00
3E00
3E00
3E00
3E00
3E00
3E00
3E00
3E00
3E00
3E00
3E00
3E00
3E00
3E00
3E00
3E00
3E00
3E00
3E00
3E00
3E00
3E00
3E00
3E00
3E00
ENDCHAR
STARTCHAR 00EE
ENCODING 238
SWIDTH 203 0
DWIDTH 13 0
BBX 21 47 -4 0
BITMAP
00F800
01FC00
07FE00
0FDF80
1F8FC0
3F07E0
7E03F0
FC01F8
000000
000000
000000
000000
00F800
00F800
00F800
00F800
00F800
00F800
00F800
00F800
00F800
00F800
00F800
00F800
00F800
00F800
00F800
00F800
00F800
00F800
00F800
00F800
00F800
00F800
00F800
00F800
00F800
00F800
00F800
00F800
00F800
00F800
00F800
00F800
00F800
00F800
00F800
ENDCHAR
STARTCHAR 00EF
ENCODING 239
SWIDTH 203 0
DWIDTH 13 0
BBX 14 47 -1 0
BITMAP
F83C
F83C
F83C
F83C
F83C
F83C
F83C
F83C
0000
0000
0000
0000
07C0
07C0
07C0
07C0
07C0
07C0
07C0
07C0
07C0
07C0
07C0
07C0
07C0
07C0
07C0
07C0
07C0
07C0
07C0
07C0
07C0
07C0
07C0
07C0
07C0
07C0
07C0
07C0
07C0
07C0
07C0
07C0
07C0
07C0
07C0
ENDCHAR
STARTCHAR 00F0
ENCODING 240
SWIDTH 656 0
DWIDTH 42 0
BBX 36 49 3 -1
BITMAP
0006000000
001F018000
000F8FC000
0007FFE000
0003FF0000
0007FC0000
001FFC0000
003FFE0000
001E3F0000
00181F8000
000007E000
000003F000
0007F9F000
003FFFF800
00FFFFFC00
01FFFFFE00
07FE07FF00
0FF000FF00
0FC0003F80
1F80001F80
3F00000FC0
3E000007C0
7E000007E0
7C000003E0
FC000003E0
F8000001F0
F8000001F0
F8000001F0
F8000001F0
F8000001F0
F0000001F0
F8000001F0
F8000001F0
F8000001F0
F8000001F0
F8000001F0
7C000003E0
7C000003E0
7E000007E0
3E000007C0
3F00000FC0
1F80001F80
0FE0003F00
07F000FE00
03FF0FFC00
01FFFFF800
007FFFF000
001FFFC000
0003FE0000
ENDCHAR
STARTCHAR 00F1
ENCODING 241
SWIDTH 609 0
DWIDTH 39 0
BBX 31 46 4 0
BITMAP
003C0200
00FF8700
01FFFF00
03FFFF00
01C3FE00
00807C00
00000000
00000000
00000000
00000000
000FF000
F87FFE00
F8FFFF80
F9FFFFC0
FFFFFFE0
FFE007F0
FF8003F8
FF0001F8
FE0000F8
FC00007C
FC00007C
F800007C
F800003E
F800003E
F800003E
F800003E
F800003E
F800003E
F800003E
F800003E
F800003E
F800003E
F800003E
F800003E
F800003E
F800003E
F800003E
F800003E
F800003E
F800003E
F800003E
F800003E
F800003E
F800003E
F800003E
F800003E
ENDCHAR
STARTCHAR 00F2
ENCODING 242
SWIDTH 656 0
DWIDTH 42 0
BBX 36 50 3 -1
BITMAP
0020000000
0038000000
007E000000
007F000000
003FC00000
001FF00000
0007F80000
0001FE0000
0000FC0000
00003C0000
0000080000
0000000000
0000000000
0007FC0000
003FFFC000
00FFFFE000
01FFFFF800
03FF0FFC00
07F800FE00
0FE0007F00
1F80001F80
3F00000FC0
3E000007C0
7E000007E0
7C000003E0
7C000003E0
F8000001F0
F8000001F0
F8000001F0
F8000001F0
F8000001F0
F0000001F0
F0000001F0
F8000001F0
F8000001F0
F8000001F0
F8000001F0
7C000003E0
7C000003E0
7E000007E0
3E000007C0
3F00000FC0
1F80001F80
0FE0003F00
07F800FE00
03FF0FFC00
01FFFFF800
007FFFF000
001FFFC000
0003FE0000
ENDCHAR
STARTCHAR 00F3
ENCODING 243
SWIDTH 656 0
DWIDTH 42 0
BBX 36 50 3 -1
BITMAP
0000004000
000001C000
000007E000
00000FF000
00003FC000
0000FF8000
0001FE0000
0007F80000
0003F00000
0003C00000
0001000000
0000000000
0000000000
0007FC0000
003FFFC000
00FFFFE000
01FFFFF800
03FF0FFC00
07F800FE00
0FE0007F00
1F80001F80
3F00000FC0
3E000007C0
7E000007E0
7C000003E0
7C000003E0
F8000001F0
F8000001F0
F8000001F0
F8000001F0
F8000001F0
F0000001F0
F0000001F0
F8000001F0
F8000001F0
F8000001F0
F8000001F0
7C000003E0
7C000003E0
7E000007E0
3E000007C0
3F00000FC0
1F80001F80
0FE0003F00
07F800FE00
03FF0FFC00
01FFFFF800
007FFFF000
001FFFC000
0003FE0000
ENDCHAR
STARTCHAR 00F4
ENCODING 244
SWIDTH 656 0
DWIDTH 42 0
BBX 36 48 3 -1
BITMAP
0001F80000
0003FC0000
0007FE0000
000FFF0000
001F8F8000
003F07E000
00FC03F000
01F801F800
0000000000
0000000000
0000000000
0007FC0000
003FFFC000
00FFFFE000
01FFFFF800
03FF0FFC00
07F800FE00
0FE0007F00
1F80001F80
3F00000FC0
3E000007C0
7E000007E0
7C000003E0
7C000003E0
F8000001F0
F8000001F0
F8000001F0
F8000001F0
F8000001F0
F0000001F0
F0000001F0
F8000001F0
F8000001F0
F8000001F0
F8000001F0
7C000003E0
7C000003E0
7E000007E0
3E000007C0
3F00000FC0
1F80001F80
0FE0003F00
07F800FE00
03FF0FFC00
01FFFFF800
007FFFF000
001FFFC000
0003FE0000
ENDCHAR
STARTCHAR 00F5
ENCODING 245
SWIDTH 656 0
DWIDTH 42 0
BBX 36 47 3 -1
BITMAP
000F804000
003FF1C000
007FFFE000
007FFFE000
00387FC000
00301F0000
0000000000
0000000000
0000000000
0000000000
0007FC0000
003FFFC000
00FFFFE000
01FFFFF800
03FF0FFC00
07F800FE00
0FE0007F00
1F80001F80
3F00000FC0
3E000007C0
7E000007E0
7C000003E0
7C000003E0
F8000001F0
F8000001F0
F8000001F0
F8000001F0
F8000001F0
F0000001F0
F0000001F0
F8000001F0
F8000001F0
F8000001F0
F8000001F0
7C000003E0
7C000003E0
7E000007E0
3E000007C0
3F00000FC0
1F80001F80
0FE0003F00
07F800FE00
03FF0FFC00
01FFFFF800
007FFFF000
001FFFC000
0003FE0000
ENDCHAR
STARTCHAR 00F6
ENCODING 246
SWIDTH 656 0
DWIDTH 42 0
BBX 36 48 3 -1
BITMAP
001F0F8000
001F0F8000
001F0F8000
001F0F8000
001F0F8000
001F0F8000
001F0F8000
001F0F8000
0000000000
0000000000
0000000000
0007FC0000
003FFFC000
00FFFFE000
01FFFFF800
03FF0FFC00
07F800FE00
0FE0007F00
1F80001F80
3F00000FC0
3E000007C0
7E000007E0
7C000003E0
7C000003E0
F8000001F0
F8000001F0
F8000001F0
F8000001F0
F8000001F0
F0000001F0
F0000001F0
F8000001F0
F8000001F0
F8000001F0
F8000001F0
7C000003E0
7C000003E0
7E000007E0
3E000007C0
3F00000FC0
1F80001F80
0FE0003F00
07F800FE00
03FF0FFC00
01FFFFF800
007FFFF000
001FFFC000
0003FE0000
ENDCHAR
STARTCHAR 00F7
ENCODING 247
SWIDTH 609 0
DWIDTH 39 0
BBX 31 32 4 0
BITMAP
00078000
000FC000
000FE000
001FE000
001FE000
000FE000
000FE000
0007C000
00000000
00000000
00000000
00000000
00000000
00000000
FFFFFFFE
FFFFFFFE
FFFFFFFE
FFFFFFFE
FFFFFFFE
00000000
00000000
00000000
00000000
00000000
00078000
000FE000
000FE000
001FE000
001FE000
000FE000
000FE000
00078000
ENDCHAR
STARTCHAR 00F8
ENCODING 248
SWIDTH 656 0
DWIDTH 42 0
BBX 36 41 3 -3
BITMAP
0000000100
0000000380
0003FC07C0
001FFF8FC0
007FFFFF80
01FFFFFF00
03FF0FFE00
07F800FE00
0FE000FF00
1FC000FF80
1F0001FF80
3F0003E7C0
7E0007E7E0
7C000FC3E0
7C000F83E0
F8001F01F0
F8003F01F0
F8007E01F0
F8007C01F0
F800F801F0
F001F801F0
F003F001F0
F803E001F0
F807C001F0
F80FC001F0
F81F8003E0
781F0003E0
7C3E0003E0
7C7C0007C0
3EFC000FC0
3FF8000F80
1FF0003F80
0FE0007F00
07F001FE00
0FFE0FFC00
0FFFFFF800
1F7FFFE000
3F1FFFC000
3E03FE0000
1C00000000
0800000000
ENDCHAR
STARTCHAR 00F9
ENCODING 249
SWIDTH 609 0
DWIDTH 39 0
BBX 31 50 4 -1
BITMAP
00800000
01C00000
03F00000
03FC0000
01FE0000
007F8000
003FE000
000FF000
0003F000
0000E000
00004000
00000000
00000000
00000000
F800003E
F800003E
F800003E
F800003E
F800003E
F800003E
F800003E
F800003E
F800003E
F800003E
F800003E
F800003E
F800003E
F800003E
F800003E
F800003E
F800003E
F800003E
F800003E
F800003E
F800003E
F800003E
F800003E
F800007E
7800007E
7C00007E
7C0000FE
7E0000FE
3E0001FE
3F8003FE
1FC00FFE
0FFFFFBE
07FFFF3E
03FFFE3E
01FFFC3E
003FE000
ENDCHAR
STARTCHAR 00FA
ENCODING 250
SWIDTH 609 0
DWIDTH 39 0
BBX 31 50 4 -1
BITMAP
00000200
00000F00
00001F00
00007F80
0001FF00
0003FC00
000FF000
001FE000
001F8000
000E0000
000C0000
00000000
00000000
00000000
F800003E
F800003E
F800003E
F800003E
F800003E
F800003E
F800003E
F800003E
F800003E
F800003E
F800003E
F800003E
F800003E
F800003E
F800003E
F800003E
F800003E
F800003E
F800003E
F800003E
F800003E
F800003E
F800003E
F800007E
7800007E
7C00007E
7C0000FE
7E0000FE
3E0001FE
3F8003FE
1FC00FFE
0FFFFFBE
07FFFF3E
03FFFE3E
01FFFC3E
003FE000
ENDCHAR
STARTCHAR 00FB
ENCODING 251
SWIDTH 609 0
DWIDTH 39 0
BBX 31 48 4 -1
BITMAP
0007C000
000FE000
003FF800
007EFC00
00FC7E00
01F83F00
03F01F80
07E00FC0
00000000
00000000
00000000
00000000
F800003E
F800003E
F800003E
F800003E
F800003E
F800003E
F800003E
F800003E
F800003E
F800003E
F800003E
F800003E
F800003E
F800003E
F800003E
F800003E
F800003E
F800003E
F800003E
F800003E
F800003E
F800003E
F800003E
F800007E
7800007E
7C00007E
7C0000FE
7E0000FE
3E0001FE
3F8003FE
1FC00FFE
0FFFFFBE
07FFFF3E
03FFFE3E
01FFFC3E
003FE000
ENDCHAR
STARTCHAR 00FC
ENCODING 252
SWIDTH 609 0
DWIDTH 39 0
BBX 31 48 4 -1
BITMAP
00F83C00
00F83C00
00F83C00
00F83C00
00F83C00
00F83C00
00F83C00
00F83C00
00000000
00000000
00000000
00000000
F800003E
F800003E
F800003E
F800003E
F800003E
F800003E
F800003E
F800003E
F800003E
F800003E
F800003E
F800003E
F800003E
F800003E
F800003E
F800003E
F800003E
F800003E
F800003E
F800003E
F800003E
F800003E
F800003E
F800007E
7800007E
7C00007E
7C0000FE
7E0000FE
3E0001FE
3F8003FE
1FC00FFE
0FFFFFBE
07FFFF3E
03FFFE3E
01FFFC3E
003FE000
ENDCHAR
STARTCHAR 00FD
ENCODING 253
SWIDTH 531 0
DWIDTH 34 0
BBX 33 61 1 -12
BITMAP
0000010000
0000078000
00000F8000
00003FC000
0000FF8000
0001FE0000
0007F80000
001FE00000
000FC00000
0007000000
0004000000
0000000000
0000000000
0000000000
F800001F80
F800001F00
7C00001F00
7C00003E00
7E00003E00
3E00007C00
3E00007C00
1F0000F800
1F0000F800
1F8000F800
0F8001F000
0F8001F000
07C003E000
07C003E000
07E007C000
03E007C000
03E007C000
01F00F8000
01F00F8000
01F81F0000
00F81F0000
00F83E0000
007C3E0000
007C3E0000
007E7C0000
003E7C0000
003EF80000
001FF80000
001FF00000
001FF00000
000FF00000
000FE00000
0007E00000
0007C00000
0007C00000
000F800000
000F800000
001F800000
001F000000
001F000000
003E000000
003E000000
007C000000
007C000000
00FC000000
00F8000000
00F8000000
ENDCHAR
STARTCHAR 00FE
ENCODING 254
SWIDTH 687 0
DWIDTH 44 0
BBX 37 59 4 -12
BITMAP
F800000000
F800000000
F800000000
F800000000
F800000000
F800000000
F800000000
F800000000
F800000000
F800000000
F800000000
F803FE0000
F81FFFC000
F87FFFF000
F8FFFFFC00
F9FF0FFE00
FBF800FF00
FFE0003F80
FF80001F80
FF00000FC0
FE000007E0
FE000003E0
FC000003F0
FC000001F0
F8000001F0
F8000000F8
F8000000F8
F8000000F8
F0000000F8
F0000000F8
F0000000F8
F8000000F8
F8000000F8
F8000000F8
F8000001F0
FC000001F0
FC000003F0
FE000003E0
FF000007E0
FF80000FC0
FFC0001F80
FFE0003F80
FBF800FF00
F9FF8FFE00
F8FFFFF800
F87FFFF000
F81FFFC000
F803FE0000
F800000000
F800000000
F800000000
F800000000
F800000000
F800000000
F800000000
F800000000
F800000000
F800000000
F800000000
ENDCHAR
STARTCHAR 00FF
ENCODING 255
SWIDTH 531 0
DWIDTH 34 0
BBX 33 59 1 -12
BITMAP
007C1E0000
007C1E0000
007C1E0000
007C1E0000
007C1E0000
007C1E0000
007C1E0000
007C1E0000
0000000000
0000000000
0000000000
0000000000
F800001F80
F800001F00
7C00001F00
7C00003E00
7E00003E00
3E00007C00
3E00007C00
1F0000F800
1F0000F800
1F8000F800
0F8001F000
0F8001F000
07C003E000
07C003E000
07E007C000
03E007C000
03E007C000
01F00F8000
01F00F8000
01F81F0000
00F81F0000
00F83E0000
007C3E0000
007C3E0000
007E7C0000
003E7C0000
003EF80000
001FF80000
001FF00000
001FF00000
000FF00000
000FE00000
0007E00000
0007C00000
0007C00000
000F800000
000F800000
001F800000
001F000000
001F000000
003E000000
003E000000
007C000000
007C000000
00FC000000
00F8000000
00F8000000
ENDCHAR
STARTCHAR 0100
ENCODING 256
SWIDTH 734 0
DWIDTH 47 0
BBX 45 56 1 0
BITMAP
000FFFFF8000
000FFFFF8000
000FFFFF8000
000FFFFF8000
000000000000
000000000000
000000000000
000000000000
000000000000
00000FC00000
00001FC00000
00001FC00000
00003FE00000
00003FE00000
00003FF00000
00007DF00000
00007CF80000
0000F8F80000
0000F8F80000
0001F07C0000
0001F07C0000
0001F03E0000
0003E03E0000
0003E03F0000
0007C01F0000
0007C01F0000
000F800F8000
000F800F8000
000F8007C000
001F0007C000
001F0007E000
003E0003E000
003E0003E000
007C0001F000
007C0001F000
007C0000F800
00FFFFFFF800
00FFFFFFFC00
01FFFFFFFC00
01FFFFFFFE00
03F000003E00
03E000003E00
03E000001F00
07C000001F00
07C000001F80
0F8000000F80
0F8000000FC0
1F00000007C0
1F00000007C0
1F00000003E0
3E00000003E0
3E00000003F0
7C00000001F0
7C00000001F8
F800000000F8
F800000000F8
ENDCHAR
STARTCHAR 0101
ENCODING 257
SWIDTH 687 0
DWIDTH 44 0
BBX 37 46 3 -1
BITMAP
01FFFFF800
01FFFFF800
01FFFFF800
01FFFFF800
0000000000
0000000000
0000000000
0000000000
0000000000
0003FE0000
001FFF80F8
007FFFE0F8
01FFFFF8F8
03FF0FFCF8
07F800FEF8
0FE0003EF8
1FC0001FF8
3F00000FF8
3F000007F8
7E000003F8
7C000003F8
7C000001F8
F8000001F8
F8000001F8
F8000000F8
F8000000F8
F0000000F8
F0000000F8
F8000000F8
F8000000F8
F8000000F8
F8000001F8
F8000001F8
7C000001F8
7C000003F8
7E000007F8
3F000007F8
3F80000FF8
1FC0001FF8
0FE0007FF8
07F801FEF8
03FFFFFCF8
01FFFFF8F8
007FFFF0F8
001FFFC0F8
0003FE0000
ENDCHAR
STARTCHAR 0102
ENCODING 258
SWIDTH 734 0
DWIDTH 47 0
BBX 45 58 1 0
BITMAP
0007800F0000
0007800F0000
0003C01F0000
0003F03E0000
0001FFFE0000
0000FFFC0000
00007FF00000
00000FC00000
000000000000
000000000000
000000000000
00000FC00000
00001FC00000
00001FC00000
00003FE00000
00003FE00000
00003FF00000
00007DF00000
00007CF80000
0000F8F80000
0000F8F80000
0001F07C0000
0001F07C0000
0001F03E0000
0003E03E0000
0003E03F0000
0007C01F0000
0007C01F0000
000F800F8000
000F800F8000
000F8007C000
001F0007C000
001F0007E000
003E0003E000
003E0003E000
007C0001F000
007C0001F000
007C0000F800
00FFFFFFF800
00FFFFFFFC00
01FFFFFFFC00
01FFFFFFFE00
03F000003E00
03E000003E00
03E000001F00
07C000001F00
07C000001F80
0F8000000F80
0F8000000FC0
1F00000007C0
1F00000007C0
1F00000003E0
3E00000003E0
3E00000003F0
7C00000001F0
7C00000001F8
F800000000F8
F800000000F8
ENDCHAR
STARTCHAR 0103
ENCODING 259
SWIDTH 687 0
DWIDTH 44 0
BBX 37 48 3 -1
BITMAP
00F800F000
007801E000
007C03E000
007E07E000
003FFFC000
001FFF8000
000FFF0000
0001F80000
0000000000
0000000000
0000000000
0003FE0000
001FFF80F8
007FFFE0F8
01FFFFF8F8
03FF0FFCF8
07F800FEF8
0FE0003EF8
1FC0001FF8
3F00000FF8
3F000007F8
7E000003F8
7C000003F8
7C000001F8
F8000001F8
F8000001F8
F8000000F8
F8000000F8
F0000000F8
F0000000F8
F8000000F8
F8000000F8
F8000000F8
F8000001F8
F8000001F8
7C000001F8
7C000003F8
7E000007F8
3F000007F8
3F80000FF8
1FC0001FF8
0FE0007FF8
07F801FEF8
03FFFFFCF8
01FFFFF8F8
007FFFF0F8
001FFFC0F8
0003FE0000
ENDCHAR
STARTCHAR 0104
ENCODING 260
SWIDTH 734 0
DWIDTH 47 0
BBX 46 63 1 -16
BITMAP
00000FC00000
00001FC00000
00001FC00000
00003FE00000
00003FE00000
00003FF00000
00007DF00000
00007CF80000
0000F8F80000
0000F8F80000
0001F07C0000
0001F07C0000
0001F03E0000
0003E03E0000
0003E03F0000
0007C01F0000
0007C01F0000
000F800F8000
000F800F8000
000F8007C000
001F0007C000
001F0007E000
003E0003E000
003E0003E000
007C0001F000
007C0001F000
007C0000F800
00FFFFFFF800
00FFFFFFFC00
01FFFFFFFC00
01FFFFFFFE00
03F000003E00
03E000003E00
03E000001F00
07C000001F00
07C000001F80
0F8000000F80
0F8000000FC0
1F00000007C0
1F00000007C0
1F00000003E0
3E00000003E0
3E00000003F0
7C00000001F0
7C00000001F8
F800000000F8
F800000000F8
0000000000F8
0000000001F0
0000000003E0
0000000007C0
000000000F80
000000000F80
000000000F00
000000000F00
000000000F00
000000000F80
000000000F80
000000000FFC
0000000007FC
0000000003FC
0000000001FC
00000000007C
ENDCHAR
STARTCHAR 0105
ENCODING 261
SWIDTH 687 0
DWIDTH 44 0
BBX 38 52 3 -16
BITMAP
0003FE0000
001FFFC0F8
007FFFE0F8
01FFFFF8F8
03FF0FFCF8
07F800FEF8
0FE0003FF8
1FC0001FF8
3F00000FF8
3F000007F8
7E000003F8
7C000003F8
7C000001F8
F8000001F8
F8000001F8
F8000000F8
F8000000F8
F0000000F8
F0000000F8
F8000000F8
F8000000F8
F8000000F8
F8000001F8
F8000001F8
7C000001F8
7C000003F8
7E000007F8
3F000007F8
3F80000FF8
1FC0001FF8
0FE0007FF8
07F801FEF8
03FFFFFCF8
01FFFFF8F8
007FFFF0F8
001FFFC0F8
0003FE01F0
00000003E0
00000007C0
0000000F80
0000001F00
0000001F00
0000001E00
0000001E00
0000001E00
0000001F00
0000001F00
0000001FFC
0000000FFC
00000007FC
00000003FC
00000001FC
ENDCHAR
STARTCHAR 0106
ENCODING 262
SWIDTH 812 0
DWIDTH 52 0
BBX 46 62 3 -1
BITMAP
000000010000
000000078000
0000000F8000
0000003FC000
000000FF8000
000001FE0000
000007F80000
00001FF00000
00000FC00000
000007000000
000006000000
000000000000
000000000000
00001FFC0000
0001FFFF8000
0007FFFFF000
001FFFFFF800
003FFC1FFE00
00FFC000FF00
01FE00003F80
03FC00000FC0
07F0000007E0
07E0000003F0
0FC0000001F8
1F80000000F8
1F00000000FC
3F0000000000
3E0000000000
7E0000000000
7C0000000000
7C0000000000
F80000000000
F80000000000
F80000000000
F80000000000
F80000000000
F80000000000
F80000000000
F80000000000
F80000000000
F80000000000
F80000000000
F80000000000
FC0000000000
7C0000000000
7C0000000000
7E0000000000
3E0000000000
3F0000000000
1F80000000FC
1F80000001F8
0FC0000001F8
07E0000003F0
03F000000FE0
03FC00001FC0
01FF00003F80
007FC001FF00
003FFC1FFE00
001FFFFFFC00
0007FFFFF000
0000FFFFC000
00001FFC0000
ENDCHAR
STARTCHAR 0107
ENCODING 263
SWIDTH 640 0
DWIDTH 41 0
BBX 36 50 3 -1
BITMAP
0000004000
000001E000
000003E000
00000FF000
00003FE000
00007F8000
0001FE0000
0003FC0000
0003F00000
0001C00000
0001800000
0000000000
0000000000
0003FE0000
001FFFC000
007FFFF000
01FFFFFC00
03FF87FE00
07F800FF00
0FE0003F80
1FC0001FC0
3F00000FC0
3F000007E0
7E000003E0
7C000003F0
7C00000000
F800000000
F800000000
F800000000
F800000000
F800000000
F000000000
F000000000
F800000000
F800000000
F800000000
F800000000
7C00000000
7C00000000
7E000003F0
3F000007E0
1F80000FC0
1FC0001FC0
0FE0003F80
07F800FF00
03FF07FE00
01FFFFFC00
007FFFF000
001FFFC000
0003FE0000
ENDCHAR
STARTCHAR 0108
ENCODING 264
SWIDTH 812 0
DWIDTH 52 0
BBX 46 59 3 -1
BITMAP
000003E00000
000007F00000
00001FF80000
00003F7E0000
00007E3F0000
0000FC1F8000
0001F80FC000
0003E007E000
000000000000
000000000000
00001FFC0000
0001FFFF8000
0007FFFFF000
001FFFFFF800
003FFC1FFE00
00FFC000FF00
01FE00003F80
03FC00000FC0
07F0000007E0
07E0000003F0
0FC0000001F8
1F80000000F8
1F00000000FC
3F0000000000
3E0000000000
7E0000000000
7C0000000000
7C0000000000
F80000000000
F80000000000
F80000000000
F80000000000
F80000000000
F80000000000
F80000000000
F80000000000
F80000000000
F80000000000
F80000000000
F80000000000
FC0000000000
7C0000000000
7C0000000000
7E0000000000
3E0000000000
3F0000000000
1F80000000FC
1F80000001F8
0FC0000001F8
07E0000003F0
03F000000FE0
03FC00001FC0
01FF00003F80
007FC001FF00
003FFC1FFE00
001FFFFFFC00
0007FFFFF000
0000FFFFC000
00001FFC0000
ENDCHAR
STARTCHAR 0109
ENCODING 265
SWIDTH 640 0
DWIDTH 41 0
BBX 36 48 3 -1
BITMAP
0000F80000
0001FC0000
0007FE0000
000FDF8000
001F8FC000
003F07E000
007E03F000
00FC01F800
0000000000
0000000000
0000000000
0003FE0000
001FFFC000
007FFFF000
01FFFFFC00
03FF87FE00
07F800FF00
0FE0003F80
1FC0001FC0
3F00000FC0
3F000007E0
7E000003E0
7C000003F0
7C00000000
F800000000
F800000000
F800000000
F800000000
F800000000
F000000000
F000000000
F800000000
F800000000
F800000000
F800000000
7C00000000
7C00000000
7E000003F0
3F000007E0
1F80000FC0
1FC0001FC0
0FE0003F80
07F800FF00
03FF07FE00
01FFFFFC00
007FFFF000
001FFFC000
0003FE0000
ENDCHAR
STARTCHAR 010A
ENCODING 266
SWIDTH 812 0
DWIDTH 52 0
BBX 46 59 3 -1
BITMAP
000003E00000
000003E00000
000003E00000
000003E00000
000003E00000
000003E00000
000003E00000
000003E00000
000000000000
000000000000
00001FFC0000
0001FFFF8000
0007FFFFF000
001FFFFFF800
003FFC1FFE00
00FFC000FF00
01FE00003F80
03FC00000FC0
07F0000007E0
07E0000003F0
0FC0000001F8
1F80000000F8
1F00000000FC
3F0000000000
3E0000000000
7E0000000000
7C0000000000
7C0000000000
F80000000000
F80000000000
F80000000000
F80000000000
F80000000000
F80000000000
F80000000000
F80000000000
F80000000000
F80000000000
F80000000000
F80000000000
FC0000000000
7C0000000000
7C0000000000
7E0000000000
3E0000000000
3F0000000000
1F80000000FC
1F80000001F8
0FC0000001F8
07E0000003F0
03F000000FE0
03FC00001FC0
01FF00003F80
007FC001FF00
003FFC1FFE00
001FFFFFFC00
0007FFFFF000
0000FFFFC000
00001FFC0000
ENDCHAR
STARTCHAR 010B
ENCODING 267
SWIDTH 640 0
DWIDTH 41 0
BBX 36 48 3 -1
BITMAP
0000F80000
0000F80000
0000F80000
0000F80000
0000F80000
0000F80000
0000F80000
0000F80000
0000000000
0000000000
0000000000
0003FE0000
001FFFC000
007FFFF000
01FFFFFC00
03FF87FE00
07F800FF00
0FE0003F80
1FC0001FC0
3F00000FC0
3F000007E0
7E000003E0
7C000003F0
7C00000000
F800000000
F800000000
F800000000
F800000000
F800000000
F000000000
F000000000
F800000000
F800000000
F800000000
F800000000
7C00000000
7C00000000
7E000003F0
3F000007E0
1F80000FC0
1FC0001FC0
0FE0003F80
07F800FF00
03FF07FE00
01FFFFFC00
007FFFF000
001FFFC000
0003FE0000
ENDCHAR
STARTCHAR 010C
ENCODING 268
SWIDTH 812 0
DWIDTH 52 0
BBX 46 59 3 -1
BITMAP
0003E007E000
0001F00FC000
0000FC1F8000
00007E3F0000
00003FFC0000
00001FF80000
00000FF00000
000003E00000
000000000000
000000000000
00001FFC0000
0001FFFF8000
0007FFFFF000
001FFFFFF800
003FFC1FFE00
00FFC000FF00
01FE00003F80
03FC00000FC0
07F0000007E0
07E0000003F0
0FC0000001F8
1F80000000F8
1F00000000FC
3F0000000000
3E0000000000
7E0000000000
7C0000000000
7C0000000000
F80000000000
F80000000000
F80000000000
F80000000000
F80000000000
F80000000000
F80000000000
F80000000000
F80000000000
F80000000000
F80000000000
F80000000000
FC0000000000
7C0000000000
7C0000000000
7E0000000000
3E0000000000
3F0000000000
1F80000000FC
1F80000001F8
0FC0000001F8
07E0000003F0
03F000000FE0
03FC00001FC0
01FF00003F80
007FC001FF00
003FFC1FFE00
001FFFFFFC00
0007FFFFF000
0000FFFFC000
00001FFC0000
ENDCHAR
STARTCHAR 010D
ENCODING 269
SWIDTH 640 0
DWIDTH 41 0
BBX 36 48 3 -1
BITMAP
00F801F800
007E03F000
003F07E000
001F8FC000
000FDF8000
0007FE0000
0001FC0000
0000F80000
0000000000
0000000000
0000000000
0003FE0000
001FFFC000
007FFFF000
01FFFFFC00
03FF87FE00
07F800FF00
0FE0003F80
1FC0001FC0
3F00000FC0
3F000007E0
7E000003E0
7C000003F0
7C00000000
F800000000
F800000000
F800000000
F800000000
F800000000
F000000000
F000000000
F800000000
F800000000
F800000000
F800000000
7C00000000
7C00000000
7E000003F0
3F000007E0
1F80000FC0
1FC0001FC0
0FE0003F80
07F800FF00
03FF07FE00
01FFFFFC00
007FFFF000
001FFFC000
0003FE0000
ENDCHAR
STARTCHAR 010E
ENCODING 270
SWIDTH 750 0
DWIDTH 48 0
BBX 40 58 5 0
BITMAP
1F801F8000
0FC03F0000
03E07E0000
01F9F80000
00FFF00000
007FE00000
003FC00000
001F800000
0000000000
0000000000
0000000000
FFFFF00000
FFFFFF0000
FFFFFFE000
FFFFFFF800
F8007FFC00
F80003FF00
F800007F80
F800001FC0
F800000FE0
F8000007E0
F8000003F0
F8000001F8
F8000000F8
F8000000FC
F80000007C
F80000007E
F80000003E
F80000003E
F80000003E
F80000001E
F80000001F
F80000001F
F80000001F
F80000001F
F80000001F
F80000001F
F80000001F
F80000001F
F80000003E
F80000003E
F80000003E
F80000007E
F80000007C
F8000000FC
F8000000F8
F8000001F8
F8000003F0
F8000007F0
F800000FE0
F800001FC0
F800007F80
F80003FF00
F800FFFC00
FFFFFFF800
FFFFFFE000
FFFFFF0000
FFFFF00000
ENDCHAR
STARTCHAR 010F
ENCODING 271
SWIDTH 687 0
DWIDTH 44 0
BBX 49 48 3 -1
BITMAP
00000000F80F80
00000000F81F00
00000000F81F00
00000000F81F00
00000000F81E00
00000000F83E00
00000000F83E00
00000000F83E00
00000000F83C00
00000000F87C00
00000000F87C00
0003FE00F80000
001FFFC0F80000
007FFFE0F80000
01FFFFF8F80000
03FF0FFCF80000
07F801FEF80000
0FE0007FF80000
1F80001FF80000
3F00000FF80000
3F000007F80000
7E000003F80000
7C000003F80000
7C000001F80000
F8000001F80000
F8000000F80000
F8000000F80000
F8000000F80000
F8000000F80000
F0000000F80000
F8000000F80000
F8000000F80000
F8000000F80000
F8000000F80000
F8000001F80000
7C000001F80000
7C000003F80000
7E000003F80000
3F000007F80000
3F80000FF80000
1FC0001FF80000
0FE0007FF80000
07F801FEF80000
03FFFFFCF80000
01FFFFF8F80000
007FFFF0F80000
001FFFC0F80000
0003FE00000000
ENDCHAR
STARTCHAR 0110
ENCODING 272
SWIDTH 796 0
DWIDTH 51 0
BBX 46 47 2 0
BITMAP
03FFFF800000
03FFFFFC0000
03FFFFFF8000
03FFFFFFE000
03E001FFF000
03E0000FFC00
03E00001FE00
03E000007F00
03E000003F80
03E000001F80
03E000000FC0
03E0000007E0
03E0000003E0
03E0000003F0
03E0000001F0
03E0000001F0
03E0000000F8
03E0000000F8
03E0000000F8
03E000000078
03E00000007C
FFFFFF00007C
FFFFFF00007C
FFFFFF00007C
FFFFFF00007C
03E00000007C
03E00000007C
03E000000078
03E0000000F8
03E0000000F8
03E0000000F8
03E0000001F8
03E0000001F0
03E0000003F0
03E0000003E0
03E0000007E0
03E000000FC0
03E000001FC0
03E000003F80
03E000007F00
03E00001FE00
03E0000FFC00
03E003FFF000
03FFFFFFE000
03FFFFFF8000
03FFFFFC0000
03FFFF800000
ENDCHAR
STARTCHAR 0111
ENCODING 273
SWIDTH 687 0
DWIDTH 44 0
BBX 41 48 3 -1
BITMAP
00000000F800
00000000F800
00000000F800
00000000F800
000003FFFF80
000003FFFF80
000003FFFF80
000003FFFF80
00000000F800
00000000F800
00000000F800
0003FE00F800
001FFFC0F800
007FFFE0F800
01FFFFF8F800
03FF0FFCF800
07F800FEF800
0FE0003FF800
1F80001FF800
3F00000FF800
3F000007F800
7E000003F800
7C000003F800
7C000001F800
F8000001F800
F8000000F800
F8000000F800
F8000000F800
F8000000F800
F0000000F800
F8000000F800
F8000000F800
F8000000F800
F8000000F800
F8000001F800
7C000001F800
7C000003F800
7E000003F800
3F000007F800
3F00000FF800
1FC0001FF800
0FE0003FF800
07F800FEF800
03FF0FFCF800
01FFFFF8F800
007FFFF0F800
001FFFC0F800
0003FE000000
ENDCHAR
STARTCHAR 0112
ENCODING 274
SWIDTH 531 0
DWIDTH 34 0
BBX 26 56 5 0
BITMAP
3FFFFF00
3FFFFF00
3FFFFF00
3FFFFF00
00000000
00000000
00000000
00000000
00000000
FFFFFFC0
FFFFFFC0
FFFFFFC0
FFFFFFC0
F8000000
F8000000
F8000000
F8000000
F8000000
F8000000
F8000000
F8000000
F8000000
F8000000
F8000000
F8000000
F8000000
F8000000
F8000000
F8000000
F8000000
FFFFFF80
FFFFFF80
FFFFFF80
FFFFFF80
F8000000
F8000000
F8000000
F8000000
F8000000
F8000000
F8000000
F8000000
F8000000
F8000000
F8000000
F8000000
F8000000
F8000000
F8000000
F8000000
F8000000
F8000000
FFFFFFC0
FFFFFFC0
FFFFFFC0
FFFFFFC0
ENDCHAR
STARTCHAR 0113
ENCODING 275
SWIDTH 656 0
DWIDTH 42 0
BBX 36 46 3 -1
BITMAP
01FFFFF800
01FFFFF800
01FFFFF800
01FFFFF800
0000000000
0000000000
0000000000
0000000000
0000000000
0007FC0000
003FFF8000
00FFFFE000
01FFFFF800
03FF1FFC00
07F001FE00
0FE0007F00
1F80001F80
3F00000F80
3E000007C0
7E000007C0
7C000003E0
7C000003E0
F8000001E0
F8000001F0
F8000001F0
FFFFFFFFF0
FFFFFFFFF0
FFFFFFFFF0
FFFFFFFFF0
F000000000
F800000000
F800000000
F800000000
78000003E0
7C000003E0
7E000007C0
3E00000FC0
1F00000F80
1F80001F80
0FE0007F00
07F801FE00
03FF0FFC00
01FFFFF800
007FFFE000
001FFF8000
0003FC0000
ENDCHAR
STARTCHAR 0114
ENCODING 276
SWIDTH 531 0
DWIDTH 34 0
BBX 26 58 5 0
BITMAP
1E003C00
1F003C00
0F007C00
0FC0F800
07FFF800
03FFF000
01FFC000
003F0000
00000000
00000000
00000000
FFFFFFC0
FFFFFFC0
FFFFFFC0
FFFFFFC0
F8000000
F8000000
F8000000
F8000000
F8000000
F8000000
F8000000
F8000000
F8000000
F8000000
F8000000
F8000000
F8000000
F8000000
F8000000
F8000000
F8000000
FFFFFF80
FFFFFF80
FFFFFF80
FFFFFF80
F8000000
F8000000
F8000000
F8000000
F8000000
F8000000
F8000000
F8000000
F8000000
F8000000
F8000000
F8000000
F8000000
F8000000
F8000000
F8000000
F8000000
F8000000
FFFFFFC0
FFFFFFC0
FFFFFFC0
FFFFFFC0
ENDCHAR
STARTCHAR 0115
ENCODING 277
SWIDTH 656 0
DWIDTH 42 0
BBX 36 48 3 -1
BITMAP
00F001E000
00F801E000
007803E000
007E07C000
003FFFC000
001FFF8000
000FFF0000
0001F80000
0000000000
0000000000
0000000000
0007FC0000
003FFF8000
00FFFFE000
01FFFFF800
03FF1FFC00
07F001FE00
0FE0007F00
1F80001F80
3F00000F80
3E000007C0
7E000007C0
7C000003E0
7C000003E0
F8000001E0
F8000001F0
F8000001F0
FFFFFFFFF0
FFFFFFFFF0
FFFFFFFFF0
FFFFFFFFF0
F000000000
F800000000
F800000000
F800000000
78000003E0
7C000003E0
7E000007C0
3E00000FC0
1F00000F80
1F80001F80
0FE0007F00
07F801FE00
03FF0FFC00
01FFFFF800
007FFFE000
001FFF8000
0003FC0000
ENDCHAR
STARTCHAR 0116
ENCODING 278
SWIDTH 531 0
DWIDTH 34 0
BBX 26 58 5 0
BITMAP
003E0000
003E0000
003E0000
003E0000
003E0000
003E0000
003E0000
003E0000
00000000
00000000
00000000
FFFFFFC0
FFFFFFC0
FFFFFFC0
FFFFFFC0
F8000000
F8000000
F8000000
F8000000
F8000000
F8000000
F8000000
F8000000
F8000000
F8000000
F8000000
F8000000
F8000000
F8000000
F8000000
F8000000
F8000000
FFFFFF80
FFFFFF80
FFFFFF80
FFFFFF80
F8000000
F8000000
F8000000
F8000000
F8000000
F8000000
F8000000
F8000000
F8000000
F8000000
F8000000
F8000000
F8000000
F8000000
F8000000
F8000000
F8000000
F8000000
FFFFFFC0
FFFFFFC0
FFFFFFC0
FFFFFFC0
ENDCHAR
STARTCHAR 0117
ENCODING 279
SWIDTH 656 0
DWIDTH 42 0
BBX 36 48 3 -1
BITMAP
0001F00000
0001F00000
0001F00000
0001F00000
0001F00000
0001F00000
0001F00000
0001F00000
0000000000
0000000000
0000000000
0007FC0000
003FFF8000
00FFFFE000
01FFFFF800
03FF1FFC00
07F001FE00
0FE0007F00
1F80001F80
3F00000F80
3E000007C0
7E000007C0
7C000003E0
7C000003E0
F8000001E0
F8000001F0
F8000001F0
FFFFFFFFF0
FFFFFFFFF0
FFFFFFFFF0
FFFFFFFFF0
F000000000
F800000000
F800000000
F800000000
78000003E0
7C000003E0
7E000007C0
3E00000FC0
1F00000F80
1F80001F80
0FE0007F00
07F801FE00
03FF0FFC00
01FFFFF800
007FFFE000
001FFF8000
0003FC0000
ENDCHAR
STARTCHAR 0118
ENCODING 280
SWIDTH 531 0
DWIDTH 34 0
BBX 27 63 5 -16
BITMAP
FFFFFFC0
FFFFFFC0
FFFFFFC0
FFFFFFC0
F8000000
F8000000
F8000000
F8000000
F8000000
F8000000
F8000000
F8000000
F8000000
F8000000
F8000000
F8000000
F8000000
F8000000
F8000000
F8000000
F8000000
FFFFFF80
FFFFFF80
FFFFFF80
FFFFFF80
F8000000
F8000000
F8000000
F8000000
F8000000
F8000000
F8000000
F8000000
F8000000
F8000000
F8000000
F8000000
F8000000
F8000000
F8000000
F8000000
F8000000
F8000000
FFFFFFC0
FFFFFFC0
FFFFFFC0
FFFFFFC0
00000F80
00001F00
00003E00
00007C00
00007800
0000F800
0000F000
0000F000
0000F000
0000F800
0000F800
0000FFE0
00007FE0
00003FE0
00001FE0
000007E0
ENDCHAR
STARTCHAR 0119
ENCODING 281
SWIDTH 656 0
DWIDTH 42 0
BBX 36 52 3 -16
BITMAP
0007FC0000
003FFF8000
00FFFFE000
01FFFFF800
03FF1FFC00
07F001FE00
0FE0007F00
1F80001F80
3F00000F80
3E000007C0
7E000007C0
7C000003E0
7C000003E0
F8000001E0
F8000001F0
F8000001F0
FFFFFFFFF0
FFFFFFFFF0
FFFFFFFFF0
FFFFFFFFF0
F000000000
F800000000
F800000000
F800000000
78000003E0
7C000003E0
7E000007C0
3E00000FC0
1F00000F80
1F80001F80
0FE0007F00
07F801FE00
03FF0FFC00
01FFFFF800
007FFFE000
001FFF8000
0003FF0000
00003E0000
00007C0000
0000F80000
0001F00000
0001F00000
0001E00000
0003E00000
0003E00000
0001E00000
0001F00000
0001FF8000
0000FF8000
00007F8000
00003F8000
00001F8000
ENDCHAR
STARTCHAR 011A
ENCODING 282
SWIDTH 531 0
DWIDTH 34 0
BBX 26 58 5 0
BITMAP
3F003F00
1F80FC00
0FC1F800
07E3F000
01F7E000
00FFC000
007F8000
003E0000
00000000
00000000
00000000
FFFFFFC0
FFFFFFC0
FFFFFFC0
FFFFFFC0
F8000000
F8000000
F8000000
F8000000
F8000000
F8000000
F8000000
F8000000
F8000000
F8000000
F8000000
F8000000
F8000000
F8000000
F8000000
F8000000
F8000000
FFFFFF80
FFFFFF80
FFFFFF80
FFFFFF80
F8000000
F8000000
F8000000
F8000000
F8000000
F8000000
F8000000
F8000000
F8000000
F8000000
F8000000
F8000000
F8000000
F8000000
F8000000
F8000000
F8000000
F8000000
FFFFFFC0
FFFFFFC0
FFFFFFC0
FFFFFFC0
ENDCHAR
STARTCHAR 011B
ENCODING 283
SWIDTH 656 0
DWIDTH 42 0
BBX 36 48 3 -1
BITMAP
01F801F800
00FC03E000
007E0FC000
001F1F8000
000FFF0000
0007FE0000
0003FC0000
0001F80000
0000000000
0000000000
0000000000
0007FC0000
003FFF8000
00FFFFE000
01FFFFF800
03FF1FFC00
07F001FE00
0FE0007F00
1F80001F80
3F00000F80
3E000007C0
7E000007C0
7C000003E0
7C000003E0
F8000001E0
F8000001F0
F8000001F0
FFFFFFFFF0
FFFFFFFFF0
FFFFFFFFF0
FFFFFFFFF0
F000000000
F800000000
F800000000
F800000000
78000003E0
7C000003E0
7E000007C0
3E00000FC0
1F00000F80
1F80001F80
0FE0007F00
07F801FE00
03FF0FFC00
01FFFFF800
007FFFE000
001FFF8000
0003FC0000
ENDCHAR
STARTCHAR 011C
ENCODING 284
SWIDTH 875 0
DWIDTH 56 0
BBX 50 59 3 -1
BITMAP
000003F0000000
000007F8000000
00000FFC000000
00001FFE000000
00003F3F000000
0000FC0F800000
0001F807E00000
0003F003F00000
00000000000000
00000000000000
00000FFC000000
0000FFFFC00000
0007FFFFF00000
000FFFFFFC0000
003FFE1FFF0000
007FC000FF8000
00FF00001FC000
01FC00000FF000
03F0000003F000
07E0000001F800
0FC0000000FC00
1F800000007C00
1F000000007E00
3F000000000000
3E000000000000
7E000000000000
7C000000000000
7C000000000000
F8000000000000
F8000000000000
F8000000000000
F8000000000000
F8000000000000
F8000000000000
F8000000000000
F8000000000000
F8003FFFFFFFC0
F8003FFFFFFFC0
F8003FFFFFFFC0
F8003FFFFFFFC0
7C000000000F80
7C000000000F80
7C000000000F80
3E000000001F00
3E000000001F00
1F000000003F00
1F800000007E00
0F800000007C00
0FC0000000FC00
07E0000001F800
03F8000003F000
01FC00000FE000
00FF00003FC000
007FC000FF8000
003FFE0FFF0000
000FFFFFFC0000
0003FFFFF80000
00007FFFC00000
00000FFE000000
ENDCHAR
STARTCHAR 011D
ENCODING 285
SWIDTH 671 0
DWIDTH 43 0
BBX 36 61 3 -14
BITMAP
0001F00000
0003FC0000
0007FE0000
001FFF0000
003F1F8000
007E0FC000
00FC07E000
01F801F000
0000000000
0000000000
0000000000
0007FC0000
003FFF81F0
00FFFFE1F0
01FFFFF1F0
03FF0FF9F0
07F001FDF0
0FC0007FF0
1F80001FF0
3F00000FF0
3E00000FF0
7E000007F0
7C000003F0
7C000003F0
F8000001F0
F8000001F0
F8000001F0
F8000001F0
F8000001F0
F0000001F0
F8000001F0
F8000001F0
F8000001F0
F8000001F0
F8000003F0
7C000003F0
7C000007F0
7E000007F0
3E00000FF0
3F00001FF0
1F80003FF0
0FE0007DF0
07F001FDF0
03FF0FF9F0
01FFFFF1F0
007FFFE1F0
001FFF81F0
0003FC01F0
7C000003E0
7C000003E0
3E000003E0
3F000007E0
1F00000FC0
1F80001FC0
0FE0003F80
07F000FF00
03FF07FE00
01FFFFFC00
007FFFF000
001FFFE000
0007FE0000
ENDCHAR
STARTCHAR 011E
ENCODING 286
SWIDTH 875 0
DWIDTH 56 0
BBX 50 59 3 -1
BITMAP
0001E003E00000
0000F003C00000
0000F007C00000
0000FC0F800000
00007FFF800000
00003FFF000000
00001FFE000000
000003F0000000
00000000000000
00000000000000
00000FFC000000
0000FFFFC00000
0007FFFFF00000
000FFFFFFC0000
003FFE1FFF0000
007FC000FF8000
00FF00001FC000
01FC00000FF000
03F0000003F000
07E0000001F800
0FC0000000FC00
1F800000007C00
1F000000007E00
3F000000000000
3E000000000000
7E000000000000
7C000000000000
7C000000000000
F8000000000000
F8000000000000
F8000000000000
F8000000000000
F8000000000000
F8000000000000
F8000000000000
F8000000000000
F8003FFFFFFFC0
F8003FFFFFFFC0
F8003FFFFFFFC0
F8003FFFFFFFC0
7C000000000F80
7C000000000F80
7C000000000F80
3E000000001F00
3E000000001F00
1F000000003F00
1F800000007E00
0F800000007C00
0FC0000000FC00
07E0000001F800
03F8000003F000
01FC00000FE000
00FF00003FC000
007FC000FF8000
003FFE0FFF0000
000FFFFFFC0000
0003FFFFF80000
00007FFFC00000
00000FFE000000
ENDCHAR
STARTCHAR 011F
ENCODING 287
SWIDTH 671 0
DWIDTH 43 0
BBX 36 61 3 -14
BITMAP
00F001E000
00F001E000
00F803E000
007E0FC000
003FFF8000
001FFF8000
000FFE0000
0001F00000
0000000000
0000000000
0000000000
0007FC0000
003FFF81F0
00FFFFE1F0
01FFFFF1F0
03FF0FF9F0
07F001FDF0
0FC0007FF0
1F80001FF0
3F00000FF0
3E00000FF0
7E000007F0
7C000003F0
7C000003F0
F8000001F0
F8000001F0
F8000001F0
F8000001F0
F8000001F0
F0000001F0
F8000001F0
F8000001F0
F8000001F0
F8000001F0
F8000003F0
7C000003F0
7C000007F0
7E000007F0
3E00000FF0
3F00001FF0
1F80003FF0
0FE0007DF0
07F001FDF0
03FF0FF9F0
01FFFFF1F0
007FFFE1F0
001FFF81F0
0003FC01F0
7C000003E0
7C000003E0
3E000003E0
3F000007E0
1F00000FC0
1F80001FC0
0FE0003F80
07F000FF00
03FF07FE00
01FFFFFC00
007FFFF000
001FFFE000
0007FE0000
ENDCHAR
STARTCHAR 0120
ENCODING 288
SWIDTH 875 0
DWIDTH 56 0
BBX 50 59 3 -1
BITMAP
000001E0000000
000001E0000000
000001E0000000
000001E0000000
000001E0000000
000001E0000000
000001E0000000
000001E0000000
00000000000000
00000000000000
00000FFC000000
0000FFFFC00000
0007FFFFF00000
000FFFFFFC0000
003FFE1FFF0000
007FC000FF8000
00FF00001FC000
01FC00000FF000
03F0000003F000
07E0000001F800
0FC0000000FC00
1F800000007C00
1F000000007E00
3F000000000000
3E000000000000
7E000000000000
7C000000000000
7C000000000000
F8000000000000
F8000000000000
F8000000000000
F8000000000000
F8000000000000
F8000000000000
F8000000000000
F8000000000000
F8003FFFFFFFC0
F8003FFFFFFFC0
F8003FFFFFFFC0
F8003FFFFFFFC0
7C000000000F80
7C000000000F80
7C000000000F80
3E000000001F00
3E000000001F00
1F000000003F00
1F800000007E00
0F800000007C00
0FC0000000FC00
07E0000001F800
03F8000003F000
01FC00000FE000
00FF00003FC000
007FC000FF8000
003FFE0FFF0000
000FFFFFFC0000
0003FFFFF80000
00007FFFC00000
00000FFE000000
ENDCHAR
STARTCHAR 0121
ENCODING 289
SWIDTH 671 0
DWIDTH 43 0
BBX 36 61 3 -14
BITMAP
0001F00000
0001F00000
0001F00000
0001F00000
0001F00000
0001F00000
0001F00000
0001F00000
0000000000
0000000000
0000000000
0007FC0000
003FFF81F0
00FFFFE1F0
01FFFFF1F0
03FF0FF9F0
07F001FDF0
0FC0007FF0
1F80001FF0
3F00000FF0
3E00000FF0
7E000007F0
7C000003F0
7C000003F0
F8000001F0
F8000001F0
F8000001F0
F8000001F0
F8000001F0
F0000001F0
F8000001F0
F8000001F0
F8000001F0
F8000001F0
F8000003F0
7C000003F0
7C000007F0
7E000007F0
3E00000FF0
3F00001FF0
1F80003FF0
0FE0007DF0
07F001FDF0
03FF0FF9F0
01FFFFF1F0
007FFFE1F0
001FFF81F0
0003FC01F0
7C000003E0
7C000003E0
3E000003E0
3F000007E0
1F00000FC0
1F80001FC0
0FE0003F80
07F000FF00
03FF07FE00
01FFFFFC00
007FFFF000
001FFFE000
0007FE0000
ENDCHAR
STARTCHAR 0122
ENCODING 290
SWIDTH 875 0
DWIDTH 56 0
BBX 50 63 3 -15
BITMAP
00000FFC000000
0000FFFFC00000
0007FFFFF00000
000FFFFFFC0000
003FFE1FFF0000
007FC000FF8000
00FF00001FC000
01FC00000FF000
03F0000003F000
07E0000001F800
0FC0000000FC00
1F800000007C00
1F000000007E00
3F000000000000
3E000000000000
7E000000000000
7C000000000000
7C000000000000
F8000000000000
F8000000000000
F8000000000000
F8000000000000
F8000000000000
F8000000000000
F8000000000000
F8000000000000
F8003FFFFFFFC0
F8003FFFFFFFC0
F8003FFFFFFFC0
F8003FFFFFFFC0
7C000000000F80
7C000000000F80
7C000000000F80
3E000000001F00
3E000000001F00
1F000000003F00
1F800000007E00
0F800000007C00
0FC0000000FC00
07E0000001F800
03F8000003F000
01FC00000FE000
00FF00003FC000
007FC000FF8000
003FFE0FFF0000
000FFFFFFC0000
0003FFFFF80000
00007FFFC00000
00000FFE000000
00000000000000
00000000000000
00000000000000
000001F0000000
000001F0000000
000001E0000000
000003E0000000
000003E0000000
000003C0000000
000007C0000000
000007C0000000
000007C0000000
00000780000000
00000F80000000
ENDCHAR
STARTCHAR 0123
ENCODING 291
SWIDTH 671 0
DWIDTH 43 0
BBX 36 65 3 -14
BITMAP
0000780000
0000F80000
0000F80000
0000F80000
0000F00000
0001F00000
0001F00000
0001E00000
0003E00000
0003E00000
0003E00000
0000000000
0000000000
0000000000
0000000000
0007FC0000
003FFF81F0
00FFFFE1F0
01FFFFF1F0
03FF0FF9F0
07F001FDF0
0FC0007FF0
1F80001FF0
3F00000FF0
3E00000FF0
7E000007F0
7C000003F0
7C000003F0
F8000001F0
F8000001F0
F8000001F0
F8000001F0
F8000001F0
F0000001F0
F8000001F0
F8000001F0
F8000001F0
F8000001F0
F8000003F0
7C000003F0
7C000007F0
7E000007F0
3E00000FF0
3F00001FF0
1F80003FF0
0FE0007DF0
07F001FDF0
03FF0FF9F0
01FFFFF1F0
007FFFE1F0
001FFF81F0
0003FC01F0
7C000003E0
7C000003E0
3E000003E0
3F000007E0
1F00000FC0
1F80001FC0
0FE0003F80
07F000FF00
03FF07FE00
01FFFFFC00
007FFFF000
001FFFE000
0007FE0000
ENDCHAR
STARTCHAR 0124
ENCODING 292
SWIDTH 687 0
DWIDTH 44 0
BBX 34 58 5 0
BITMAP
0003F00000
0007F80000
000FFC0000
001FFE0000
003F3F0000
00FC0F8000
01F807E000
03F003F000
0000000000
0000000000
0000000000
F8000007C0
F8000007C0
F8000007C0
F8000007C0
F8000007C0
F8000007C0
F8000007C0
F8000007C0
F8000007C0
F8000007C0
F8000007C0
F8000007C0
F8000007C0
F8000007C0
F8000007C0
F8000007C0
F8000007C0
F8000007C0
F8000007C0
F8000007C0
F8000007C0
FFFFFFFFC0
FFFFFFFFC0
FFFFFFFFC0
FFFFFFFFC0
F8000007C0
F8000007C0
F8000007C0
F8000007C0
F8000007C0
F8000007C0
F8000007C0
F8000007C0
F8000007C0
F8000007C0
F8000007C0
F8000007C0
F8000007C0
F8000007C0
F8000007C0
F8000007C0
F8000007C0
F8000007C0
F8000007C0
F8000007C0
F8000007C0
F8000007C0
ENDCHAR
STARTCHAR 0125
ENCODING 293
SWIDTH 609 0
DWIDTH 39 0
BBX 31 58 4 0
BITMAP
0007C000
000FE000
001FF800
007EFC00
00FC7E00
01F83F00
03F01F80
07E007C0
00000000
00000000
00000000
F8000000
F8000000
F8000000
F8000000
F8000000
F8000000
F8000000
F8000000
F8000000
F8000000
F8000000
F80FF000
F87FFE00
F9FFFF80
FBFFFFC0
FFFC3FE0
FFC007F0
FF8003F8
FF0001F8
FE0000FC
FC00007C
FC00007C
F800007C
F800003E
F800003E
F800003E
F800003E
F800003E
F800003E
F800003E
F800003E
F800003E
F800003E
F800003E
F800003E
F800003E
F800003E
F800003E
F800003E
F800003E
F800003E
F800003E
F800003E
F800003E
F800003E
F800003E
F800003E
ENDCHAR
STARTCHAR 0126
ENCODING 294
SWIDTH 687 0
DWIDTH 44 0
BBX 42 47 1 0
BITMAP
0F8000007C00
0F8000007C00
0F8000007C00
0F8000007C00
0F8000007C00
0F8000007C00
0F8000007C00
FFFFFFFFFFC0
FFFFFFFFFFC0
FFFFFFFFFFC0
FFFFFFFFFFC0
0F8000007C00
0F8000007C00
0F8000007C00
0F8000007C00
0F8000007C00
0F8000007C00
0F8000007C00
0F8000007C00
0F8000007C00
0F8000007C00
0FFFFFFFFC00
0FFFFFFFFC00
0FFFFFFFFC00
0FFFFFFFFC00
0F8000007C00
0F8000007C00
0F8000007C00
0F8000007C00
0F8000007C00
0F8000007C00
0F8000007C00
0F8000007C00
0F8000007C00
0F8000007C00
0F8000007C00
0F8000007C00
0F8000007C00
0F8000007C00
0F8000007C00
0F8000007C00
0F8000007C00
0F8000007C00
0F8000007C00
0F8000007C00
0F8000007C00
0F8000007C00
ENDCHAR
STARTCHAR 0127
ENCODING 295
SWIDTH 609 0
DWIDTH 39 0
BBX 34 47 1 0
BITMAP
1F00000000
1F00000000
1F00000000
1F00000000
FFFC000000
FFFC000000
FFFC000000
FFFC000000
1F00000000
1F00000000
1F00000000
1F01FE0000
1F0FFFC000
1F3FFFF000
1F7FFFF800
1FFF8FFC00
1FF801FE00
1FF0007F00
1FE0003F00
1FC0001F80
1F80000F80
1F80000F80
1F00000780
1F000007C0
1F000007C0
1F000007C0
1F000007C0
1F000007C0
1F000007C0
1F000007C0
1F000007C0
1F000007C0
1F000007C0
1F000007C0
1F000007C0
1F000007C0
1F000007C0
1F000007C0
1F000007C0
1F000007C0
1F000007C0
1F000007C0
1F000007C0
1F000007C0
1F000007C0
1F000007C0
1F000007C0
ENDCHAR
STARTCHAR 0128
ENCODING 296
SWIDTH 218 0
DWIDTH 14 0
BBX 18 57 -2 0
BITMAP
1F0080
3FE3C0
FFFFC0
FFFFC0
70FF80
201E00
000000
000000
000000
000000
01F000
01F000
01F000
01F000
01F000
01F000
01F000
01F000
01F000
01F000
01F000
01F000
01F000
01F000
01F000
01F000
01F000
01F000
01F000
01F000
01F000
01F000
01F000
01F000
01F000
01F000
01F000
01F000
01F000
01F000
01F000
01F000
01F000
01F000
01F000
01F000
01F000
01F000
01F000
01F000
01F000
01F000
01F000
01F000
01F000
01F000
01F000
ENDCHAR
STARTCHAR 0129
ENCODING 297
SWIDTH 203 0
DWIDTH 13 0
BBX 18 46 -3 0
BITMAP
1F0080
3FE1C0
7FFFC0
FFFFC0
70FF80
203F00
000000
000000
000000
000000
000000
01F000
01F000
01F000
01F000
01F000
01F000
01F000
01F000
01F000
01F000
01F000
01F000
01F000
01F000
01F000
01F000
01F000
01F000
01F000
01F000
01F000
01F000
01F000
01F000
01F000
01F000
01F000
01F000
01F000
01F000
01F000
01F000
01F000
01F000
01F000
ENDCHAR
STARTCHAR 012A
ENCODING 298
SWIDTH 218 0
DWIDTH 14 0
BBX 22 56 -4 0
BITMAP
FFFFFC
FFFFFC
FFFFFC
FFFFFC
000000
000000
000000
000000
000000
007C00
007C00
007C00
007C00
007C00
007C00
007C00
007C00
007C00
007C00
007C00
007C00
007C00
007C00
007C00
007C00
007C00
007C00
007C00
007C00
007C00
007C00
007C00
007C00
007C00
007C00
007C00
007C00
007C00
007C00
007C00
007C00
007C00
007C00
007C00
007C00
007C00
007C00
007C00
007C00
007C00
007C00
007C00
007C00
007C00
007C00
007C00
ENDCHAR
STARTCHAR 012B
ENCODING 299
SWIDTH 203 0
DWIDTH 13 0
BBX 21 45 -4 0
BITMAP
FFFFF8
FFFFF8
FFFFF8
FFFFF8
000000
000000
000000
000000
000000
000000
00F800
00F800
00F800
00F800
00F800
00F800
00F800
00F800
00F800
00F800
00F800
00F800
00F800
00F800
00F800
00F800
00F800
00F800
00F800
00F800
00F800
00F800
00F800
00F800
00F800
00F800
00F800
00F800
00F800
00F800
00F800
00F800
00F800
00F800
00F800
ENDCHAR
STARTCHAR 012C
ENCODING 300
SWIDTH 218 0
DWIDTH 14 0
BBX 19 58 -2 0
BITMAP
F001E0
F003E0
F803C0
7C0FC0
7FFF80
3FFF00
0FFE00
01F000
000000
000000
000000
01F000
01F000
01F000
01F000
01F000
01F000
01F000
01F000
01F000
01F000
01F000
01F000
01F000
01F000
01F000
01F000
01F000
01F000
01F000
01F000
01F000
01F000
01F000
01F000
01F000
01F000
01F000
01F000
01F000
01F000
01F000
01F000
01F000
01F000
01F000
01F000
01F000
01F000
01F000
01F000
01F000
01F000
01F000
01F000
01F000
01F000
01F000
ENDCHAR
STARTCHAR 012D
ENCODING 301
SWIDTH 203 0
DWIDTH 13 0
BBX 19 47 -3 0
BITMAP
F001E0
F003E0
F803C0
7C07C0
7FFF80
3FFF80
1FFE00
07F800
000000
000000
000000
000000
01F000
01F000
01F000
01F000
01F000
01F000
01F000
01F000
01F000
01F000
01F000
01F000
01F000
01F000
01F000
01F000
01F000
01F000
01F000
01F000
01F000
01F000
01F000
01F000
01F000
01F000
01F000
01F000
01F000
01F000
01F000
01F000
01F000
01F000
01F000
ENDCHAR
STARTCHAR 012E
ENCODING 302
SWIDTH 218 0
DWIDTH 14 0
BBX 11 63 -1 -16
BITMAP
03E0
03E0
03E0
03E0
03E0
03E0
03E0
03E0
03E0
03E0
03E0
03E0
03E0
03E0
03E0
03E0
03E0
03E0
03E0
03E0
03E0
03E0
03E0
03E0
03E0
03E0
03E0
03E0
03E0
03E0
03E0
03E0
03E0
03E0
03E0
03E0
03E0
03E0
03E0
03E0
03E0
03E0
03E0
03E0
03E0
03E0
03E0
07C0
0F80
1E00
3E00
7C00
7C00
7800
F800
F800
7C00
7C00
7FE0
3FE0
1FE0
0FE0
03E0
ENDCHAR
STARTCHAR 012F
ENCODING 303
SWIDTH 203 0
DWIDTH 13 0
BBX 11 63 -1 -16
BITMAP
07C0
07C0
07C0
07C0
07C0
07C0
07C0
07C0
0000
0000
0000
0000
07C0
07C0
07C0
07C0
07C0
07C0
07C0
07C0
07C0
07C0
07C0
07C0
07C0
07C0
07C0
07C0
07C0
07C0
07C0
07C0
07C0
07C0
07C0
07C0
07C0
07C0
07C0
07C0
07C0
07C0
07C0
07C0
07C0
07C0
07C0
0F80
1F00
3E00
7C00
7800
F800
F800
F000
F000
F800
F800
FFE0
7FE0
3FE0
1FE0
07E0
ENDCHAR
STARTCHAR 0130
ENCODING 304
SWIDTH 218 0
DWIDTH 14 0
BBX 5 58 5 0
BITMAP
F8
F8
F8
F8
F8
F8
F8
F8
00
00
00
F8
F8
F8
F8
F8
F8
F8
F8
F8
F8
F8
F8
F8
F8
F8
F8
F8
F8
F8
F8
F8
F8
F8
F8
F8
F8
F8
F8
F8
F8
F8
F8
F8
F8
F8
F8
F8
F8
F8
F8
F8
F8
F8
F8
F8
F8
F8
ENDCHAR
STARTCHAR 0131
ENCODING 305
SWIDTH 203 0
DWIDTH 13 0
BBX 5 35 4 0
BITMAP
F8
F8
F8
F8
F8
F8
F8
F8
F8
F8
F8
F8
F8
F8
F8
F8
F8
F8
F8
F8
F8
F8
F8
F8
F8
F8
F8
F8
F8
F8
F8
F8
F8
F8
F8
ENDCHAR
STARTCHAR 0132
ENCODING 306
SWIDTH 671 0
DWIDTH 43 0
BBX 35 48 4 -1
BITMAP
F8000003E0
F8000003E0
F8000003E0
F8000003E0
F8000003E0
F8000003E0
F8000003E0
F8000003E0
F8000003E0
F8000003E0
F8000003E0
F8000003E0
F8000003E0
F8000003E0
F8000003E0
F8000003E0
F8000003E0
F8000003E0
F8000003E0
F8000003E0
F8000003E0
F8000003E0
F8000003E0
F8000003E0
F8000003E0
F8000003E0
F8000003E0
F8000003E0
F8000003E0
F8000003E0
F8000003E0
F8000003E0
F8000003E0
F8000003E0
F8000003E0
F8000003E0
F83C0003C0
F83C0007C0
F83E0007C0
F83E0007C0
F83F000FC0
F81F001F80
F81FC03F80
F80FF0FF00
F807FFFE00
F803FFFC00
F800FFF800
00003FC000
ENDCHAR
STARTCHAR 0133
ENCODING 307
SWIDTH 406 0
DWIDTH 26 0
BBX 18 59 4 -12
BITMAP
F807C0
F807C0
F807C0
F807C0
F807C0
F807C0
F807C0
F807C0
000000
000000
000000
000000
F807C0
F807C0
F807C0
F807C0
F807C0
F807C0
F807C0
F807C0
F807C0
F807C0
F807C0
F807C0
F807C0
F807C0
F807C0
F807C0
F807C0
F807C0
F807C0
F807C0
F807C0
F807C0
F807C0
F807C0
F807C0
F807C0
F807C0
F807C0
F807C0
F807C0
F807C0
F807C0
F807C0
F807C0
F807C0
0007C0
0007C0
000780
000F80
000F80
001F80
003F00
00FF00
03FE00
03FC00
03F800
03E000
ENDCHAR
STARTCHAR 0134
ENCODING 308
SWIDTH 484 0
DWIDTH 31 0
BBX 33 59 1 -1
BITMAP
00000F8000
00001FE000
00003FF000
0000FFF800
0001F8FC00
0003F07E00
0007E03F00
000FC00F80
0000000000
0000000000
0000000000
00000F8000
00000F8000
00000F8000
00000F8000
00000F8000
00000F8000
00000F8000
00000F8000
00000F8000
00000F8000
00000F8000
00000F8000
00000F8000
00000F8000
00000F8000
00000F8000
00000F8000
00000F8000
00000F8000
00000F8000
00000F8000
00000F8000
00000F8000
00000F8000
00000F8000
00000F8000
00000F8000
00000F8000
00000F8000
00000F8000
00000F8000
00000F8000
00000F8000
00000F8000
00000F8000
00000F8000
F0000F8000
F8000F8000
F8001F0000
F8001F0000
7C003F0000
7E003E0000
7F00FE0000
3FE3FC0000
1FFFF80000
0FFFF00000
03FFE00000
00FF000000
ENDCHAR
STARTCHAR 0135
ENCODING 309
SWIDTH 203 0
DWIDTH 13 0
BBX 21 59 -4 -12
BITMAP
00F800
01FC00
03FF00
0FFF80
1F8FC0
3F07E0
7E03F0
FC00F8
000000
000000
000000
000000
00F800
00F800
00F800
00F800
00F800
00F800
00F800
00F800
00F800
00F800
00F800
00F800
00F800
00F800
00F800
00F800
00F800
00F800
00F800
00F800
00F800
00F800
00F800
00F800
00F800
00F800
00F800
00F800
00F800
00F800
00F800
00F800
00F800
00F800
00F800
00F800
00F800
00F800
01F000
01F000
03F000
07E000
1FE000
7FC000
7F8000
7F0000
7C0000
ENDCHAR
STARTCHAR 0136
ENCODING 310
SWIDTH 593 0
DWIDTH 38 0
BBX 32 61 5 -14
BITMAP
F800003F
F800007E
F80000FC
F80000FC
F80001F8
F80003F0
F80007E0
F8000FC0
F8000FC0
F8001F80
F8003F00
F8007E00
F800FC00
F800F800
F801F800
F803F000
F807E000
F80FC000
F81F8000
F81F8000
F83F0000
F87E0000
F8FC0000
F9FC0000
F9FE0000
FBFF0000
FFFF8000
FFDF8000
FF8FC000
FF07E000
FF03F000
FE03F000
FC01F800
F800FC00
F8007E00
F8003F00
F8003F00
F8001F80
F8000FC0
F80007E0
F80007E0
F80003F0
F80001F8
F80000FC
F800007E
F800007E
F800003F
00000000
00000000
00000000
0003C000
0007C000
0007C000
0007C000
00078000
000F8000
000F8000
000F8000
001F0000
001F0000
001F0000
ENDCHAR
STARTCHAR 0137
ENCODING 311
SWIDTH 500 0
DWIDTH 32 0
BBX 27 61 4 -14
BITMAP
F8000000
F8000000
F8000000
F8000000
F8000000
F8000000
F8000000
F8000000
F8000000
F8000000
F8000000
F8000000
F80007E0
F8000FC0
F8001F80
F8003F00
F8003E00
F8007E00
F800FC00
F801F800
F801F000
F803F000
F807E000
F80FC000
F81F8000
F81F0000
F83F0000
F87E0000
F8FC0000
F8F80000
F9FC0000
FBFE0000
FFFF0000
FFDF8000
FF9F8000
FF0FC000
FE07E000
FE03F000
FC01F800
F800FC00
F800FC00
F8007E00
F8003F00
F8001F80
F8000FC0
F80007E0
F80007E0
00000000
00000000
00000000
000F0000
001F0000
001F0000
001E0000
003E0000
003E0000
003E0000
003C0000
007C0000
007C0000
00780000
ENDCHAR
STARTCHAR 0139
ENCODING 313
SWIDTH 468 0
DWIDTH 30 0
BBX 26 60 3 0
BITMAP
00100000
00380000
00FC0000
03FC0000
07F80000
1FE00000
7FC00000
FF000000
FC000000
70000000
20000000
00000000
00000000
3E000000
3E000000
3E000000
3E000000
3E000000
3E000000
3E000000
3E000000
3E000000
3E000000
3E000000
3E000000
3E000000
3E000000
3E000000
3E000000
3E000000
3E000000
3E000000
3E000000
3E000000
3E000000
3E000000
3E000000
3E000000
3E000000
3E000000
3E000000
3E000000
3E000000
3E000000
3E000000
3E000000
3E000000
3E000000
3E000000
3E000000
3E000000
3E000000
3E000000
3E000000
3E000000
3E000000
3FFFFFC0
3FFFFFC0
3FFFFFC0
3FFFFFC0
ENDCHAR
STARTCHAR 013A
ENCODING 314
SWIDTH 203 0
DWIDTH 13 0
BBX 14 60 2 0
BITMAP
0018
0038
00FC
03FC
07F8
1FE0
7FC0
FF00
FC00
7800
2000
0000
0000
3E00
3E00
3E00
3E00
3E00
3E00
3E00
3E00
3E00
3E00
3E00
3E00
3E00
3E00
3E00
3E00
3E00
3E00
3E00
3E00
3E00
3E00
3E00
3E00
3E00
3E00
3E00
3E00
3E00
3E00
3E00
3E00
3E00
3E00
3E00
3E00
3E00
3E00
3E00
3E00
3E00
3E00
3E00
3E00
3E00
3E00
3E00
ENDCHAR
STARTCHAR 013B
ENCODING 315
SWIDTH 468 0
DWIDTH 30 0
BBX 24 61 5 -14
BITMAP
F80000
F80000
F80000
F80000
F80000
F80000
F80000
F80000
F80000
F80000
F80000
F80000
F80000
F80000
F80000
F80000
F80000
F80000
F80000
F80000
F80000
F80000
F80000
F80000
F80000
F80000
F80000
F80000
F80000
F80000
F80000
F80000
F80000
F80000
F80000
F80000
F80000
F80000
F80000
F80000
F80000
F80000
F80000
FFFFFF
FFFFFF
FFFFFF
FFFFFF
000000
000000
000000
003E00
003E00
003C00
007C00
007C00
007C00
007800
00F800
00F800
00F000
01F000
ENDCHAR
STARTCHAR 013C
ENCODING 316
SWIDTH 203 0
DWIDTH 13 0
BBX 7 61 2 -14
BITMAP
3E
3E
3E
3E
3E
3E
3E
3E
3E
3E
3E
3E
3E
3E
3E
3E
3E
3E
3E
3E
3E
3E
3E
3E
3E
3E
3E
3E
3E
3E
3E
3E
3E
3E
3E
3E
3E
3E
3E
3E
3E
3E
3E
3E
3E
3E
3E
00
00
00
1E
3E
3E
3C
7C
7C
7C
78
F8
F8
F8
ENDCHAR
STARTCHAR 013D
ENCODING 317
SWIDTH 468 0
DWIDTH 30 0
BBX 24 47 5 0
BITMAP
F80F00
F81F00
F81F00
F81E00
F83E00
F83E00
F83E00
F83C00
F87C00
F87C00
F87C00
F80000
F80000
F80000
F80000
F80000
F80000
F80000
F80000
F80000
F80000
F80000
F80000
F80000
F80000
F80000
F80000
F80000
F80000
F80000
F80000
F80000
F80000
F80000
F80000
F80000
F80000
F80000
F80000
F80000
F80000
F80000
F80000
FFFFFF
FFFFFF
FFFFFF
FFFFFF
ENDCHAR
STARTCHAR 013E
ENCODING 318
SWIDTH 203 0
DWIDTH 13 0
BBX 16 47 4 0
BITMAP
F80F
F81F
F81F
F81F
F81E
F83E
F83E
F83E
F87C
F87C
F87C
F800
F800
F800
F800
F800
F800
F800
F800
F800
F800
F800
F800
F800
F800
F800
F800
F800
F800
F800
F800
F800
F800
F800
F800
F800
F800
F800
F800
F800
F800
F800
F800
F800
F800
F800
F800
ENDCHAR
STARTCHAR 013F
ENCODING 319
SWIDTH 468 0
DWIDTH 30 0
BBX 24 47 5 0
BITMAP
F80000
F80000
F80000
F80000
F80000
F80000
F80000
F80000
F80000
F80000
F80000
F80000
F80000
F80000
F80000
F80000
F80000
F80000
F80000
F801E0
F801E0
F801E0
F801E0
F801E0
F801E0
F801E0
F801E0
F80000
F80000
F80000
F80000
F80000
F80000
F80000
F80000
F80000
F80000
F80000
F80000
F80000
F80000
F80000
F80000
FFFFFF
FFFFFF
FFFFFF
FFFFFF
ENDCHAR
STARTCHAR 0140
ENCODING 320
SWIDTH 281 0
DWIDTH 18 0
BBX 14 47 4 0
BITMAP
F800
F800
F800
F800
F800
F800
F800
F800
F800
F800
F800
F800
F800
F800
F800
F800
F800
F800
F800
F87C
F87C
F87C
F87C
F87C
F87C
F87C
F87C
F800
F800
F800
F800
F800
F800
F800
F800
F800
F800
F800
F800
F800
F800
F800
F800
F800
F800
F800
F800
ENDCHAR
STARTCHAR 0141
ENCODING 321
SWIDTH 515 0
DWIDTH 33 0
BBX 30 47 2 0
BITMAP
03E00000
03E00000
03E00000
03E00000
03E00000
03E00000
03E00000
03E00000
03E00000
03E00000
03E00000
03E00800
03E01800
03E03800
03E0F800
03E1F800
03E3F000
03E7E000
03FFC000
03FF8000
03FE0000
03FC0000
03F80000
0FF00000
1FE00000
3FE00000
7FE00000
FFE00000
FBE00000
F3E00000
C3E00000
83E00000
03E00000
03E00000
03E00000
03E00000
03E00000
03E00000
03E00000
03E00000
03E00000
03E00000
03E00000
03FFFFFC
03FFFFFC
03FFFFFC
03FFFFFC
ENDCHAR
STARTCHAR 0142
ENCODING 322
SWIDTH 296 0
DWIDTH 19 0
BBX 15 47 2 0
BITMAP
07C0
07C0
07C0
07C0
07C0
07C0
07C0
07C0
07C0
07C0
07C0
07C0
07C0
07C0
07C0
07C2
07C6
07DE
07FE
07FE
07FC
0FF0
3FE0
7FC0
FFC0
FFC0
E7C0
C7C0
07C0
07C0
07C0
07C0
07C0
07C0
07C0
07C0
07C0
07C0
07C0
07C0
07C0
07C0
07C0
07C0
07C0
07C0
07C0
ENDCHAR
STARTCHAR 0143
ENCODING 323
SWIDTH 734 0
DWIDTH 47 0
BBX 37 60 5 0
BITMAP
0000004000
000000E000
000003F000
00000FF000
00001FE000
00007F8000
0001FF0000
0003FC0000
0003F00000
0001E00000
0000800000
0000000000
0000000000
FE00000078
FE00000078
FF00000078
FF80000078
FF80000078
FFC0000078
FFE0000078
FBE0000078
F9F0000078
F9F8000078
F8F8000078
F87C000078
F87E000078
F83E000078
F81F000078
F81F800078
F80F800078
F807C00078
F807E00078
F803F00078
F801F00078
F801F80078
F800FC0078
F8007C0078
F8007E0078
F8003F0078
F8001F0078
F8001F8078
F8000FC078
F80007C078
F80007E078
F80003F078
F80001F078
F80000F878
F80000FC78
F800007C78
F800003E78
F800003F78
F800001F78
F800000FF8
F800000FF8
F8000007F8
F8000003F8
F8000003F8
F8000001F8
F8000000F8
F8000000F8
ENDCHAR
STARTCHAR 0144
ENCODING 324
SWIDTH 609 0
DWIDTH 39 0
BBX 31 49 4 0
BITMAP
00000200
00000F00
00001F00
00007F80
0001FF00
0003FC00
000FF000
001FE000
001F8000
000E0000
00040000
00000000
00000000
000FF000
F87FFE00
F8FFFF80
F9FFFFC0
FFFFFFE0
FFE007F0
FF8003F8
FF0001F8
FE0000F8
FC00007C
FC00007C
F800007C
F800003E
F800003E
F800003E
F800003E
F800003E
F800003E
F800003E
F800003E
F800003E
F800003E
F800003E
F800003E
F800003E
F800003E
F800003E
F800003E
F800003E
F800003E
F800003E
F800003E
F800003E
F800003E
F800003E
F800003E
ENDCHAR
STARTCHAR 0145
ENCODING 325
SWIDTH 734 0
DWIDTH 47 0
BBX 37 61 5 -14
BITMAP
FE00000078
FE00000078
FF00000078
FF80000078
FF80000078
FFC0000078
FFE0000078
FBE0000078
F9F0000078
F9F8000078
F8F8000078
F87C000078
F87E000078
F83E000078
F81F000078
F81F800078
F80F800078
F807C00078
F807E00078
F803F00078
F801F00078
F801F80078
F800FC0078
F8007C0078
F8007E0078
F8003F0078
F8001F0078
F8001F8078
F8000FC078
F80007C078
F80007E078
F80003F078
F80001F078
F80000F878
F80000FC78
F800007C78
F800003E78
F800003F78
F800001F78
F800000FF8
F800000FF8
F8000007F8
F8000003F8
F8000003F8
F8000001F8
F8000000F8
F8000000F8
0000000000
0000000000
0000000000
00007C0000
0000780000
0000F80000
0000F80000
0000F00000
0001F00000
0001F00000
0001F00000
0001E00000
0003E00000
0003E00000
ENDCHAR
STARTCHAR 0146
ENCODING 326
SWIDTH 609 0
DWIDTH 39 0
BBX 31 50 4 -14
BITMAP
000FF000
F87FFE00
F8FFFF80
F9FFFFC0
FFFFFFE0
FFE007F0
FF8003F8
FF0001F8
FE0000F8
FC00007C
FC00007C
F800007C
F800003E
F800003E
F800003E
F800003E
F800003E
F800003E
F800003E
F800003E
F800003E
F800003E
F800003E
F800003E
F800003E
F800003E
F800003E
F800003E
F800003E
F800003E
F800003E
F800003E
F800003E
F800003E
F800003E
F800003E
00000000
00000000
00000000
0003C000
0007C000
0007C000
0007C000
00078000
000F8000
000F8000
000F0000
001F0000
001F0000
001F0000
ENDCHAR
STARTCHAR 0147
ENCODING 327
SWIDTH 734 0
DWIDTH 47 0
BBX 37 58 5 0
BITMAP
00FC00F800
007E03F000
003F07E000
001F8FC000
000FDF8000
0003FF0000
0001FC0000
0000F80000
0000000000
0000000000
0000000000
FE00000078
FE00000078
FF00000078
FF80000078
FF80000078
FFC0000078
FFE0000078
FBE0000078
F9F0000078
F9F8000078
F8F8000078
F87C000078
F87E000078
F83E000078
F81F000078
F81F800078
F80F800078
F807C00078
F807E00078
F803F00078
F801F00078
F801F80078
F800FC0078
F8007C0078
F8007E0078
F8003F0078
F8001F0078
F8001F8078
F8000FC078
F80007C078
F80007E078
F80003F078
F80001F078
F80000F878
F80000FC78
F800007C78
F800003E78
F800003F78
F800001F78
F800000FF8
F800000FF8
F8000007F8
F8000003F8
F8000003F8
F8000001F8
F8000000F8
F8000000F8
ENDCHAR
STARTCHAR 0148
ENCODING 328
SWIDTH 609 0
DWIDTH 39 0
BBX 31 47 4 0
BITMAP
07C00FC0
03F01F80
01F83F00
00FC7E00
007EFC00
003FF000
000FE000
0007C000
00000000
00000000
00000000
000FF000
F87FFE00
F8FFFF80
F9FFFFC0
FFFFFFE0
FFE007F0
FF8003F8
FF0001F8
FE0000F8
FC00007C
FC00007C
F800007C
F800003E
F800003E
F800003E
F800003E
F800003E
F800003E
F800003E
F800003E
F800003E
F800003E
F800003E
F800003E
F800003E
F800003E
F800003E
F800003E
F800003E
F800003E
F800003E
F800003E
F800003E
F800003E
F800003E
F800003E
ENDCHAR
STARTCHAR 014A
ENCODING 330
SWIDTH 734 0
DWIDTH 47 0
BBX 37 63 5 -16
BITMAP
FE00000078
FE00000078
FF00000078
FF80000078
FF80000078
FFC0000078
FFE0000078
FBE0000078
F9F0000078
F9F8000078
F8F8000078
F87C000078
F87E000078
F83E000078
F81F000078
F81F800078
F80F800078
F807C00078
F807E00078
F803F00078
F801F00078
F801F80078
F800FC0078
F8007C0078
F8007E0078
F8003F0078
F8001F0078
F8001F8078
F8000FC078
F80007C078
F80007E078
F80003F078
F80001F078
F80000F878
F80000FC78
F800007C78
F800003E78
F800003F78
F800001F78
F800000FF8
F800000FF8
F8000007F8
F8000003F8
F8000003F8
F8000001F8
F8000000F8
F8000000F8
0000000078
0000000078
0000000078
0000000078
000F8000F8
000F8000F8
00078000F8
0007C001F8
0007C001F0
0007E003F0
0003F007E0
0001FE3FE0
0001FFFFC0
00007FFF80
00003FFE00
000007F800
ENDCHAR
STARTCHAR 014B
ENCODING 331
SWIDTH 609 0
DWIDTH 39 0
BBX 31 48 4 -12
BITMAP
000FF000
F87FFE00
F8FFFF80
F9FFFFC0
FFFFFFE0
FFE007F0
FF8003F8
FF0001F8
FE0000F8
FC00007C
FC00007C
F800007C
F800003E
F800003E
F800003E
F800003E
F800003E
F800003E
F800003E
F800003E
F800003E
F800003E
F800003E
F800003E
F800003E
F800003E
F800003E
F800003E
F800003E
F800003E
F800003E
F800003E
F800003E
F800003E
F800003E
F800003E
0000003E
0000003E
0000003E
0000007C
0000007C
000000FC
000001F8
00000FF8
00001FF0
00001FE0
00001F80
00001E00
ENDCHAR
STARTCHAR 014C
ENCODING 332
SWIDTH 875 0
DWIDTH 56 0
BBX 50 57 3 -1
BITMAP
0003FFFFF00000
0003FFFFF00000
0003FFFFF00000
0003FFFFF00000
00000000000000
00000000000000
00000000000000
00000000000000
00000FFC000000
0000FFFF800000
0003FFFFF00000
000FFFFFFC0000
003FFE1FFE0000
007FC001FF0000
00FF00003FC000
01FC00000FE000
03F8000007F000
07E0000003F000
0FC0000001F800
0FC0000000FC00
1F800000007E00
3F000000003E00
3E000000003F00
3E000000001F00
7C000000001F00
7C000000000F80
FC000000000F80
F8000000000F80
F8000000000780
F80000000007C0
F80000000007C0
F80000000007C0
F80000000007C0
F80000000007C0
F80000000007C0
F80000000007C0
F8000000000780
F8000000000F80
7C000000000F80
7C000000000F80
7C000000001F00
3E000000001F00
3E000000003F00
1F000000003E00
1F800000007E00
0F80000000FC00
0FC0000001F800
07E0000003F800
03F8000007F000
01FC00001FE000
00FF00003FC000
007FC001FF8000
003FFC1FFE0000
000FFFFFFC0000
0003FFFFF00000
0000FFFF800000
00000FFC000000
ENDCHAR
STARTCHAR 014D
ENCODING 333
SWIDTH 656 0
DWIDTH 42 0
BBX 36 46 3 -1
BITMAP
01FFFFF800
01FFFFF800
01FFFFF800
01FFFFF800
0000000000
0000000000
0000000000
0000000000
0000000000
0007FC0000
003FFFC000
00FFFFE000
01FFFFF800
03FF0FFC00
07F800FE00
0FE0007F00
1F80001F80
3F00000FC0
3E000007C0
7E000007E0
7C000003E0
7C000003E0
F8000001F0
F8000001F0
F8000001F0
F8000001F0
F8000001F0
F0000001F0
F0000001F0
F8000001F0
F8000001F0
F8000001F0
F8000001F0
7C000003E0
7C000003E0
7E000007E0
3E000007C0
3F00000FC0
1F80001F80
0FE0003F00
07F800FE00
03FF0FFC00
01FFFFF800
007FFFF000
001FFFC000
0003FE0000
ENDCHAR
STARTCHAR 014E
ENCODING 334
SWIDTH 875 0
DWIDTH 56 0
BBX 50 59 3 -1
BITMAP
0001E003C00000
0001F003C00000
0000F007C00000
0000FC0F800000
00007FFF800000
00003FFF000000
00001FFE000000
000003F0000000
00000000000000
00000000000000
00000FFC000000
0000FFFF800000
0003FFFFF00000
000FFFFFFC0000
003FFE1FFE0000
007FC001FF0000
00FF00003FC000
01FC00000FE000
03F8000007F000
07E0000003F000
0FC0000001F800
0FC0000000FC00
1F800000007E00
3F000000003E00
3E000000003F00
3E000000001F00
7C000000001F00
7C000000000F80
FC000000000F80
F8000000000F80
F8000000000780
F80000000007C0
F80000000007C0
F80000000007C0
F80000000007C0
F80000000007C0
F80000000007C0
F80000000007C0
F8000000000780
F8000000000F80
7C000000000F80
7C000000000F80
7C000000001F00
3E000000001F00
3E000000003F00
1F000000003E00
1F800000007E00
0F80000000FC00
0FC0000001F800
07E0000003F800
03F8000007F000
01FC00001FE000
00FF00003FC000
007FC001FF8000
003FFC1FFE0000
000FFFFFFC0000
0003FFFFF00000
0000FFFF800000
00000FFC000000
ENDCHAR
STARTCHAR 014F
ENCODING 335
SWIDTH 656 0
DWIDTH 42 0
BBX 36 48 3 -1
BITMAP
00F001F000
007801E000
007803E000
007E07E000
003FFFC000
001FFF8000
000FFF0000
0001F80000
0000000000
0000000000
0000000000
0007FC0000
003FFFC000
00FFFFE000
01FFFFF800
03FF0FFC00
07F800FE00
0FE0007F00
1F80001F80
3F00000FC0
3E000007C0
7E000007E0
7C000003E0
7C000003E0
F8000001F0
F8000001F0
F8000001F0
F8000001F0
F8000001F0
F0000001F0
F0000001F0
F8000001F0
F8000001F0
F8000001F0
F8000001F0
7C000003E0
7C000003E0
7E000007E0
3E000007C0
3F00000FC0
1F80001F80
0FE0003F00
07F800FE00
03FF0FFC00
01FFFFF800
007FFFF000
001FFFC000
0003FE0000
ENDCHAR
STARTCHAR 0150
ENCODING 336
SWIDTH 875 0
DWIDTH 56 0
BBX 50 61 3 -1
BITMAP
00000010010000
00000078038000
000000F80FC000
000003F81F8000
000007E07F0000
00001FC0FC0000
00007F03F80000
00007E07E00000
00007803C00000
00002001000000
00000000000000
00000000000000
00000FFC000000
0000FFFF800000
0003FFFFF00000
000FFFFFFC0000
003FFE1FFE0000
007FC001FF0000
00FF00003FC000
01FC00000FE000
03F8000007F000
07E0000003F000
0FC0000001F800
0FC0000000FC00
1F800000007E00
3F000000003E00
3E000000003F00
3E000000001F00
7C000000001F00
7C000000000F80
FC000000000F80
F8000000000F80
F8000000000780
F80000000007C0
F80000000007C0
F80000000007C0
F80000000007C0
F80000000007C0
F80000000007C0
F80000000007C0
F8000000000780
F8000000000F80
7C000000000F80
7C000000000F80
7C000000001F00
3E000000001F00
3E000000003F00
1F000000003E00
1F800000007E00
0F80000000FC00
0FC0000001F800
07E0000003F800
03F8000007F000
01FC00001FE000
00FF00003FC000
007FC001FF8000
003FFC1FFE0000
000FFFFFFC0000
0003FFFFF00000
0000FFFF800000
00000FFC000000
ENDCHAR
STARTCHAR 0151
ENCODING 337
SWIDTH 656 0
DWIDTH 42 0
BBX 36 49 3 -1
BITMAP
00000800C0
00003C01C0
00007E07E0
0001FC0FE0
0003F03F80
000FE07E00
001F81FC00
003F03F000
001C01E000
0018008000
0000000000
0000000000
0007FC0000
003FFFC000
00FFFFE000
01FFFFF800
03FF0FFC00
07F800FE00
0FE0007F00
1F80001F80
3F00000FC0
3E000007C0
7E000007E0
7C000003E0
7C000003E0
F8000001F0
F8000001F0
F8000001F0
F8000001F0
F8000001F0
F0000001F0
F0000001F0
F8000001F0
F8000001F0
F8000001F0
F8000001F0
7C000003E0
7C000003E0
7E000007E0
3E000007C0
3F00000FC0
1F80001F80
0FE0003F00
07F800FE00
03FF0FFC00
01FFFFF800
007FFFF000
001FFFC000
0003FE0000
ENDCHAR
STARTCHAR 0152
ENCODING 338
SWIDTH 1187 0
DWIDTH 76 0
BBX 70 49 3 -1
BITMAP
00001FFC0000000000
0000FFFFC007FFFFFC
0007FFFFF007FFFFFC
001FFFFFFC07FFFFFC
003FFC1FFE07FFFFFC
00FFC000FF87800000
01FE00003FC7800000
03FC00000FE7800000
07F0000007E7800000
07E0000001F7800000
0FC0000001FF800000
1F80000000FF800000
1F000000007F800000
3F000000003F800000
3E000000003F800000
7C000000001F800000
7C000000001F800000
7C000000000F800000
F8000000000F800000
F8000000000F800000
F8000000000F800000
F80000000007800000
F80000000007FFFFF8
F80000000007FFFFF8
F80000000007FFFFF8
F80000000007FFFFF8
F80000000007800000
F8000000000F800000
F8000000000F800000
F8000000000F800000
FC000000000F800000
7C000000000F800000
7C000000001F800000
7E000000001F800000
3E000000003F800000
3F000000003F800000
1F800000007F800000
1F80000000FF800000
0FC0000001FF800000
07E0000003F7800000
03F0000007E7800000
01FC00000FE7800000
00FF00003FC7800000
007FC001FF87800000
003FFFFFFF07FFFFFC
000FFFFFFC07FFFFFC
0003FFFFF807FFFFFC
0000FFFFC007FFFFFC
00000FFE0000000000
ENDCHAR
STARTCHAR 0153
ENCODING 339
SWIDTH 1140 0
DWIDTH 73 0
BBX 67 37 3 -1
BITMAP
0007FC000007FC0000
003FFF80003FFF8000
00FFFFE000FFFFE000
01FFFFF803FFFFF000
03FF0FFC07FE1FFC00
07F001FE0FF001FC00
0FE0007E1FC0007E00
1F80001F1F80003F00
3F00000FBF00001F80
3E00000FFE00000F80
7E000007FC000007C0
7C000003F8000007C0
7C000003F8000003E0
F8000001F8000003E0
F8000001F0000003E0
F8000001F0000001E0
F8000001FFFFFFFFE0
F8000001FFFFFFFFE0
F0000001FFFFFFFFE0
F0000001FFFFFFFFE0
F8000001F000000000
F8000001F000000000
F8000001F000000000
F8000003F800000000
7C000003F800000000
7C000003F8000007C0
7E000007FC000007C0
3E00000FBE00000F80
3F00000FBF00001F80
1F80003F1F80003F00
0FE0007E0FC0007E00
07F801FE0FF001FE00
03FF0FFC07FF0FFC00
01FFFFF801FFFFF000
007FFFE000FFFFE000
001FFFC0003FFF8000
0003FE000007FC0000
ENDCHAR
STARTCHAR 0154
ENCODING 340
SWIDTH 609 0
DWIDTH 39 0
BBX 32 60 5 0
BITMAP
00000400
00001E00
00003E00
0000FF00
0003FE00
0007F800
001FE000
003FC000
003F0000
001C0000
00180000
00000000
00000000
FFFFE000
FFFFFE00
FFFFFF80
FFFFFFE0
F801FFF0
F80007F8
F80001FC
F80000FC
F800007E
F800003E
F800003E
F800001F
F800001F
F800001F
F800001F
F800001F
F800001F
F800001F
F800001F
F800003E
F800003E
F800007E
F800007C
F80001FC
F80007F8
F801FFF0
F83FFFE0
F81FFF80
F81FFE00
F80FC000
F807E000
F803F000
F803F000
F801F800
F800FC00
F8007E00
F8007E00
F8003F00
F8001F80
F8000FC0
F8000FC0
F80007E0
F80003F0
F80001F8
F80001F8
F80000FC
F800007E
ENDCHAR
STARTCHAR 0155
ENCODING 341
SWIDTH 296 0
DWIDTH 19 0
BBX 15 49 4 0
BITMAP
0018
0038
00FC
03FC
07F8
1FE0
7FC0
FF00
7C00
7800
2000
0000
0000
001E
F87E
F9FE
FBFE
FFFE
FFE0
FF80
FF00
FE00
FC00
FC00
F800
F800
F800
F800
F800
F800
F800
F800
F800
F800
F800
F800
F800
F800
F800
F800
F800
F800
F800
F800
F800
F800
F800
F800
F800
ENDCHAR
STARTCHAR 0156
ENCODING 342
SWIDTH 609 0
DWIDTH 39 0
BBX 32 61 5 -14
BITMAP
FFFFE000
FFFFFE00
FFFFFF80
FFFFFFE0
F801FFF0
F80007F8
F80001FC
F80000FC
F800007E
F800003E
F800003E
F800001F
F800001F
F800001F
F800001F
F800001F
F800001F
F800001F
F800001F
F800003E
F800003E
F800007E
F800007C
F80001FC
F80007F8
F801FFF0
F83FFFE0
F81FFF80
F81FFE00
F80FC000
F807E000
F803F000
F803F000
F801F800
F800FC00
F8007E00
F8007E00
F8003F00
F8001F80
F8000FC0
F8000FC0
F80007E0
F80003F0
F80001F8
F80001F8
F80000FC
F800007E
00000000
00000000
00000000
00078000
000F8000
000F8000
000F0000
001F0000
001F0000
001F0000
001E0000
003E0000
003E0000
003E0000
ENDCHAR
STARTCHAR 0157
ENCODING 343
SWIDTH 296 0
DWIDTH 19 0
BBX 17 50 2 -14
BITMAP
000780
3E1F80
3E7F80
3EFF80
3FFF80
3FF800
3FE000
3FC000
3F8000
3F0000
3F0000
3E0000
3E0000
3E0000
3E0000
3E0000
3E0000
3E0000
3E0000
3E0000
3E0000
3E0000
3E0000
3E0000
3E0000
3E0000
3E0000
3E0000
3E0000
3E0000
3E0000
3E0000
3E0000
3E0000
3E0000
3E0000
000000
000000
000000
1E0000
3E0000
3E0000
3C0000
7C0000
7C0000
7C0000
780000
F80000
F80000
F80000
ENDCHAR
STARTCHAR 0158
ENCODING 344
SWIDTH 609 0
DWIDTH 39 0
BBX 32 58 5 0
BITMAP
0F801F80
07E03F00
03F07E00
01F8FC00
00FDF800
007FE000
001FC000
000F8000
00000000
00000000
00000000
FFFFE000
FFFFFE00
FFFFFF80
FFFFFFE0
F801FFF0
F80007F8
F80001FC
F80000FC
F800007E
F800003E
F800003E
F800001F
F800001F
F800001F
F800001F
F800001F
F800001F
F800001F
F800001F
F800003E
F800003E
F800007E
F800007C
F80001FC
F80007F8
F801FFF0
F83FFFE0
F81FFF80
F81FFE00
F80FC000
F807E000
F803F000
F803F000
F801F800
F800FC00
F8007E00
F8007E00
F8003F00
F8001F80
F8000FC0
F8000FC0
F80007E0
F80003F0
F80001F8
F80001F8
F80000FC
F800007E
ENDCHAR
STARTCHAR 0159
ENCODING 345
SWIDTH 296 0
DWIDTH 19 0
BBX 22 47 -2 0
BITMAP
FC00FC
7E03F0
3F07E0
1F8FC0
07DF80
03FF00
01FE00
00F800
000000
000000
000000
000078
03E1F8
03E7F8
03EFF8
03FFF8
03FF80
03FE00
03FC00
03F800
03F000
03F000
03E000
03E000
03E000
03E000
03E000
03E000
03E000
03E000
03E000
03E000
03E000
03E000
03E000
03E000
03E000
03E000
03E000
03E000
03E000
03E000
03E000
03E000
03E000
03E000
03E000
ENDCHAR
STARTCHAR 015A
ENCODING 346
SWIDTH 500 0
DWIDTH 32 0
BBX 29 62 1 -1
BITMAP
00000200
00000E00
00003F00
00007F80
0001FE00
0007FC00
000FF000
003FC000
001F8000
001E0000
00080000
00000000
00000000
001FE000
007FFC00
01FFFE00
03FFFF80
07F87F80
0FE01FC0
1F8007E0
1F0003E0
1F0003F0
3E0001F0
3E0001F0
3E0001F0
3E0001F0
3E000000
3E000000
3E000000
3F000000
1F000000
1F800000
0FE00000
07FC0000
03FF8000
01FFF000
007FFC00
001FFF00
0001FF80
00007FC0
00000FE0
000007F0
000001F0
000001F8
000000F8
000000F8
00000078
00000078
FC000078
7C000078
7C0000F8
7C0000F8
7E0000F8
3E0001F0
3F0003F0
1F8007E0
1FC00FE0
0FF87FC0
07FFFF80
03FFFF00
00FFFC00
001FE000
ENDCHAR
STARTCHAR 015B
ENCODING 347
SWIDTH 390 0
DWIDTH 25 0
BBX 22 50 1 -1
BITMAP
000020
0000F0
0001F0
0007F8
001FF0
003FC0
00FF00
01FE00
01F800
00E000
00C000
000000
000000
00FE00
03FF80
07FFC0
0FFFE0
1FC7F0
3F01F0
3E00F8
3E00F8
7C00F8
7C0000
7C0000
3E0000
3E0000
3F0000
1FC000
1FF800
0FFE00
03FF80
00FFE0
003FF0
0007F8
0003F8
0000FC
00007C
00007C
00007C
F8007C
F8007C
F8007C
7C007C
7C00F8
7E01F8
3FC7F0
1FFFF0
0FFFE0
07FF80
00FE00
ENDCHAR
STARTCHAR 015C
ENCODING 348
SWIDTH 500 0
DWIDTH 32 0
BBX 29 59 1 -1
BITMAP
000FC000
001FE000
003FF000
007FF800
00FC7C00
01F83F00
07E01F80
0FC00FC0
00000000
00000000
001FE000
007FFC00
01FFFE00
03FFFF80
07F87F80
0FE01FC0
1F8007E0
1F0003E0
1F0003F0
3E0001F0
3E0001F0
3E0001F0
3E0001F0
3E000000
3E000000
3E000000
3F000000
1F000000
1F800000
0FE00000
07FC0000
03FF8000
01FFF000
007FFC00
001FFF00
0001FF80
00007FC0
00000FE0
000007F0
000001F0
000001F8
000000F8
000000F8
00000078
00000078
FC000078
7C000078
7C0000F8
7C0000F8
7E0000F8
3E0001F0
3F0003F0
1F8007E0
1FC00FE0
0FF87FC0
07FFFF80
03FFFF00
00FFFC00
001FE000
ENDCHAR
STARTCHAR 015D
ENCODING 349
SWIDTH 390 0
DWIDTH 25 0
BBX 22 48 1 -1
BITMAP
007C00
00FE00
03FF00
07EFC0
0FC7E0
1F83F0
3F01F8
7C00FC
000000
000000
000000
00FE00
03FF80
07FFC0
0FFFE0
1FC7F0
3F01F0
3E00F8
3E00F8
7C00F8
7C0000
7C0000
3E0000
3E0000
3F0000
1FC000
1FF800
0FFE00
03FF80
00FFE0
003FF0
0007F8
0003F8
0000FC
00007C
00007C
00007C
F8007C
F8007C
F8007C
7C007C
7C00F8
7E01F8
3FC7F0
1FFFF0
0FFFE0
07FF80
00FE00
ENDCHAR
STARTCHAR 015E
ENCODING 350
SWIDTH 500 0
DWIDTH 32 0
BBX 29 64 1 -16
BITMAP
001FE000
007FFC00
01FFFE00
03FFFF80
07F87F80
0FE01FC0
1F8007E0
1F0003E0
1F0003F0
3E0001F0
3E0001F0
3E0001F0
3E0001F0
3E000000
3E000000
3E000000
3F000000
1F000000
1F800000
0FE00000
07FC0000
03FF8000
01FFF000
007FFC00
001FFF00
0001FF80
00007FC0
00000FE0
000007F0
000001F0
000001F8
000000F8
000000F8
00000078
00000078
FC000078
7C000078
7C0000F8
7C0000F8
7E0000F8
3E0001F0
3F0003F0
1F8007E0
1FC00FE0
0FF87FC0
07FFFF80
03FFFF00
00FFFC00
001FE000
00060000
000E0000
000FF000
001FF800
001FFC00
000C3E00
00001E00
00001E00
00001E00
00181E00
003C3E00
001FFC00
001FFC00
000FF800
0007E000
ENDCHAR
STARTCHAR 015F
ENCODING 351
SWIDTH 390 0
DWIDTH 25 0
BBX 22 52 1 -16
BITMAP
00FE00
03FF80
07FFC0
0FFFE0
1FC7F0
3F01F0
3E00F8
3E00F8
7C00F8
7C0000
7C0000
3E0000
3E0000
3F0000
1FC000
1FF800
0FFE00
03FF80
00FFE0
003FF0
0007F8
0003F8
0000FC
00007C
00007C
00007C
F8007C
F8007C
F8007C
7C007C
7C00F8
7E01F8
3FC7F0
1FFFE0
0FFFC0
07FF80
00FE00
007000
007000
00FF00
00FFC0
00FFE0
00C1E0
0001F0
0000F0
0000F0
01C1E0
01C1E0
01FFE0
00FFC0
007F80
003E00
ENDCHAR
STARTCHAR 0160
ENCODING 352
SWIDTH 500 0
DWIDTH 32 0
BBX 29 59 1 -1
BITMAP
0FC00FC0
07E01F80
01F03E00
00FCFC00
007FF800
003FF000
001FE000
000FC000
00000000
00000000
001FE000
007FFC00
01FFFE00
03FFFF80
07F87F80
0FE01FC0
1F8007E0
1F0003E0
1F0003F0
3E0001F0
3E0001F0
3E0001F0
3E0001F0
3E000000
3E000000
3E000000
3F000000
1F000000
1F800000
0FE00000
07FC0000
03FF8000
01FFF000
007FFC00
001FFF00
0001FF80
00007FC0
00000FE0
000007F0
000001F0
000001F8
000000F8
000000F8
00000078
00000078
FC000078
7C000078
7C0000F8
7C0000F8
7E0000F8
3E0001F0
3F0003F0
1F8007E0
1FC00FE0
0FF87FC0
07FFFF80
03FFFF00
00FFFC00
001FE000
ENDCHAR
STARTCHAR 0161
ENCODING 353
SWIDTH 390 0
DWIDTH 25 0
BBX 22 48 1 -1
BITMAP
7C00FC
3E01F8
1F83F0
0FC7E0
07FF80
03FF00
01FE00
007C00
000000
000000
000000
00FE00
03FF80
07FFC0
0FFFE0
1FC7F0
3F01F0
3E00F8
3E00F8
7C00F8
7C0000
7C0000
3E0000
3E0000
3F0000
1FC000
1FF800
0FFE00
03FF80
00FFE0
003FF0
0007F8
0003F8
0000FC
00007C
00007C
00007C
F8007C
F8007C
F8007C
7C007C
7C00F8
7E01F8
3FC7F0
1FFFF0
0FFFE0
07FF80
00FE00
ENDCHAR
STARTCHAR 0162
ENCODING 354
SWIDTH 421 0
DWIDTH 27 0
BBX 27 63 0 -16
BITMAP
FFFFFFE0
FFFFFFE0
FFFFFFE0
FFFFFFE0
001F0000
001F0000
001F0000
001F0000
001F0000
001F0000
001F0000
001F0000
001F0000
001F0000
001F0000
001F0000
001F0000
001F0000
001F0000
001F0000
001F0000
001F0000
001F0000
001F0000
001F0000
001F0000
001F0000
001F0000
001F0000
001F0000
001F0000
001F0000
001F0000
001F0000
001F0000
001F0000
001F0000
001F0000
001F0000
001F0000
001F0000
001F0000
001F0000
001F0000
001F0000
001F0000
001F0000
000E0000
000C0000
001C0000
001FE000
001FF800
003FF800
00187C00
00003C00
00003C00
00003C00
00303C00
00787C00
003FF800
003FF800
001FF000
0007C000
ENDCHAR
STARTCHAR 0163
ENCODING 355
SWIDTH 343 0
DWIDTH 22 0
BBX 20 63 1 -16
BITMAP
01F000
01F000
01F000
01F000
01F000
01F000
01F000
01F000
01F000
01F000
01F000
01F000
FFFFF0
FFFFF0
FFFFF0
FFFFF0
01F000
01F000
01F000
01F000
01F000
01F000
01F000
01F000
01F000
01F000
01F000
01F000
01F000
01F000
01F000
01F000
01F000
01F000
01F000
01F000
01F000
01F000
01F000
01F000
01F000
01F000
01F000
01F000
01F000
01F000
01F000
006000
00E000
00C000
01FF00
01FF80
01FFC0
0083C0
0003E0
0001E0
0001E0
0383E0
03C3C0
03FFC0
01FF80
00FF00
007C00
ENDCHAR
STARTCHAR 0164
ENCODING 356
SWIDTH 421 0
DWIDTH 27 0
BBX 27 58 0 0
BITMAP
1F801F00
0FC07E00
07E0FC00
03F1F800
01FBF000
007FE000
003F8000
001F0000
00000000
00000000
00000000
FFFFFFE0
FFFFFFE0
FFFFFFE0
FFFFFFE0
001F0000
001F0000
001F0000
001F0000
001F0000
001F0000
001F0000
001F0000
001F0000
001F0000
001F0000
001F0000
001F0000
001F0000
001F0000
001F0000
001F0000
001F0000
001F0000
001F0000
001F0000
001F0000
001F0000
001F0000
001F0000
001F0000
001F0000
001F0000
001F0000
001F0000
001F0000
001F0000
001F0000
001F0000
001F0000
001F0000
001F0000
001F0000
001F0000
001F0000
001F0000
001F0000
001F0000
ENDCHAR
STARTCHAR 0165
ENCODING 357
SWIDTH 343 0
DWIDTH 22 0
BBX 22 48 1 0
BITMAP
00007C
01F078
01F0F8
01F0F8
01F0F8
01F0F0
01F1F0
01F1F0
01F1F0
01F1E0
01F3E0
01F000
01F000
FFFFF0
FFFFF0
FFFFF0
FFFFF0
01F000
01F000
01F000
01F000
01F000
01F000
01F000
01F000
01F000
01F000
01F000
01F000
01F000
01F000
01F000
01F000
01F000
01F000
01F000
01F000
01F000
01F000
01F000
01F000
01F000
01F000
01F000
01F000
01F000
01F000
01F000
ENDCHAR
STARTCHAR 0168
ENCODING 360
SWIDTH 656 0
DWIDTH 42 0
BBX 32 58 5 -1
BITMAP
003E0100
00FF8700
01FFFF80
01FFFF80
00E1FF00
00807C00
00000000
00000000
00000000
00000000
F800001F
F800001F
F800001F
F800001F
F800001F
F800001F
F800001F
F800001F
F800001F
F800001F
F800001F
F800001F
F800001F
F800001F
F800001F
F800001F
F800001F
F800001F
F800001F
F800001F
F800001F
F800001F
F800001F
F800001F
F800001F
F800001F
F800001F
F800001F
F800001F
F800001F
F800001F
F800001F
F800001F
F800001F
F800001F
F800001E
7C00003E
7C00003E
7C00007E
3E00007C
3F0000FC
1F8001F8
1FC007F0
0FFC3FF0
07FFFFE0
01FFFF80
00FFFF00
001FF800
ENDCHAR
STARTCHAR 0169
ENCODING 361
SWIDTH 609 0
DWIDTH 39 0
BBX 31 47 4 -1
BITMAP
003C0200
00FF8700
01FFFF00
03FFFF00
01C3FE00
0080FC00
00000000
00000000
00000000
00000000
00000000
F800003E
F800003E
F800003E
F800003E
F800003E
F800003E
F800003E
F800003E
F800003E
F800003E
F800003E
F800003E
F800003E
F800003E
F800003E
F800003E
F800003E
F800003E
F800003E
F800003E
F800003E
F800003E
F800003E
F800007E
7800007E
7C00007E
7C0000FE
7E0000FE
3E0001FE
3F8003FE
1FC00FFE
0FFFFFBE
07FFFF3E
03FFFE3E
01FFFC3E
003FE000
ENDCHAR
STARTCHAR 016A
ENCODING 362
SWIDTH 656 0
DWIDTH 42 0
BBX 32 57 5 -1
BITMAP
07FFFFE0
07FFFFE0
07FFFFE0
07FFFFE0
00000000
00000000
00000000
00000000
00000000
F800001F
F800001F
F800001F
F800001F
F800001F
F800001F
F800001F
F800001F
F800001F
F800001F
F800001F
F800001F
F800001F
F800001F
F800001F
F800001F
F800001F
F800001F
F800001F
F800001F
F800001F
F800001F
F800001F
F800001F
F800001F
F800001F
F800001F
F800001F
F800001F
F800001F
F800001F
F800001F
F800001F
F800001F
F800001F
F800001E
7C00003E
7C00003E
7C00007E
3E00007C
3F0000FC
1F8001F8
1FC007F0
0FFC3FF0
07FFFFE0
01FFFF80
00FFFF00
001FF800
ENDCHAR
STARTCHAR 016B
ENCODING 363
SWIDTH 609 0
DWIDTH 39 0
BBX 31 46 4 -1
BITMAP
07FFFFC0
07FFFFC0
07FFFFC0
07FFFFC0
00000000
00000000
00000000
00000000
00000000
00000000
F800003E
F800003E
F800003E
F800003E
F800003E
F800003E
F800003E
F800003E
F800003E
F800003E
F800003E
F800003E
F800003E
F800003E
F800003E
F800003E
F800003E
F800003E
F800003E
F800003E
F800003E
F800003E
F800003E
F800007E
7800007E
7C00007E
7C0000FE
7E0000FE
3E0001FE
3F8003FE
1FC00FFE
0FFFFFBE
07FFFF3E
03FFFE3E
01FFFC3E
003FE000
ENDCHAR
STARTCHAR 016C
ENCODING 364
SWIDTH 656 0
DWIDTH 42 0
BBX 32 59 5 -1
BITMAP
03C007C0
01E00780
01E00F80
01F81F80
00FFFF00
007FFE00
003FFC00
0007E000
00000000
00000000
00000000
F800001F
F800001F
F800001F
F800001F
F800001F
F800001F
F800001F
F800001F
F800001F
F800001F
F800001F
F800001F
F800001F
F800001F
F800001F
F800001F
F800001F
F800001F
F800001F
F800001F
F800001F
F800001F
F800001F
F800001F
F800001F
F800001F
F800001F
F800001F
F800001F
F800001F
F800001F
F800001F
F800001F
F800001F
F800001F
F800001E
7C00003E
7C00003E
7C00007E
3E00007C
3F0000FC
1F8001F8
1FC007F0
0FFC3FF0
07FFFFE0
01FFFF80
00FFFF00
001FF800
ENDCHAR
STARTCHAR 016D
ENCODING 365
SWIDTH 609 0
DWIDTH 39 0
BBX 31 48 4 -1
BITMAP
03C00780
03C00780
03E00F00
01F01F00
01FFFE00
00FFFE00
007FFC00
001FE000
00000000
00000000
00000000
00000000
F800003E
F800003E
F800003E
F800003E
F800003E
F800003E
F800003E
F800003E
F800003E
F800003E
F800003E
F800003E
F800003E
F800003E
F800003E
F800003E
F800003E
F800003E
F800003E
F800003E
F800003E
F800003E
F800003E
F800007E
7800007E
7C00007E
7C0000FE
7E0000FE
3E0001FE
3F8003FE
1FC00FFE
0FFFFFBE
07FFFF3E
03FFFE3E
01FFFC3E
003FE000
ENDCHAR
STARTCHAR 016E
ENCODING 366
SWIDTH 656 0
DWIDTH 42 0
BBX 32 63 5 -1
BITMAP
0003C000
000FF000
001FF800
003C3C00
00381C00
00381C00
00300C00
00301C00
00381C00
003C3C00
001FF800
000FF000
0007E000
00000000
00000000
F800001F
F800001F
F800001F
F800001F
F800001F
F800001F
F800001F
F800001F
F800001F
F800001F
F800001F
F800001F
F800001F
F800001F
F800001F
F800001F
F800001F
F800001F
F800001F
F800001F
F800001F
F800001F
F800001F
F800001F
F800001F
F800001F
F800001F
F800001F
F800001F
F800001F
F800001F
F800001F
F800001F
F800001F
F800001F
F800001E
7C00003E
7C00003E
7C00007E
3E00007C
3F0000FC
1F8001F8
1FC007F0
0FFC3FF0
07FFFFE0
01FFFF80
00FFFF00
001FF800
ENDCHAR
STARTCHAR 016F
ENCODING 367
SWIDTH 609 0
DWIDTH 39 0
BBX 31 51 4 -1
BITMAP
0007C000
001FF000
003FF800
00387800
00703C00
00701C00
00701C00
00701C00
00703C00
00387800
003FF800
001FF000
0007C000
00000000
00000000
F800003E
F800003E
F800003E
F800003E
F800003E
F800003E
F800003E
F800003E
F800003E
F800003E
F800003E
F800003E
F800003E
F800003E
F800003E
F800003E
F800003E
F800003E
F800003E
F800003E
F800003E
F800003E
F800003E
F800007E
7800007E
7C00007E
7C0000FE
7E0000FE
3E0001FE
3F8003FE
1FC00FFE
0FFFFFBE
07FFFF3E
03FFFE3E
01FFFC3E
003FE000
ENDCHAR
STARTCHAR 0170
ENCODING 368
SWIDTH 656 0
DWIDTH 42 0
BBX 33 61 5 -1
BITMAP
0000200200
0000F00700
0001F00F80
0003F03F80
000FE07F00
001FC1FC00
003F03F800
00FE07E000
00F80FC000
0070070000
0060020000
0000000000
0000000000
F800001F00
F800001F00
F800001F00
F800001F00
F800001F00
F800001F00
F800001F00
F800001F00
F800001F00
F800001F00
F800001F00
F800001F00
F800001F00
F800001F00
F800001F00
F800001F00
F800001F00
F800001F00
F800001F00
F800001F00
F800001F00
F800001F00
F800001F00
F800001F00
F800001F00
F800001F00
F800001F00
F800001F00
F800001F00
F800001F00
F800001F00
F800001F00
F800001F00
F800001F00
F800001F00
F800001E00
7C00003E00
7C00003E00
7C00007E00
3E00007C00
3F0000FC00
1F8001F800
1FC007F000
0FFC3FF000
07FFFFE000
01FFFF8000
00FFFF0000
001FF80000
ENDCHAR
STARTCHAR 0171
ENCODING 369
SWIDTH 609 0
DWIDTH 39 0
BBX 32 49 4 -1
BITMAP
00004002
0000E00F
0003F01F
0007F03F
000FE0FE
003F81FC
007F03F0
00FC0FE0
01F80F80
00E00700
00400600
00000000
00000000
F800003E
F800003E
F800003E
F800003E
F800003E
F800003E
F800003E
F800003E
F800003E
F800003E
F800003E
F800003E
F800003E
F800003E
F800003E
F800003E
F800003E
F800003E
F800003E
F800003E
F800003E
F800003E
F800003E
F800007E
7800007E
7C00007E
7C0000FE
7E0000FE
3E0001FE
3F8003FE
1FC00FFE
0FFFFFBE
07FFFF3E
03FFFE3E
01FFFC3E
003FE000
ENDCHAR
STARTCHAR 0172
ENCODING 370
SWIDTH 656 0
DWIDTH 42 0
BBX 32 63 5 -16
BITMAP
F800001F
F800001F
F800001F
F800001F
F800001F
F800001F
F800001F
F800001F
F800001F
F800001F
F800001F
F800001F
F800001F
F800001F
F800001F
F800001F
F800001F
F800001F
F800001F
F800001F
F800001F
F800001F
F800001F
F800001F
F800001F
F800001F
F800001F
F800001F
F800001F
F800001F
F800001F
F800001F
F800001F
F800001F
F800001F
F800001E
7C00003E
7C00003E
7C00007E
3E00007C
3F0000FC
1F8001F8
1FC007F0
0FFC3FF0
07FFFFE0
01FFFF80
00FFFE00
001FFC00
0000F000
0001E000
0003E000
0007C000
0007C000
00078000
000F8000
000F8000
00078000
0007C000
0007FE00
0003FE00
0001FE00
0000FE00
00007E00
ENDCHAR
STARTCHAR 0173
ENCODING 371
SWIDTH 609 0
DWIDTH 39 0
BBX 32 51 4 -16
BITMAP
F800003E
F800003E
F800003E
F800003E
F800003E
F800003E
F800003E
F800003E
F800003E
F800003E
F800003E
F800003E
F800003E
F800003E
F800003E
F800003E
F800003E
F800003E
F800003E
F800003E
F800003E
F800003E
F800003E
F800007E
7800007E
7C00007E
7C0000FE
7E0000FE
3E0001FE
3F8003FE
1FC00FFE
0FFFFFBE
07FFFF3E
03FFFE3E
01FFFC3E
003FE07C
000000F8
000001F0
000003E0
000003C0
000007C0
000007C0
000007C0
000007C0
000007C0
000007E0
000003FF
000003FF
000001FF
000000FF
0000003F
ENDCHAR
STARTCHAR 0174
ENCODING 372
SWIDTH 953 0
DWIDTH 61 0
BBX 60 58 1 0
BITMAP
0000001F00000000
0000003FC0000000
0000007FE0000000
000000FFF0000000
000003F1F8000000
000007E0FC000000
00000FC03E000000
00001F801F000000
0000000000000000
0000000000000000
0000000000000000
F800001F000001F0
F800001F000003E0
F800001F800003E0
7C00003F800003E0
7C00003F800003C0
7C00003F800007C0
7C00003FC00007C0
3E00007FC00007C0
3E00007FC0000F80
3E00007BE0000F80
1F00007BE0000F80
1F0000FBE0000F00
1F0000F9E0001F00
1F0000F1F0001F00
0F8001F1F0001F00
0F8001F0F0001E00
0F8001E0F8003E00
078001E0F8003E00
07C003E0F8003C00
07C003E078007C00
03C003C07C007C00
03E003C07C007C00
03E007C07C007800
03E007C03C00F800
01E007803E00F800
01F00F803E00F000
01F00F801E01F000
00F00F801F01F000
00F80F001F01F000
00F81F001F01E000
00F81F000F03E000
00781E000F83E000
007C3E000F83C000
007C3E000F87C000
003C3E0007C7C000
003E3C0007C7C000
003E7C0007C78000
003E7C0003CF8000
001E7C0003EF8000
001F780003EF0000
001FF80003FF0000
000FF80001FF0000
000FF00001FF0000
000FF00001FE0000
000FF00001FE0000
0007F00000FE0000
0007E00000FC0000
ENDCHAR
STARTCHAR 0175
ENCODING 373
SWIDTH 828 0
DWIDTH 53 0
BBX 52 47 1 0
BITMAP
000001F0000000
000003F8000000
000007FE000000
00001FBF000000
00003F1F800000
00007E0FC00000
0000FC07E00000
0001F801F00000
00000000000000
00000000000000
00000000000000
00000000000000
F00000000001F0
F80000000001E0
F80000000003E0
7C0000000003C0
7C0001F00007C0
3C0001F00007C0
3E0001F0000780
3E0001F8000F80
1E0003F8000F00
1F0003F8001F00
1F0003FC001F00
0F8007FC001E00
0F8007BC003E00
078007BE003C00
07C00FBE007C00
07C00F1E007C00
03C00F1F007800
03E01F1F00F800
03E01E0F00F800
01F01E0F00F000
01F03E0F81F000
00F03C0781E000
00F83C0783E000
00F87C07C3E000
00787803C3C000
007C7803C7C000
003CF803E78000
003EF001EF8000
003EF001EF8000
001FF001FF0000
001FE000FF0000
001FE000FF0000
000FE000FE0000
000FC0007E0000
0007C0007C0000
ENDCHAR
STARTCHAR 0176
ENCODING 374
SWIDTH 593 0
DWIDTH 38 0
BBX 37 58 0 0
BITMAP
0000FC0000
0001FE0000
0003FF0000
0007FF8000
000FCFC000
003F03E000
007E01F800
00FC00FC00
0000000000
0000000000
0000000000
FC000000F8
7C000000F8
7E000001F0
3E000001F0
3F000003E0
1F000003E0
0F800007C0
0F800007C0
07C0000F80
07C0000F80
03E0001F00
03E0001F00
01F0003E00
01F0003E00
00F8007C00
00F800FC00
007C00F800
007C01F800
003E01F000
003E03E000
001F03E000
001F07C000
000F87C000
000F8F8000
0007CF8000
0007DF0000
0003FF0000
0003FE0000
0001FE0000
0000FC0000
0000FC0000
0000F80000
0000F80000
0000F80000
0000F80000
0000F80000
0000F80000
0000F80000
0000F80000
0000F80000
0000F80000
0000F80000
0000F80000
0000F80000
0000F80000
0000F80000
0000F80000
ENDCHAR
STARTCHAR 0177
ENCODING 375
SWIDTH 531 0
DWIDTH 34 0
BBX 33 59 1 -12
BITMAP
0003E00000
000FF00000
001FF80000
003F7C0000
007E3F0000
00FC1F8000
01F80FC000
07E007E000
0000000000
0000000000
0000000000
0000000000
F800001F80
F800001F00
7C00001F00
7C00003E00
7E00003E00
3E00007C00
3E00007C00
1F0000F800
1F0000F800
1F8000F800
0F8001F000
0F8001F000
07C003E000
07C003E000
07E007C000
03E007C000
03E007C000
01F00F8000
01F00F8000
01F81F0000
00F81F0000
00F83E0000
007C3E0000
007C3E0000
007E7C0000
003E7C0000
003EF80000
001FF80000
001FF00000
001FF00000
000FF00000
000FE00000
0007E00000
0007C00000
0007C00000
000F800000
000F800000
001F800000
001F000000
001F000000
003E000000
003E000000
007C000000
007C000000
00FC000000
00F8000000
00F8000000
ENDCHAR
STARTCHAR 0178
ENCODING 376
SWIDTH 593 0
DWIDTH 38 0
BBX 37 58 0 0
BITMAP
000F87C000
000F87C000
000F87C000
000F87C000
000F87C000
000F87C000
000F87C000
000F87C000
0000000000
0000000000
0000000000
FC000000F8
7C000000F8
7E000001F0
3E000001F0
3F000003E0
1F000003E0
0F800007C0
0F800007C0
07C0000F80
07C0000F80
03E0001F00
03E0001F00
01F0003E00
01F0003E00
00F8007C00
00F800FC00
007C00F800
007C01F800
003E01F000
003E03E000
001F03E000
001F07C000
000F87C000
000F8F8000
0007CF8000
0007DF0000
0003FF0000
0003FE0000
0001FE0000
0000FC0000
0000FC0000
0000F80000
0000F80000
0000F80000
0000F80000
0000F80000
0000F80000
0000F80000
0000F80000
0000F80000
0000F80000
0000F80000
0000F80000
0000F80000
0000F80000
0000F80000
0000F80000
ENDCHAR
STARTCHAR 0179
ENCODING 377
SWIDTH 484 0
DWIDTH 31 0
BBX 29 60 1 0
BITMAP
00000600
00000E00
00003F00
0000FF00
0001FE00
0007F800
001FF000
003FC000
001F0000
001E0000
00080000
00000000
00000000
7FFFFFF8
7FFFFFF8
7FFFFFF8
7FFFFFF8
000001F8
000001F0
000003E0
000007E0
000007C0
00000F80
00000F80
00001F00
00003F00
00003E00
00007C00
00007C00
0000F800
0001F800
0001F000
0003E000
0003E000
0007C000
000FC000
000F8000
001F0000
003F0000
003E0000
007E0000
007C0000
00F80000
01F80000
01F00000
03F00000
03E00000
07C00000
0FC00000
0F800000
1F800000
1F000000
3E000000
7E000000
7C000000
FC000000
FFFFFFF8
FFFFFFF8
FFFFFFF8
FFFFFFF8
ENDCHAR
STARTCHAR 017A
ENCODING 378
SWIDTH 421 0
DWIDTH 27 0
BBX 26 49 1 0
BITMAP
00001000
00007800
0000F800
0003FC00
000FF800
001FE000
007F8000
01FF0000
00FC0000
00700000
00400000
00000000
00000000
00000000
FFFFFF00
FFFFFF00
FFFFFF00
FFFFFF00
00001F00
00003E00
00007E00
00007C00
0000F800
0001F000
0003F000
0003E000
0007C000
000FC000
001F8000
001F0000
003E0000
007E0000
007C0000
00F80000
01F80000
03F00000
03E00000
07C00000
0FC00000
1F800000
1F000000
3F000000
7E000000
7C000000
F8000000
FFFFFFC0
FFFFFFC0
FFFFFFC0
FFFFFFC0
ENDCHAR
STARTCHAR 017B
ENCODING 379
SWIDTH 484 0
DWIDTH 31 0
BBX 29 58 1 0
BITMAP
000F8000
000F8000
000F8000
000F8000
000F8000
000F8000
000F8000
000F8000
00000000
00000000
00000000
7FFFFFF8
7FFFFFF8
7FFFFFF8
7FFFFFF8
000001F8
000001F0
000003E0
000007E0
000007C0
00000F80
00000F80
00001F00
00003F00
00003E00
00007C00
00007C00
0000F800
0001F800
0001F000
0003E000
0003E000
0007C000
000FC000
000F8000
001F0000
003F0000
003E0000
007E0000
007C0000
00F80000
01F80000
01F00000
03F00000
03E00000
07C00000
0FC00000
0F800000
1F800000
1F000000
3E000000
7E000000
7C000000
FC000000
FFFFFFF8
FFFFFFF8
FFFFFFF8
FFFFFFF8
ENDCHAR
STARTCHAR 017C
ENCODING 380
SWIDTH 421 0
DWIDTH 27 0
BBX 26 47 1 0
BITMAP
003E0000
003E0000
003E0000
003E0000
003E0000
003E0000
003E0000
003E0000
00000000
00000000
00000000
00000000
FFFFFF00
FFFFFF00
FFFFFF00
FFFFFF00
00001F00
00003E00
00007E00
00007C00
0000F800
0001F000
0003F000
0003E000
0007C000
000FC000
001F8000
001F0000
003E0000
007E0000
007C0000
00F80000
01F80000
03F00000
03E00000
07C00000
0FC00000
1F800000
1F000000
3F000000
7E000000
7C000000
F8000000
FFFFFFC0
FFFFFFC0
FFFFFFC0
FFFFFFC0
ENDCHAR
STARTCHAR 017D
ENCODING 381
SWIDTH 484 0
DWIDTH 31 0
BBX 29 58 1 0
BITMAP
0FC00FC0
07E03F00
03F07E00
01F8FC00
007DF800
003FF000
001FE000
000F8000
00000000
00000000
00000000
7FFFFFF8
7FFFFFF8
7FFFFFF8
7FFFFFF8
000001F8
000001F0
000003E0
000007E0
000007C0
00000F80
00000F80
00001F00
00003F00
00003E00
00007C00
00007C00
0000F800
0001F800
0001F000
0003E000
0003E000
0007C000
000FC000
000F8000
001F0000
003F0000
003E0000
007E0000
007C0000
00F80000
01F80000
01F00000
03F00000
03E00000
07C00000
0FC00000
0F800000
1F800000
1F000000
3E000000
7E000000
7C000000
FC000000
FFFFFFF8
FFFFFFF8
FFFFFFF8
FFFFFFF8
ENDCHAR
STARTCHAR 017E
ENCODING 382
SWIDTH 421 0
DWIDTH 27 0
BBX 26 47 1 0
BITMAP
3E007E00
1F00FC00
0FC1F800
07E3F000
03FFC000
01FF8000
00FF0000
003E0000
00000000
00000000
00000000
00000000
FFFFFF00
FFFFFF00
FFFFFF00
FFFFFF00
00001F00
00003E00
00007E00
00007C00
0000F800
0001F000
0003F000
0003E000
0007C000
000FC000
001F8000
001F0000
003E0000
007E0000
007C0000
00F80000
01F80000
03F00000
03E00000
07C00000
0FC00000
1F800000
1F000000
3F000000
7E000000
7C000000
F8000000
FFFFFFC0
FFFFFFC0
FFFFFFC0
FFFFFFC0
ENDCHAR
STARTCHAR 017F
ENCODING 383
SWIDTH 312 0
DWIDTH 20 0
BBX 19 47 1 0
BITMAP
0003E0
001FE0
007FE0
00FFE0
01FF00
01F800
03F000
03E000
03E000
03C000
07C000
07C000
FFC000
FFC000
FFC000
FFC000
07C000
07C000
07C000
07C000
07C000
07C000
07C000
07C000
07C000
07C000
07C000
07C000
07C000
07C000
07C000
07C000
07C000
07C000
07C000
07C000
07C000
07C000
07C000
07C000
07C000
07C000
07C000
07C000
07C000
07C000
07C000
ENDCHAR
STARTCHAR 018E
ENCODING 398
SWIDTH 531 0
DWIDTH 34 0
BBX 26 47 5 0
BITMAP
FFFFFFC0
FFFFFFC0
FFFFFFC0
FFFFFFC0
000007C0
000007C0
000007C0
000007C0
000007C0
000007C0
000007C0
000007C0
000007C0
000007C0
000007C0
000007C0
000007C0
000007C0
000007C0
000007C0
000007C0
7FFFFFC0
7FFFFFC0
7FFFFFC0
7FFFFFC0
000007C0
000007C0
000007C0
000007C0
000007C0
000007C0
000007C0
000007C0
000007C0
000007C0
000007C0
000007C0
000007C0
000007C0
000007C0
000007C0
000007C0
000007C0
FFFFFFC0
FFFFFFC0
FFFFFFC0
FFFFFFC0
ENDCHAR
STARTCHAR 0192
ENCODING 402
SWIDTH 546 0
DWIDTH 35 0
BBX 34 62 1 -10
BITMAP
0000000FC0
0000003FC0
0000007FC0
000000FF80
000001F800
000001F000
000003E000
000003C000
000007C000
0000078000
00000F8000
00000F8000
00000F0000
00000F0000
00000F0000
000FFFFE00
000FFFFE00
000FFFFE00
000FFFFE00
00001E0000
00001E0000
00003E0000
00003E0000
00003C0000
00003C0000
00003C0000
00007C0000
00007C0000
00007C0000
0000780000
0000780000
0000780000
0000F80000
0000F80000
0000F00000
0000F00000
0000F00000
0001F00000
0001F00000
0001F00000
0001E00000
0001E00000
0003E00000
0003E00000
0003E00000
0003C00000
0003C00000
0007C00000
0007C00000
0007C00000
0007800000
000F800000
000F800000
000F800000
001F000000
003F000000
007E000000
03FE000000
7FFC000000
7FF0000000
FFE0000000
FF00000000
ENDCHAR
STARTCHAR 01A0
ENCODING 416
SWIDTH 875 0
DWIDTH 56 0
BBX 50 49 3 -1
BITMAP
00000FFC000000
0000FFFF8007C0
0003FFFFF007C0
000FFFFFF80780
003FFE1FFE0780
007FC001FF0F80
00FF00003FDF80
01FC00000FFF00
03F8000007FE00
07E0000003FE00
0FC0000001FC00
0FC0000000FC00
1F800000007C00
3F000000003E00
3E000000003F00
3E000000001F00
7C000000001F00
7C000000000F80
FC000000000F80
F8000000000F80
F8000000000780
F80000000007C0
F80000000007C0
F80000000007C0
F80000000007C0
F80000000007C0
F80000000007C0
F80000000007C0
F8000000000780
F8000000000F80
7C000000000F80
7C000000000F80
7C000000001F00
3E000000001F00
3E000000003F00
1F000000003E00
1F800000007E00
0F80000000FC00
0FC0000001F800
07E0000003F800
03F8000007F000
01FC00001FE000
00FF00003FC000
007FC001FF8000
003FFC1FFE0000
000FFFFFFC0000
0003FFFFF00000
0000FFFF800000
00000FFC000000
ENDCHAR
STARTCHAR 01A1
ENCODING 417
SWIDTH 671 0
DWIDTH 43 0
BBX 39 37 3 -1
BITMAP
0007FE0000
003FFF801E
00FFFFE01E
01FFFFF83E
03FF0FFC3C
07F801FE7C
0FE0007F7C
1F80001FF8
3F00000FF8
3E00000FF0
7E000007E0
7C000003E0
7C000003E0
F8000001F0
F8000001F0
F8000001F0
F8000001F0
F8000001F0
F0000001F0
F0000001F0
F8000001F0
F8000001F0
F8000001F0
F8000001F0
7C000003E0
7C000003E0
7E000007E0
3E000007C0
3F00000FC0
1F80001F80
0FE0003F00
07F800FE00
03FF0FFC00
01FFFFF800
007FFFF000
001FFFC000
0003FE0000
ENDCHAR
STARTCHAR 01AF
ENCODING 431
SWIDTH 703 0
DWIDTH 45 0
BBX 39 48 5 -1
BITMAP
F800001F1E
F800001F1E
F800001F1E
F800001F3E
F800001F3C
F800001F7C
F800001FFC
F800001FF8
F800001FF0
F800001FE0
F800001FC0
F800001F80
F800001F00
F800001F00
F800001F00
F800001F00
F800001F00
F800001F00
F800001F00
F800001F00
F800001F00
F800001F00
F800001F00
F800001F00
F800001F00
F800001F00
F800001F00
F800001F00
F800001F00
F800001F00
F800001F00
F800001F00
F800001F00
F800001F00
F800001F00
F800001F00
7800003E00
7C00003E00
7C00003E00
3E00007C00
3F0000FC00
1F8001F800
1FE007F000
0FFC3FF000
07FFFFC000
01FFFF8000
007FFE0000
000FF00000
ENDCHAR
STARTCHAR 01B0
ENCODING 432
SWIDTH 671 0
DWIDTH 43 0
BBX 38 36 4 -1
BITMAP
F800003E3C
F800003E3C
F800003E3C
F800003E7C
F800003E78
F800003EF8
F800003FF8
F800003FF0
F800003FE0
F800003FC0
F800003F80
F800003F00
F800003E00
F800003E00
F800003E00
F800003E00
F800003E00
F800003E00
F800003E00
F800003E00
F800003E00
F800003E00
F800003E00
F800003E00
F800007E00
7C00007E00
7C0000FE00
7E0000FE00
3E0001FE00
3F0003FE00
1FC00FFE00
0FF87FBE00
07FFFF3E00
03FFFE3E00
00FFFC3E00
001FE00000
ENDCHAR
STARTCHAR 01CD
ENCODING 461
SWIDTH 734 0
DWIDTH 47 0
BBX 45 58 1 0
BITMAP
000FC00F8000
0007E03F0000
0003F07E0000
0001F8FC0000
0000FDF80000
00003FF00000
00001FC00000
00000F800000
000000000000
000000000000
000000000000
00000FC00000
00001FC00000
00001FC00000
00003FE00000
00003FE00000
00003FF00000
00007DF00000
00007CF80000
0000F8F80000
0000F8F80000
0001F07C0000
0001F07C0000
0001F03E0000
0003E03E0000
0003E03F0000
0007C01F0000
0007C01F0000
000F800F8000
000F800F8000
000F8007C000
001F0007C000
001F0007E000
003E0003E000
003E0003E000
007C0001F000
007C0001F000
007C0000F800
00FFFFFFF800
00FFFFFFFC00
01FFFFFFFC00
01FFFFFFFE00
03F000003E00
03E000003E00
03E000001F00
07C000001F00
07C000001F80
0F8000000F80
0F8000000FC0
1F00000007C0
1F00000007C0
1F00000003E0
3E00000003E0
3E00000003F0
7C00000001F0
7C00000001F8
F800000000F8
F800000000F8
ENDCHAR
STARTCHAR 01CE
ENCODING 462
SWIDTH 687 0
DWIDTH 44 0
BBX 37 48 3 -1
BITMAP
01F801F800
00FC03F000
003E07E000
001F9F8000
000FFF0000
0007FE0000
0003FC0000
0001F80000
0000000000
0000000000
0000000000
0003FE0000
001FFF80F8
007FFFE0F8
01FFFFF8F8
03FF0FFCF8
07F800FEF8
0FE0003EF8
1FC0001FF8
3F00000FF8
3F000007F8
7E000003F8
7C000003F8
7C000001F8
F8000001F8
F8000001F8
F8000000F8
F8000000F8
F0000000F8
F0000000F8
F8000000F8
F8000000F8
F8000000F8
F8000001F8
F8000001F8
7C000001F8
7C000003F8
7E000007F8
3F000007F8
3F80000FF8
1FC0001FF8
0FE0007FF8
07F801FEF8
03FFFFFCF8
01FFFFF8F8
007FFFF0F8
001FFFC0F8
0003FE0000
ENDCHAR
STARTCHAR 01CF
ENCODING 463
SWIDTH 218 0
DWIDTH 14 0
BBX 22 58 -4 0
BITMAP
FC00FC
3E01F8
1F83F0
0FC7E0
07FF80
03FF00
01FE00
00FC00
000000
000000
000000
007C00
007C00
007C00
007C00
007C00
007C00
007C00
007C00
007C00
007C00
007C00
007C00
007C00
007C00
007C00
007C00
007C00
007C00
007C00
007C00
007C00
007C00
007C00
007C00
007C00
007C00
007C00
007C00
007C00
007C00
007C00
007C00
007C00
007C00
007C00
007C00
007C00
007C00
007C00
007C00
007C00
007C00
007C00
007C00
007C00
007C00
007C00
ENDCHAR
STARTCHAR 01D0
ENCODING 464
SWIDTH 203 0
DWIDTH 13 0
BBX 21 47 -4 0
BITMAP
F801F8
7E03F0
3F07E0
1F8FC0
0FFF80
07FE00
03FC00
00F800
000000
000000
000000
000000
00F800
00F800
00F800
00F800
00F800
00F800
00F800
00F800
00F800
00F800
00F800
00F800
00F800
00F800
00F800
00F800
00F800
00F800
00F800
00F800
00F800
00F800
00F800
00F800
00F800
00F800
00F800
00F800
00F800
00F800
00F800
00F800
00F800
00F800
00F800
ENDCHAR
STARTCHAR 01D1
ENCODING 465
SWIDTH 875 0
DWIDTH 56 0
BBX 50 59 3 -1
BITMAP
0003F003F00000
0001F807C00000
0000FC1F800000
00007E3F000000
00001F7E000000
00000FFC000000
000007F8000000
000003E0000000
00000000000000
00000000000000
00000FFC000000
0000FFFF800000
0003FFFFF00000
000FFFFFFC0000
003FFE1FFE0000
007FC001FF0000
00FF00003FC000
01FC00000FE000
03F8000007F000
07E0000003F000
0FC0000001F800
0FC0000000FC00
1F800000007E00
3F000000003E00
3E000000003F00
3E000000001F00
7C000000001F00
7C000000000F80
FC000000000F80
F8000000000F80
F8000000000780
F80000000007C0
F80000000007C0
F80000000007C0
F80000000007C0
F80000000007C0
F80000000007C0
F80000000007C0
F8000000000780
F8000000000F80
7C000000000F80
7C000000000F80
7C000000001F00
3E000000001F00
3E000000003F00
1F000000003E00
1F800000007E00
0F80000000FC00
0FC0000001F800
07E0000003F800
03F8000007F000
01FC00001FE000
00FF00003FC000
007FC001FF8000
003FFC1FFE0000
000FFFFFFC0000
0003FFFFF00000
0000FFFF800000
00000FFC000000
ENDCHAR
STARTCHAR 01D2
ENCODING 466
SWIDTH 656 0
DWIDTH 42 0
BBX 36 48 3 -1
BITMAP
01F801F800
00FC03F000
003E07C000
001F9F8000
000FFF0000
0007FE0000
0003FC0000
0001F80000
0000000000
0000000000
0000000000
0007FC0000
003FFFC000
00FFFFE000
01FFFFF800
03FF0FFC00
07F800FE00
0FE0007F00
1F80001F80
3F00000FC0
3E000007C0
7E000007E0
7C000003E0
7C000003E0
F8000001F0
F8000001F0
F8000001F0
F8000001F0
F8000001F0
F0000001F0
F0000001F0
F8000001F0
F8000001F0
F8000001F0
F8000001F0
7C000003E0
7C000003E0
7E000007E0
3E000007C0
3F00000FC0
1F80001F80
0FE0003F00
07F800FE00
03FF0FFC00
01FFFFF800
007FFFF000
001FFFC000
0003FE0000
ENDCHAR
STARTCHAR 01D3
ENCODING 467
SWIDTH 656 0
DWIDTH 42 0
BBX 32 59 5 -1
BITMAP
07E007E0
03F00FC0
00F83F00
007C7E00
003FFC00
001FF800
000FF000
0007E000
00000000
00000000
00000000
F800001F
F800001F
F800001F
F800001F
F800001F
F800001F
F800001F
F800001F
F800001F
F800001F
F800001F
F800001F
F800001F
F800001F
F800001F
F800001F
F800001F
F800001F
F800001F
F800001F
F800001F
F800001F
F800001F
F800001F
F800001F
F800001F
F800001F
F800001F
F800001F
F800001F
F800001F
F800001F
F800001F
F800001F
F800001F
F800001E
7C00003E
7C00003E
7C00007E
3E00007C
3F0000FC
1F8001F8
1FC007F0
0FFC3FF0
07FFFFE0
01FFFF80
00FFFF00
001FF800
ENDCHAR
STARTCHAR 01D4
ENCODING 468
SWIDTH 609 0
DWIDTH 39 0
BBX 31 48 4 -1
BITMAP
07C00FC0
03F01F80
01F83F00
00FC7E00
007EFC00
003FF000
000FE000
0007C000
00000000
00000000
00000000
00000000
F800003E
F800003E
F800003E
F800003E
F800003E
F800003E
F800003E
F800003E
F800003E
F800003E
F800003E
F800003E
F800003E
F800003E
F800003E
F800003E
F800003E
F800003E
F800003E
F800003E
F800003E
F800003E
F800003E
F800007E
7800007E
7C00007E
7C0000FE
7E0000FE
3E0001FE
3F8003FE
1FC00FFE
0FFFFFBE
07FFFF3E
03FFFE3E
01FFFC3E
003FE000
ENDCHAR
STARTCHAR 01D7
ENCODING 471
SWIDTH 656 0
DWIDTH 42 0
BBX 32 73 5 -1
BITMAP
00000100
00000700
00001F80
00003FC0
0000FF00
0003FE00
0007F800
001FE000
000FC000
000F0000
00040000
00000000
00000000
00000000
007C3E00
007C3E00
007C3E00
007C3E00
007C3E00
007C3E00
007C3E00
007C3E00
00000000
00000000
00000000
F800001F
F800001F
F800001F
F800001F
F800001F
F800001F
F800001F
F800001F
F800001F
F800001F
F800001F
F800001F
F800001F
F800001F
F800001F
F800001F
F800001F
F800001F
F800001F
F800001F
F800001F
F800001F
F800001F
F800001F
F800001F
F800001F
F800001F
F800001F
F800001F
F800001F
F800001F
F800001F
F800001F
F800001F
F800001F
F800001E
7C00003E
7C00003E
7C00007E
3E00007C
3F0000FC
1F8001F8
1FC007F0
0FFC3FF0
07FFFFE0
01FFFF80
00FFFF00
001FF800
ENDCHAR
STARTCHAR 01D8
ENCODING 472
SWIDTH 609 0
DWIDTH 39 0
BBX 31 62 4 -1
BITMAP
00000200
00000F00
00001F00
00007F80
0001FF00
0003FC00
000FF000
001FE000
001F8000
000E0000
000C0000
00000000
00000000
00000000
00F83C00
00F83C00
00F83C00
00F83C00
00F83C00
00F83C00
00F83C00
00F83C00
00000000
00000000
00000000
00000000
F800003E
F800003E
F800003E
F800003E
F800003E
F800003E
F800003E
F800003E
F800003E
F800003E
F800003E
F800003E
F800003E
F800003E
F800003E
F800003E
F800003E
F800003E
F800003E
F800003E
F800003E
F800003E
F800003E
F800007E
7800007E
7C00007E
7C0000FE
7E0000FE
3E0001FE
3F8003FE
1FC00FFE
0FFFFFBE
07FFFF3E
03FFFE3E
01FFFC3E
003FE000
ENDCHAR
STARTCHAR 01D9
ENCODING 473
SWIDTH 656 0
DWIDTH 42 0
BBX 32 71 5 -1
BITMAP
07E007E0
03F00FC0
01F81F80
00FC3F00
007E7E00
003FFC00
001FF800
000FF000
0007E000
00000000
00000000
00000000
007C3E00
007C3E00
007C3E00
007C3E00
007C3E00
007C3E00
007C3E00
007C3E00
00000000
00000000
00000000
F800001F
F800001F
F800001F
F800001F
F800001F
F800001F
F800001F
F800001F
F800001F
F800001F
F800001F
F800001F
F800001F
F800001F
F800001F
F800001F
F800001F
F800001F
F800001F
F800001F
F800001F
F800001F
F800001F
F800001F
F800001F
F800001F
F800001F
F800001F
F800001F
F800001F
F800001F
F800001F
F800001F
F800001F
F800001F
F800001E
7C00003E
7C00003E
7C00007E
3E00007C
3F0000FC
1F8001F8
1FC007F0
0FFC3FF0
07FFFFE0
01FFFF80
00FFFF00
001FF800
ENDCHAR
STARTCHAR 01DA
ENCODING 474
SWIDTH 609 0
DWIDTH 39 0
BBX 31 60 4 -1
BITMAP
07C00FC0
03F01F80
01F83F00
00FC7E00
007EFC00
003FF000
000FE000
0007C000
00000000
00000000
00000000
00000000
00F83C00
00F83C00
00F83C00
00F83C00
00F83C00
00F83C00
00F83C00
00F83C00
00000000
00000000
00000000
00000000
F800003E
F800003E
F800003E
F800003E
F800003E
F800003E
F800003E
F800003E
F800003E
F800003E
F800003E
F800003E
F800003E
F800003E
F800003E
F800003E
F800003E
F800003E
F800003E
F800003E
F800003E
F800003E
F800003E
F800007E
7800007E
7C00007E
7C0000FE
7E0000FE
3E0001FE
3F8003FE
1FC00FFE
0FFFFFBE
07FFFF3E
03FFFE3E
01FFFC3E
003FE000
ENDCHAR
STARTCHAR 01DB
ENCODING 475
SWIDTH 656 0
DWIDTH 42 0
BBX 32 73 5 -1
BITMAP
00800000
00E00000
01F80000
03FC0000
00FF0000
007FC000
001FE000
0007F800
0003F000
0000F000
00002000
00000000
00000000
00000000
007C3E00
007C3E00
007C3E00
007C3E00
007C3E00
007C3E00
007C3E00
007C3E00
00000000
00000000
00000000
F800001F
F800001F
F800001F
F800001F
F800001F
F800001F
F800001F
F800001F
F800001F
F800001F
F800001F
F800001F
F800001F
F800001F
F800001F
F800001F
F800001F
F800001F
F800001F
F800001F
F800001F
F800001F
F800001F
F800001F
F800001F
F800001F
F800001F
F800001F
F800001F
F800001F
F800001F
F800001F
F800001F
F800001F
F800001F
F800001E
7C00003E
7C00003E
7C00007E
3E00007C
3F0000FC
1F8001F8
1FC007F0
0FFC3FF0
07FFFFE0
01FFFF80
00FFFF00
001FF800
ENDCHAR
STARTCHAR 01DC
ENCODING 476
SWIDTH 609 0
DWIDTH 39 0
BBX 31 62 4 -1
BITMAP
00800000
01C00000
03F00000
03FC0000
01FE0000
007F8000
003FE000
000FF000
0003F000
0000E000
00004000
00000000
00000000
00000000
00F83C00
00F83C00
00F83C00
00F83C00
00F83C00
00F83C00
00F83C00
00F83C00
00000000
00000000
00000000
00000000
F800003E
F800003E
F800003E
F800003E
F800003E
F800003E
F800003E
F800003E
F800003E
F800003E
F800003E
F800003E
F800003E
F800003E
F800003E
F800003E
F800003E
F800003E
F800003E
F800003E
F800003E
F800003E
F800003E
F800007E
7800007E
7C00007E
7C0000FE
7E0000FE
3E0001FE
3F8003FE
1FC00FFE
0FFFFFBE
07FFFF3E
03FFFE3E
01FFFC3E
003FE000
ENDCHAR
STARTCHAR 01DD
ENCODING 477
SWIDTH 656 0
DWIDTH 42 0
BBX 36 37 3 -1
BITMAP
0007FC0000
001FFF8000
007FFFE000
01FFFFF800
03FF0FFC00
07F001FE00
0FE0007F00
1F80003F00
3F00000F80
3E00000FC0
7E000007C0
7C000003E0
7C000003E0
00000001E0
00000001F0
00000001F0
00000001F0
FFFFFFFFF0
FFFFFFFFF0
FFFFFFFFF0
FFFFFFFFF0
F0000001F0
F8000001F0
F8000001E0
78000003E0
7C000003E0
7C000007C0
3E00000FC0
1F00000F80
1F80001F80
0FC0007F00
07F001FE00
03FF0FFC00
01FFFFF800
00FFFFE000
003FFF8000
0007FC0000
ENDCHAR
STARTCHAR 01E6
ENCODING 486
SWIDTH 875 0
DWIDTH 56 0
BBX 50 59 3 -1
BITMAP
0003F003F00000
0001F807C00000
0000FC1F800000
00003E3F000000
00001FFE000000
00000FFC000000
000007F8000000
000003F0000000
00000000000000
00000000000000
00000FFC000000
0000FFFFC00000
0007FFFFF00000
000FFFFFFC0000
003FFE1FFF0000
007FC000FF8000
00FF00001FC000
01FC00000FF000
03F0000003F000
07E0000001F800
0FC0000000FC00
1F800000007C00
1F000000007E00
3F000000000000
3E000000000000
7E000000000000
7C000000000000
7C000000000000
F8000000000000
F8000000000000
F8000000000000
F8000000000000
F8000000000000
F8000000000000
F8000000000000
F8000000000000
F8003FFFFFFFC0
F8003FFFFFFFC0
F8003FFFFFFFC0
F8003FFFFFFFC0
7C000000000F80
7C000000000F80
7C000000000F80
3E000000001F00
3E000000001F00
1F000000003F00
1F800000007E00
0F800000007C00
0FC0000000FC00
07E0000001F800
03F8000003F000
01FC00000FE000
00FF00003FC000
007FC000FF8000
003FFE0FFF0000
000FFFFFFC0000
0003FFFFF80000
00007FFFC00000
00000FFE000000
ENDCHAR
STARTCHAR 01E7
ENCODING 487
SWIDTH 671 0
DWIDTH 43 0
BBX 36 61 3 -14
BITMAP
01F803F000
00FC07E000
007E0FC000
003F1F8000
001FBF0000
0007FE0000
0003F80000
0001F00000
0000000000
0000000000
0000000000
0007FC0000
003FFF81F0
00FFFFE1F0
01FFFFF1F0
03FF0FF9F0
07F001FDF0
0FC0007FF0
1F80001FF0
3F00000FF0
3E00000FF0
7E000007F0
7C000003F0
7C000003F0
F8000001F0
F8000001F0
F8000001F0
F8000001F0
F8000001F0
F0000001F0
F8000001F0
F8000001F0
F8000001F0
F8000001F0
F8000003F0
7C000003F0
7C000007F0
7E000007F0
3E00000FF0
3F00001FF0
1F80003FF0
0FE0007DF0
07F001FDF0
03FF0FF9F0
01FFFFF1F0
007FFFE1F0
001FFF81F0
0003FC01F0
7C000003E0
7C000003E0
3E000003E0
3F000007E0
1F00000FC0
1F80001FC0
0FE0003F80
07F000FF00
03FF07FE00
01FFFFFC00
007FFFF000
001FFFE000
0007FE0000
ENDCHAR
STARTCHAR 01EA
ENCODING 490
SWIDTH 875 0
DWIDTH 56 0
BBX 50 64 3 -16
BITMAP
00000FFC000000
0000FFFF800000
0003FFFFF00000
000FFFFFFC0000
003FFE1FFE0000
007FC001FF0000
00FF00003FC000
01FC00000FE000
03F8000007F000
07E0000003F000
0FC0000001F800
0FC0000000FC00
1F800000007E00
3F000000003E00
3E000000003F00
3E000000001F00
7C000000001F00
7C000000000F80
FC000000000F80
F8000000000F80
F8000000000780
F80000000007C0
F80000000007C0
F80000000007C0
F80000000007C0
F80000000007C0
F80000000007C0
F80000000007C0
F8000000000780
F8000000000F80
7C000000000F80
7C000000000F80
7C000000001F00
3E000000001F00
3E000000003F00
1F000000003E00
1F800000007E00
0F80000000FC00
0FC0000001F800
07E0000003F800
03F8000007F000
01FC00001FE000
00FF00003FC000
007FC001FF8000
003FFC1FFE0000
000FFFFFFC0000
0003FFFFF00000
0000FFFFC00000
00000FFF000000
0000007C000000
000000F8000000
000001F0000000
000001E0000000
000003E0000000
000003C0000000
000003C0000000
000003C0000000
000003E0000000
000003E0000000
000003FF800000
000001FF800000
000000FF800000
0000007F800000
0000003F800000
ENDCHAR
STARTCHAR 01EB
ENCODING 491
SWIDTH 656 0
DWIDTH 42 0
BBX 36 52 3 -16
BITMAP
0007FC0000
003FFFC000
00FFFFE000
01FFFFF800
03FF0FFC00
07F800FE00
0FE0007F00
1F80001F80
3F00000FC0
3E000007C0
7E000007E0
7C000003E0
7C000003E0
F8000001F0
F8000001F0
F8000001F0
F8000001F0
F8000001F0
F0000001F0
F0000001F0
F8000001F0
F8000001F0
F8000001F0
F8000001F0
7C000003E0
7C000003E0
7E000007E0
3E000007C0
3F00000FC0
1F80001F80
0FE0003F00
07F800FE00
03FF0FFC00
01FFFFF800
007FFFF000
001FFFC000
0003FF8000
00001F0000
00003E0000
00007C0000
0000F80000
0000F00000
0001F00000
0001F00000
0001F00000
0001F00000
0000F80000
0000FFC000
00007FC000
00007FC000
00003FC000
00000FC000
ENDCHAR
STARTCHAR 01F0
ENCODING 496
SWIDTH 203 0
DWIDTH 13 0
BBX 21 59 -4 -12
BITMAP
FC01F8
7E03F0
3F07E0
1F8FC0
0FDF80
03FF00
01FC00
00F800
000000
000000
000000
000000
00F800
00F800
00F800
00F800
00F800
00F800
00F800
00F800
00F800
00F800
00F800
00F800
00F800
00F800
00F800
00F800
00F800
00F800
00F800
00F800
00F800
00F800
00F800
00F800
00F800
00F800
00F800
00F800
00F800
00F800
00F800
00F800
00F800
00F800
00F800
00F800
00F800
00F800
01F000
01F000
03F000
07E000
1FE000
7FC000
7F8000
7F0000
7C0000
ENDCHAR
STARTCHAR 01F4
ENCODING 500
SWIDTH 875 0
DWIDTH 56 0
BBX 50 62 3 -1
BITMAP
00000000800000
00000003800000
0000000FC00000
0000001FC00000
0000007F800000
000001FF000000
000003FC000000
00000FF0000000
000007C0000000
00000780000000
00000200000000
00000000000000
00000000000000
00000FFC000000
0000FFFFC00000
0007FFFFF00000
000FFFFFFC0000
003FFE1FFF0000
007FC000FF8000
00FF00001FC000
01FC00000FF000
03F0000003F000
07E0000001F800
0FC0000000FC00
1F800000007C00
1F000000007E00
3F000000000000
3E000000000000
7E000000000000
7C000000000000
7C000000000000
F8000000000000
F8000000000000
F8000000000000
F8000000000000
F8000000000000
F8000000000000
F8000000000000
F8000000000000
F8003FFFFFFFC0
F8003FFFFFFFC0
F8003FFFFFFFC0
F8003FFFFFFFC0
7C000000000F80
7C000000000F80
7C000000000F80
3E000000001F00
3E000000001F00
1F000000003F00
1F800000007E00
0F800000007C00
0FC0000000FC00
07E0000001F800
03F8000003F000
01FC00000FE000
00FF00003FC000
007FC000FF8000
003FFE0FFF0000
000FFFFFFC0000
0003FFFFF80000
00007FFFC00000
00000FFE000000
ENDCHAR
STARTCHAR 01F5
ENCODING 501
SWIDTH 671 0
DWIDTH 43 0
BBX 36 63 3 -14
BITMAP
0000008000
000001C000
000007E000
00001FE000
00003FC000
0000FF0000
0003FE0000
0007F80000
0007E00000
0003800000
0001000000
0000000000
0000000000
0007FC0000
003FFF81F0
00FFFFE1F0
01FFFFF1F0
03FF0FF9F0
07F001FDF0
0FC0007FF0
1F80001FF0
3F00000FF0
3E00000FF0
7E000007F0
7C000003F0
7C000003F0
F8000001F0
F8000001F0
F8000001F0
F8000001F0
F8000001F0
F0000001F0
F8000001F0
F8000001F0
F8000001F0
F8000001F0
F8000003F0
7C000003F0
7C000007F0
7E000007F0
3E00000FF0
3F00001FF0
1F80003FF0
0FE0007DF0
07F001FDF0
03FF0FF9F0
01FFFFF1F0
007FFFE1F0
001FFF81F0
0003FC01F0
7C000003E0
7C000003E0
3E000003E0
3F000007E0
1F00000FC0
1F80001FC0
0FE0003F80
07F000FF00
03FF07FE00
01FFFFFC00
007FFFF000
001FFFE000
0007FE0000
ENDCHAR
STARTCHAR 01FA
ENCODING 506
SWIDTH 734 0
DWIDTH 47 0
BBX 45 74 1 0
BITMAP
000000040000
0000000E0000
0000003F0000
000000FF0000
000001FE0000
000007F80000
00001FF00000
00003FC00000
00003F000000
00001E000000
000008000000
000000000000
000007000000
00001FC00000
00003FF00000
000078F00000
000070780000
0000E0380000
0000E0380000
0000E0380000
0000E0380000
000070780000
00007FF00000
00003FE00000
00000FC00000
000000000000
000000000000
00000FC00000
00001FC00000
00001FC00000
00003FE00000
00003FE00000
00003FF00000
00007DF00000
00007CF80000
0000F8F80000
0000F8F80000
0001F07C0000
0001F07C0000
0001F03E0000
0003E03E0000
0003E03F0000
0007C01F0000
0007C01F0000
000F800F8000
000F800F8000
000F8007C000
001F0007C000
001F0007E000
003E0003E000
003E0003E000
007C0001F000
007C0001F000
007C0000F800
00FFFFFFF800
00FFFFFFFC00
01FFFFFFFC00
01FFFFFFFE00
03F000003E00
03E000003E00
03E000001F00
07C000001F00
07C000001F80
0F8000000F80
0F8000000FC0
1F00000007C0
1F00000007C0
1F00000003E0
3E00000003E0
3E00000003F0
7C00000001F0
7C00000001F8
F800000000F8
F800000000F8
ENDCHAR
STARTCHAR 01FB
ENCODING 507
SWIDTH 687 0
DWIDTH 44 0
BBX 37 63 3 -1
BITMAP
0000004000
000001C000
000007E000
00000FF000
00003FC000
0000FF8000
0001FE0000
0007F80000
0003F00000
0003C00000
0001000000
0000000000
0000F00000
0003FC0000
0007FE0000
000F8F0000
000E070000
000E070000
000E038000
000E038000
000E070000
000F0F0000
0007FE0000
0003FC0000
0001F80000
0000000000
0003FE0000
001FFF80F8
007FFFE0F8
01FFFFF8F8
03FF0FFCF8
07F800FEF8
0FE0003EF8
1FC0001FF8
3F00000FF8
3F000007F8
7E000003F8
7C000003F8
7C000001F8
F8000001F8
F8000001F8
F8000000F8
F8000000F8
F0000000F8
F0000000F8
F8000000F8
F8000000F8
F8000000F8
F8000001F8
F8000001F8
7C000001F8
7C000003F8
7E000007F8
3F000007F8
3F80000FF8
1FC0001FF8
0FE0007FF8
07F801FEF8
03FFFFFCF8
01FFFFF8F8
007FFFF0F8
001FFFC0F8
0003FE0000
ENDCHAR
STARTCHAR 01FC
ENCODING 508
SWIDTH 984 0
DWIDTH 63 0
BBX 59 60 1 0
BITMAP
0000000000100000
0000000000700000
0000000001F80000
0000000003FC0000
000000000FF00000
000000003FE00000
000000007F800000
00000001FE000000
00000000FC000000
00000000F0000000
0000000040000000
0000000000000000
0000000000000000
00000000FFFFFFE0
00000001FFFFFFE0
00000001FFFFFFE0
00000003FFFFFFE0
00000007FC000000
00000007FC000000
0000000FBC000000
0000001FBC000000
0000003F3C000000
0000003E3C000000
0000007E3C000000
000000FC3C000000
000000F83C000000
000001F83C000000
000003F03C000000
000003E03C000000
000007E03C000000
00000FC03C000000
00000F803C000000
00001F003C000000
00003F003C000000
00007E003FFFFFC0
00007C003FFFFFC0
0000FC003FFFFFC0
0001F8003FFFFFC0
0001F0003C000000
0003F0003C000000
0007FFFFFC000000
0007FFFFFC000000
000FFFFFFC000000
001FFFFFFC000000
003F00003C000000
003E00003C000000
007E00003C000000
00FC00003C000000
00F800003C000000
01F800003C000000
03F000003C000000
03E000003C000000
07E000003C000000
0FC000003C000000
0F8000003C000000
1F0000003C000000
3F0000003FFFFFE0
7E0000003FFFFFE0
7C0000003FFFFFE0
FC0000003FFFFFE0
ENDCHAR
STARTCHAR 01FD
ENCODING 509
SWIDTH 1156 0
DWIDTH 74 0
BBX 69 50 3 -1
BITMAP
000000000040000000
0000000001C0000000
0000000007E0000000
000000000FF0000000
000000003FC0000000
00000000FF80000000
00000001FE00000000
00000007F800000000
00000003F000000000
00000003C000000000
000000010000000000
000000000000000000
000000000000000000
0003FE000003FE0000
001FFFC0F81FFFC000
007FFFE0F87FFFF000
01FFFFF8F8FFFFF800
03FFFFFCF9FFFFFE00
07F800FEFBF800FF00
0FE0003FFFE0003F00
1FC0001FFFC0001F80
3F80000FFF80000FC0
3F000007FF000007C0
7E000003FE000003E0
7C000003FE000003E0
7C000001FC000001E0
F8000001FC000001F0
F8000000F8000000F0
F8000000F8000000F0
F8000000FFFFFFFFF0
F8000000FFFFFFFFF0
F8000000FFFFFFFFF0
F8000000FFFFFFFFF8
F8000000F800000000
F8000000F800000000
F8000000F800000000
F8000001FC00000000
7C000001FC00000000
7C000003FC000003E0
7E000003FE000003E0
3F000007FF000007E0
3F00000FFF80000FC0
1F80001FFFC0001F80
0FE0003FFFE0003F80
07F800FEFBF800FF00
03FF0FFCF9FF87FE00
01FFFFF8F8FFFFF800
007FFFF0F83FFFF000
001FFFC0F81FFFC000
0003FE000003FE0000
ENDCHAR
STARTCHAR 01FE
ENCODING 510
SWIDTH 875 0
DWIDTH 56 0
BBX 50 66 3 -5
BITMAP
00000001800000
00000003800000
0000000FC00000
0000003FC00000
0000007F800000
000001FE000000
000007FC000000
00000FF0000000
000007C0000000
00000780001000
00000200001C00
00000000003E00
00000000007C00
00001FFC00FC00
0000FFFF81F800
0007FFFFF1F000
000FFFFFFFE000
003FFC1FFFE000
007FC001FFC000
00FF00003FC000
01FC00001FE000
03F000003FF000
07E000007FF800
0FC000007DF800
1F800000F8FC00
1F000001F87E00
3F000003F03E00
3E000003E03F00
7E000007C01F00
7C00000FC01F80
7C00001F800F80
FC00001F000F80
F800003E000F80
F800007E000780
F80000FC0007C0
F80000F80007C0
F80001F00007C0
F80003F00007C0
F80007E00007C0
F80007C00007C0
F8000F800007C0
F8001F80000780
F8003F00000F80
F8003E00000F80
7C007C00000F80
7C00FC00001F00
7E01F800001F00
3E01F000003F00
3F03E000003E00
1F07E000007E00
1F8FC00000FC00
0FCF800001F800
07FF000003F800
03FF000007F000
01FE00000FE000
00FF00003FC000
00FFC000FF8000
01FFFC1FFE0000
03FFFFFFFC0000
07E3FFFFF00000
07C0FFFFC00000
0FC00FFC000000
1F800000000000
3F000000000000
0E000000000000
04000000000000
ENDCHAR
STARTCHAR 01FF
ENCODING 511
SWIDTH 656 0
DWIDTH 42 0
BBX 36 52 3 -3
BITMAP
0000004000
000001C000
000007E000
00000FE000
00003FC000
0000FF8000
0001FE0000
0007F80000
0003E00000
0003C00000
0001000000
0000000100
0000000380
0003FC07C0
001FFF8FC0
007FFFFF80
01FFFFFF00
03FF0FFE00
07F800FE00
0FE000FF00
1FC000FF80
1F0001FF80
3F0003E7C0
7E0007E7E0
7C000FC3E0
7C000F83E0
F8001F01F0
F8003F01F0
F8007E01F0
F8007C01F0
F800F801F0
F001F801F0
F003F001F0
F803E001F0
F807C001F0
F80FC001F0
F81F8003E0
781F0003E0
7C3E0003E0
7C7C0007C0
3EFC000FC0
3FF8000F80
1FF0003F80
0FE0007F00
07F001FE00
0FFE0FFC00
0FFFFFF800
1F7FFFE000
3F1FFFC000
3E03FE0000
1C00000000
0800000000
ENDCHAR
STARTCHAR 0200
ENCODING 512
SWIDTH 734 0
DWIDTH 47 0
BBX 45 60 1 0
BITMAP
010008000000
03C01C000000
03E03F000000
03F03F800000
01FC0FC00000
00FE07F00000
003F83F80000
001FC0FC0000
0007C07E0000
0003801C0000
000080080000
000000000000
000000000000
00000FC00000
00001FC00000
00001FC00000
00003FE00000
00003FE00000
00003FF00000
00007DF00000
00007CF80000
0000F8F80000
0000F8F80000
0001F07C0000
0001F07C0000
0001F03E0000
0003E03E0000
0003E03F0000
0007C01F0000
0007C01F0000
000F800F8000
000F800F8000
000F8007C000
001F0007C000
001F0007E000
003E0003E000
003E0003E000
007C0001F000
007C0001F000
007C0000F800
00FFFFFFF800
00FFFFFFFC00
01FFFFFFFC00
01FFFFFFFE00
03F000003E00
03E000003E00
03E000001F00
07C000001F00
07C000001F80
0F8000000F80
0F8000000FC0
1F00000007C0
1F00000007C0
1F00000003E0
3E00000003E0
3E00000003F0
7C00000001F0
7C00000001F8
F800000000F8
F800000000F8
ENDCHAR
ENDFONT
